<?xml version="1.0" standalone="no"?> <!DOCTYPE svg PUBLIC "-//W3C//DTD SVG 20010904//EN" "http://www.w3.org/TR/2001/REC-SVG-20010904/DTD/svg10.dtd"> <svg version="1.0" xmlns="http://www.w3.org/2000/svg" width="526.000000pt" height="525.000000pt" viewBox="0 0 526.000000 525.000000" preserveAspectRatio="xMidYMid meet"> <g transform="translate(0.000000,525.000000) scale(0.050000,-0.050000)" fill="#ffffff" stroke="none"> <path d="M8660 10429 c-71 -16 -206 -66 -300 -111 l-170 -83 -2356 -2352 c-1296 -1294 -2373 -2380 -2394 -2414 -33 -52 -305 -1003 -585 -2045 -78 -287 -81 -312 -58 -400 46 -173 234 -303 398 -277 159 25 2258 618 2315 654 33 20 1118 1097 2412 2393 l2351 2356 84 170 c193 394 182 848 -32 1218 -70 121 -564 624 -704 717 -255 169 -659 242 -961 174z m511 -775 c88 -46 492 -460 531 -544 95 -205 34 -441 -168 -645 l-123 -125 -515 514 -516 515 115 117 c213 217 464 279 676 168z m-2066 -3620 c-1855 -1857 -1919 -1916 -2198 -2026 -183 -72 -1185 -357 -1200 -341 -11 11 267 1023 294 1071 10 17 41 93 68 167 84 229 125 273 1978 2130 l1803 1805 515 -515 515 -515 -1775 -1776z"/> <path d="M1064 9420 c-386 -102 -719 -374 -895 -730 -150 -306 -139 12 -139 -3940 l0 -3540 46 -159 c115 -396 358 -685 734 -872 300 -149 16 -140 4245 -134 l3795 5 160 56 c483 171 840 580 928 1063 14 77 22 557 22 1368 l0 1249 -51 87 c-149 255 -519 245 -646 -17 -42 -88 -43 -103 -43 -1260 0 -1381 -5 -1422 -187 -1612 -211 -221 74 -207 -4113 -200 l-3651 6 -134 66 c-154 76 -258 188 -317 344 -43 114 -62 6908 -19 7057 51 178 172 312 361 401 l110 52 1261 10 1262 10 81 54 c229 151 234 465 10 616 l-74 50 -1300 4 c-1225 4 -1308 2 -1446 -34z"/> </g> </svg>