<?xml version="1.0" standalone="no"?> <!DOCTYPE svg PUBLIC "-//W3C//DTD SVG 20010904//EN" "http://www.w3.org/TR/2001/REC-SVG-20010904/DTD/svg10.dtd"> <svg version="1.0" xmlns="http://www.w3.org/2000/svg" width="600.000000pt" height="489.000000pt" viewBox="0 0 600.000000 489.000000" preserveAspectRatio="xMidYMid meet"> <g transform="translate(0.000000,489.000000) scale(0.050000,-0.050000)" fill="#ffffff" stroke="none"> <path d="M8078 9060 c-7 -16 -10 -777 -7 -1690 2 -913 -1 -1765 -6 -1893 l-11 -233 -120 -8 c-197 -15 -326 -204 -279 -411 11 -47 16 -85 12 -85 -113 0 -965 274 -1004 323 -43 53 -56 58 -124 47 -62 -11 -94 -3 -163 39 -162 97 -158 90 -133 229 26 150 -6 200 -166 253 -54 18 -97 45 -97 60 0 99 -167 98 -192 -2 -9 -36 -26 -49 -62 -49 -33 0 -75 -26 -117 -73 -87 -94 -166 -85 -323 37 -191 149 -272 196 -413 239 -83 26 -140 55 -145 74 -38 130 -133 270 -289 424 -134 132 -176 187 -187 243 -60 322 -328 556 -636 556 -91 0 -205 56 -332 162 -67 56 -20 128 89 134 178 10 235 178 229 678 -6 484 -123 686 -446 767 -567 141 -938 -353 -699 -931 116 -280 58 -443 -257 -720 -375 -329 -393 -349 -430 -479 -49 -166 -31 -295 68 -497 44 -90 105 -227 134 -304 79 -208 213 -422 395 -633 327 -377 374 -545 294 -1041 -55 -339 -28 -520 103 -700 35 -49 43 -47 -394 -105 -598 -79 -590 -75 -590 -287 0 -149 -4 -146 306 -238 159 -47 255 -86 258 -104 3 -16 4 -327 0 -692 l-5 -664 -175 58 c-166 56 -180 58 -304 35 -189 -36 -180 -27 -180 -180 0 -164 -55 -127 500 -339 237 -90 569 -217 738 -282 321 -123 375 -132 552 -91 l100 23 6 152 6 152 -206 85 c-311 128 -436 185 -436 199 0 8 268 66 595 130 782 154 2418 481 3188 638 l613 125 257 -65 c336 -85 313 -89 377 61 l54 128 313 65 c172 35 428 90 568 120 240 52 263 54 370 28 63 -15 375 -91 692 -168 l577 -140 128 33 128 32 0 147 c0 173 6 167 -240 219 -93 19 -186 43 -205 53 -33 16 -35 189 -35 3198 0 2115 -7 3176 -20 3168 -13 -8 -20 -1096 -20 -3199 l0 -3187 -63 -22 c-35 -12 -71 -22 -80 -22 -9 0 -17 1450 -17 3221 0 2143 -7 3217 -20 3209 -13 -8 -20 -1104 -20 -3223 l0 -3211 -75 14 c-41 7 -82 18 -90 23 -8 5 -17 1451 -20 3213 -3 2248 -8 2798 -15 1844 l-10 -1360 -47 -7 c-120 -17 -143 7 -143 147 0 73 -9 130 -20 130 -13 0 -22 426 -25 1210 -3 790 -12 1210 -25 1210 -13 0 -22 -420 -25 -1210 -3 -784 -12 -1210 -25 -1210 -13 0 -20 185 -21 505 -3 925 -20 1905 -35 1910 -8 3 -19 -587 -26 -1310 -6 -723 -13 -1318 -15 -1321 -1 -3 -55 -3 -118 0 l-115 6 -5 1315 c-3 854 -12 1315 -25 1315 -13 0 -20 -457 -20 -1312 l0 -1313 -110 9 c-60 5 -117 16 -125 24 -8 9 -19 595 -25 1304 -7 839 -17 1288 -30 1288 -27 -1 -25 84 -28 -1195 -1 -748 -9 -1145 -22 -1145 -13 0 -20 126 -20 337 0 793 -27 2021 -45 2010 -11 -7 -13 -466 -4 -1176 11 -866 9 -1169 -8 -1179 -13 -8 -23 -63 -23 -122 0 -118 -5 -123 -150 -134 l-80 -6 -5 690 c-5 670 -3 707 63 1300 37 336 61 618 52 627 -23 24 -34 -27 -62 -282 -33 -300 -58 -285 -58 36 0 169 -7 257 -20 249 -13 -8 -20 -228 -20 -596 1 -575 -84 -1632 -140 -1764 -10 -23 -18 476 -19 1166 -1 848 -7 1202 -22 1193 -15 -9 -21 -465 -18 -1496 l3 -1483 -52 -408 c-29 -225 -52 -421 -52 -437 0 -16 -11 -25 -25 -20 -20 7 -27 419 -35 1937 -5 1060 -15 1915 -22 1898z m-4821 -262 c273 -136 374 -490 291 -1017 -42 -271 -54 -290 -188 -297 -118 -7 -139 -24 -140 -110 l0 -56 -62 36 c-88 51 -127 107 -202 290 -54 131 -78 167 -129 192 -126 60 -131 46 -119 -353 l10 -358 -50 -67 c-250 -334 -233 -887 48 -1514 45 -102 64 -90 64 41 0 104 70 412 101 444 27 27 24 9 -22 -154 -22 -80 -46 -220 -53 -311 l-12 -166 68 -71 c37 -39 145 -137 239 -217 94 -81 225 -212 290 -292 105 -128 120 -140 125 -97 15 134 57 245 159 418 62 105 142 256 179 336 76 164 69 160 150 102 l59 -42 -13 -233 c-11 -197 -7 -261 30 -430 50 -229 55 -218 -136 -312 -414 -204 -1204 -201 -1204 6 0 35 -5 100 -12 144 -10 75 -9 78 21 41 46 -57 38 -24 -21 89 -50 96 -51 105 -30 263 39 288 41 280 -134 474 -86 95 -173 200 -193 233 -20 33 -57 88 -83 123 l-47 63 -88 -32 c-116 -42 -140 -22 -196 161 -55 181 -43 327 35 431 48 65 49 69 9 34 -60 -51 -101 -149 -101 -239 0 -94 -28 -90 -68 11 -81 201 -50 414 81 559 89 98 107 99 107 6 0 -43 23 -114 58 -175 50 -89 58 -123 58 -262 1 -191 38 -320 133 -464 39 -58 104 -158 146 -220 82 -124 259 -326 286 -326 9 0 -9 56 -40 125 -136 303 -240 764 -212 941 6 41 2 177 -10 302 l-23 226 91 178 c141 277 186 604 83 594 -68 -6 -170 274 -170 468 0 431 437 684 837 484z m5203 -2696 c0 -659 5 -1212 11 -1228 7 -17 2 -36 -10 -43 -14 -9 -21 -215 -21 -632 0 -576 -2 -619 -35 -619 -82 1 -81 -12 -95 1250 l-14 1220 72 615 c40 339 72 620 72 625 0 6 4 10 10 10 5 0 9 -539 10 -1198z m-4583 937 c143 -72 228 -167 285 -319 51 -137 90 -446 57 -457 -13 -4 23 -54 79 -111 56 -56 133 -161 171 -232 70 -131 88 -148 51 -50 -15 40 -14 51 5 46 383 -107 521 -168 679 -300 215 -182 327 -204 422 -86 61 77 134 94 134 32 0 -29 26 -47 98 -71 165 -55 189 -213 60 -390 -118 -164 -189 -174 -338 -47 l-88 76 -311 1 c-404 1 -559 54 -725 247 -66 77 -473 402 -416 333 16 -20 100 -90 186 -156 208 -158 183 -165 -78 -22 -300 164 -433 292 -565 545 -58 111 -110 202 -115 202 -9 0 30 -86 83 -183 65 -119 -334 -174 -541 -75 l-100 48 -6 249 c-8 364 18 402 382 581 176 86 225 120 230 155 11 73 199 64 361 -16z m5019 -479 c7 -118 -12 -150 -74 -131 -74 24 -62 250 13 242 51 -5 55 -12 61 -111z m744 -68 c0 -118 -32 -164 -99 -142 -35 11 -41 29 -41 131 l0 119 70 0 70 0 0 -108z m-456 -93 c255 -26 296 -34 296 -62 0 -13 -25 -17 -65 -10 -36 6 -166 21 -290 34 -123 13 -219 32 -213 42 13 22 23 21 272 -4z m-184 -59 c193 -22 418 -48 500 -59 83 -11 161 -20 175 -20 14 -1 25 -23 25 -51 0 -63 0 -63 -500 -1 -214 27 -460 55 -545 63 l-155 14 0 59 c0 56 3 58 75 47 41 -7 233 -30 425 -52z m750 -20 c31 -13 20 -18 -46 -19 -53 0 -82 7 -74 19 15 24 65 24 120 0z m124 -73 c14 -37 -41 -87 -98 -87 -42 0 -52 90 -11 107 51 20 97 12 109 -20z m-748 -68 c609 -71 574 -63 574 -131 0 -53 -1 -53 -105 -41 -58 7 -298 35 -535 63 -588 68 -560 62 -560 121 0 63 -19 63 626 -12z m750 -96 c6 -40 -54 -83 -117 -83 -44 0 -19 117 26 126 68 13 84 5 91 -43z m-1156 -13 c218 -19 259 -46 189 -126 -3 -4 -96 4 -207 18 l-202 24 0 58 c0 46 7 57 35 49 19 -6 103 -16 185 -23z m356 -54 c42 -42 29 -96 -24 -96 -65 0 -105 50 -72 90 30 36 64 38 96 6z m339 -27 c281 -35 285 -36 285 -89 0 -57 -11 -58 -290 -22 -259 33 -260 33 -266 88 -4 29 -1 54 6 54 8 0 127 -14 265 -31z m460 -49 c7 -44 -18 -72 -80 -87 -51 -13 -55 -9 -55 45 0 77 122 115 135 42z m-1122 -28 c25 -18 12 -1034 -13 -1041 -16 -4 -73 -13 -125 -21 l-95 -12 0 552 0 553 115 -14 c63 -8 117 -15 118 -17z m114 -557 c2 -345 -4 -535 -17 -535 -19 0 -50 1010 -33 1061 33 98 47 -53 50 -526z m253 511 c6 -5 13 -188 16 -406 7 -423 14 -448 105 -399 37 19 39 46 39 412 0 349 3 390 32 379 17 -7 62 -12 100 -12 l68 0 0 -530 c0 -411 -6 -530 -25 -530 -14 0 -140 19 -280 43 l-255 44 0 516 0 516 95 -12 c52 -7 100 -17 105 -21z m115 -393 c5 -323 2 -373 -25 -373 -26 0 -30 53 -30 382 0 296 6 379 25 373 19 -6 26 -105 30 -382z m345 -213 c0 -348 -7 -560 -19 -560 -19 0 -41 1093 -23 1112 35 34 42 -59 42 -552z m284 534 c20 -31 20 -1036 1 -1067 -11 -17 -42 -18 -105 -6 -50 9 -97 18 -105 18 -8 1 -15 242 -15 536 l0 535 105 4 c63 2 110 -6 119 -20z m-3937 -90 c16 -24 -33 -184 -56 -184 -63 1 -79 36 -54 118 23 78 82 113 110 66z m207 -134 c91 -38 98 -70 56 -247 -20 -84 -37 -181 -38 -215 -2 -34 -17 -76 -36 -94 -18 -19 -39 -63 -47 -99 -34 -158 -28 -154 -191 -116 -140 33 -235 101 -106 76 32 -7 90 -18 130 -25 l71 -13 84 307 c101 376 102 347 -7 400 -159 78 -90 98 84 26z m2125 -205 c0 -235 -3 -252 -31 -215 -31 40 -29 178 5 395 21 128 27 84 26 -180z m-2159 80 c-1 -41 -46 -178 -66 -198 -8 -8 -9 27 -2 77 13 92 -20 155 -93 180 -14 4 -19 19 -11 32 21 34 172 -46 172 -91z m-1803 -27 c185 -102 221 -138 138 -138 -66 1 -320 57 -338 75 -13 13 -1 165 13 165 2 0 87 -46 187 -102z m1 -149 c98 -17 186 -28 196 -25 9 3 76 -23 147 -59 172 -87 293 -106 566 -91 212 11 234 9 300 -32 l70 -44 -29 -99 c-16 -55 -25 -108 -19 -118 19 -30 131 -46 158 -23 18 15 73 9 193 -19 189 -45 183 -48 219 113 13 61 38 116 57 126 52 27 296 -4 339 -44 45 -40 70 -42 154 -12 105 38 1191 -275 1191 -344 0 -20 -190 -845 -213 -923 -6 -24 -30 -35 -73 -36 -35 0 -140 -12 -234 -27 -206 -31 -205 -32 -165 69 49 124 15 146 -325 211 l-280 53 -106 103 c-59 56 -142 156 -185 223 -87 133 -149 178 -269 199 -44 8 -183 40 -310 72 -138 35 -314 64 -440 72 -158 9 -222 22 -260 49 -80 59 -324 100 -594 100 l-243 -1 -32 138 c-35 155 -42 400 -11 400 11 0 100 -14 198 -31z m3557 -108 c-100 -79 -151 -297 -94 -402 14 -28 14 -39 -1 -39 -117 0 -83 359 42 447 68 48 114 42 53 -6z m303 6 c113 -79 141 -541 35 -578 -74 -25 -323 64 -369 132 -159 233 115 599 334 446z m-2171 -144 c-37 -153 -45 -159 -166 -125 -49 13 -49 14 30 77 44 35 96 96 117 135 54 99 58 78 19 -87z m359 95 c141 -71 145 -74 130 -89 -15 -15 -296 112 -296 134 0 29 37 19 166 -45z m272 -65 c30 -37 7 -93 -39 -93 -47 0 -65 30 -49 80 15 46 55 52 88 13z m-923 -122 c16 -13 -43 -131 -66 -131 -41 0 -54 36 -40 111 12 67 40 72 106 20z m3099 -142 c4 -13 -20 -18 -64 -13 -97 12 -114 48 -19 40 42 -3 79 -15 83 -27z m403 -11 c176 -30 266 -54 294 -80 46 -42 121 -51 133 -16 9 26 196 3 196 -23 0 -45 -159 -38 -512 21 -454 75 -440 71 -408 110 30 37 -4 38 297 -12z m-116 -98 c324 -54 591 -99 594 -100 3 0 5 -27 5 -60 0 -53 -6 -59 -45 -51 -67 15 -1114 191 -1136 191 -11 0 -19 27 -19 60 0 33 3 60 6 60 4 0 272 -45 595 -100z m-4334 18 c291 -51 280 -62 -124 -128 -406 -66 -461 -50 -463 134 0 37 362 33 587 -6z m-591 -120 c8 -44 -228 -182 -428 -250 -281 -96 -678 -85 -941 25 -72 30 -95 126 -27 110 17 -4 97 -24 178 -45 320 -82 796 -15 1072 151 89 53 137 56 146 9z m4914 -48 c669 -116 610 -99 610 -172 0 -56 -5 -60 -55 -50 -30 6 -284 52 -565 102 -611 109 -580 101 -580 161 0 64 -23 65 590 -41z m810 31 c0 -44 -32 -71 -106 -89 -54 -13 -56 -11 -50 52 9 93 156 128 156 37z m-1856 3 c7 -8 -12 -126 -44 -264 -31 -137 -72 -329 -91 -426 l-35 -176 -61 6 c-51 5 -67 -4 -89 -51 -15 -31 -32 -52 -37 -46 -10 10 206 945 226 977 12 19 106 5 131 -20z m237 -194 c12 -578 2 -750 -42 -750 -93 0 -111 28 -107 171 4 114 126 819 139 804 3 -3 7 -104 10 -225z m-2661 152 c83 -23 221 -56 309 -74 192 -39 232 -63 311 -191 105 -171 985 -1087 1102 -1148 108 -56 255 23 538 287 305 285 351 -226 50 -554 -57 -61 -150 -182 -208 -268 -169 -252 -260 -249 -445 18 -97 140 -153 188 -378 323 -38 24 -186 84 -328 134 -388 138 -438 178 -630 510 -130 226 -130 225 6 250 42 7 72 19 66 25 -25 25 -215 -43 -433 -153 -249 -126 -373 -170 -548 -192 -62 -7 -112 -22 -112 -32 0 -62 390 47 661 186 106 53 197 97 203 97 16 0 122 -181 112 -191 -7 -7 -688 -107 -926 -137 -44 -5 -239 -33 -434 -61 -412 -59 -492 -62 -333 -10 130 42 374 79 518 79 55 0 99 9 99 20 0 11 -31 20 -69 20 l-69 0 47 105 46 105 136 15 c74 9 163 24 197 35 l62 20 -70 -11 c-38 -6 -122 -16 -185 -23 -131 -13 -124 -25 -95 174 26 178 -4 358 -88 524 l-68 135 73 12 c40 6 87 15 103 19 99 25 640 -8 780 -48z m2548 26 c44 -17 41 -44 -45 -483 -85 -428 -78 -412 -151 -394 -67 17 -67 12 29 461 102 479 89 446 167 416z m-3732 -46 c202 31 213 26 290 -137 91 -191 94 -520 6 -729 -69 -167 -80 -176 -246 -197 -75 -10 -217 -40 -316 -68 -527 -147 -882 -46 -1043 299 -26 55 -47 89 -47 76 0 -37 43 -128 104 -220 74 -110 72 -114 -43 -100 -249 30 -399 195 -452 499 -16 87 27 415 54 415 10 0 74 -19 143 -43 369 -127 923 -44 1229 184 67 50 77 52 117 26 38 -25 69 -26 204 -5z m4634 -133 c275 -50 529 -97 565 -103 60 -10 105 -126 49 -126 -48 0 -1063 188 -1149 213 -23 6 -35 30 -35 70 0 48 7 58 35 49 19 -6 260 -52 535 -103z m830 21 c0 -30 -14 -51 -40 -59 -22 -6 -59 -16 -81 -23 -37 -10 -41 -4 -35 55 9 102 156 127 156 27z m-1025 -148 c162 -31 414 -78 560 -103 l265 -45 0 -57 c0 -71 25 -71 -431 12 -818 150 -758 135 -765 196 -8 70 -3 70 371 -3z m1025 -12 c0 -50 -59 -90 -131 -90 -44 0 -38 115 6 126 93 24 125 15 125 -36z m-800 -189 c171 -31 375 -68 455 -81 141 -23 145 -25 145 -82 0 -71 34 -72 -426 12 -829 153 -774 138 -774 209 l0 56 145 -28 c80 -16 285 -55 455 -86z m800 30 c0 -53 -50 -91 -119 -91 -62 0 -59 114 4 126 101 19 115 15 115 -35z m-770 -192 c615 -117 570 -103 570 -182 0 -47 -7 -58 -35 -49 -35 10 -1138 232 -1156 232 -5 0 -9 28 -9 62 0 55 6 61 45 51 25 -6 288 -57 585 -114z m767 32 c9 -46 -46 -91 -111 -91 -66 0 -68 113 -1 126 75 15 104 6 112 -35z m-3027 -63 c220 -41 224 -44 184 -152 -18 -47 -42 -112 -54 -143 -30 -83 -80 -36 -80 77 0 116 -62 195 -147 188 -68 -6 -153 30 -153 64 0 11 16 16 35 11 19 -6 116 -26 215 -45z m1855 -49 c102 -23 347 -73 545 -111 457 -89 430 -79 430 -149 0 -72 59 -77 -510 42 -264 55 -527 110 -585 123 -97 20 -105 26 -105 79 0 68 -7 68 225 16z m1171 -56 c5 -34 -9 -50 -64 -73 -95 -40 -95 -40 -88 34 9 96 139 129 152 39z m-3037 -2 c12 -21 21 -64 21 -95 l-1 -56 -69 80 c-37 44 -69 87 -69 95 -2 33 99 13 118 -24z m301 27 c0 -45 -89 -290 -112 -309 -43 -37 -36 17 24 180 43 116 88 182 88 129z m1832 -187 c263 -54 530 -108 593 -121 109 -22 115 -26 115 -81 0 -33 -7 -59 -16 -59 -14 0 -681 136 -1020 209 -81 17 -151 31 -155 31 -5 0 -9 27 -9 60 0 33 3 60 7 60 4 0 222 -44 485 -99z m-902 26 c327 -67 312 -46 211 -301 -338 -853 -446 -1118 -460 -1132 -12 -13 -552 116 -579 138 -7 7 38 128 48 128 3 0 45 -22 93 -50 152 -87 211 -62 345 147 47 73 132 187 189 253 253 296 311 589 140 715 -67 50 -98 35 -294 -148 -148 -137 -198 -167 -174 -102 100 273 162 405 189 405 18 0 149 -24 292 -53z m1810 -23 c-1 -54 -25 -78 -95 -93 -62 -14 -65 -12 -65 47 0 52 10 63 65 78 76 21 95 14 95 -32z m-2290 -4 c7 -11 5 -20 -4 -20 -9 0 -119 -18 -246 -40 -273 -47 -266 -47 -255 -15 14 42 483 111 505 75z m39 -105 c-40 -128 -42 -130 -173 -152 -301 -52 -279 -53 -354 25 -82 84 -91 79 218 130 319 52 326 52 309 -3z m1351 -54 c737 -147 700 -136 700 -203 0 -32 -4 -58 -9 -58 -5 0 -196 40 -425 89 -229 48 -495 104 -591 122 -173 34 -175 35 -175 94 0 52 6 58 45 48 25 -6 230 -48 455 -92z m-3015 -12 c38 -63 47 -93 30 -98 -14 -5 -209 -37 -435 -71 -225 -34 -921 -143 -1545 -241 -1359 -214 -1257 -211 -1759 -60 -476 142 -436 118 -436 262 0 163 3 165 551 231 l461 56 94 -46 c59 -29 143 -49 221 -53 69 -4 169 -26 223 -49 53 -23 163 -52 243 -64 81 -13 144 -25 142 -28 -3 -2 -194 -32 -425 -66 -592 -88 -591 -88 -588 -247 1 -93 8 -85 27 31 18 102 -35 89 1062 252 2222 328 2059 313 2134 191z m2455 36 c-61 -200 -524 -1345 -543 -1345 -30 0 330 959 509 1355 29 64 55 56 34 -10z m1460 -34 c0 -56 -6 -61 -95 -80 -75 -16 -104 96 -30 115 92 24 125 15 125 -35z m-780 -171 c303 -66 557 -120 565 -120 8 0 15 -27 15 -60 0 -77 40 -81 -591 61 -661 148 -609 132 -609 190 0 66 -15 67 620 -71z m-668 -133 c-12 -30 -92 -38 -92 -9 0 10 20 71 45 135 l45 117 6 -108 c4 -59 2 -120 -4 -135z m-920 84 c-47 -72 -140 -85 -208 -28 -90 76 -83 86 76 107 166 22 190 8 132 -79z m2365 62 c9 -48 -11 -65 -92 -82 -62 -14 -65 -11 -65 46 0 84 141 117 157 36z m-3748 -42 c96 -82 184 -57 -689 -200 -1018 -167 -1356 -221 -2010 -322 -330 -51 -606 -97 -615 -102 -8 -5 -15 -300 -15 -656 l0 -646 -89 -23 c-49 -12 -94 -22 -100 -22 -6 0 -11 346 -11 769 l0 768 135 1 c74 0 365 36 645 80 1140 178 2339 368 2480 392 83 14 159 26 170 27 11 1 56 -29 99 -66z m2921 -123 c275 -63 527 -120 560 -127 50 -10 61 -23 66 -78 6 -56 1 -65 -30 -56 -20 6 -180 44 -356 84 -906 207 -810 177 -810 252 0 48 7 58 35 49 19 -6 260 -62 535 -124z m826 -3 c7 -45 -54 -85 -127 -85 -52 0 -37 116 16 126 77 15 105 5 111 -41z m-3451 -36 c78 -27 147 -54 155 -59 33 -20 -29 -194 -85 -241 -103 -87 -192 -56 -282 98 -28 48 -83 116 -122 150 l-71 62 55 12 c30 7 64 16 75 19 56 19 149 5 275 -41z m2179 -21 c72 -12 172 -88 117 -88 -99 0 -387 89 -331 102 33 8 78 10 100 6 22 -4 73 -14 114 -20z m-2556 -53 l75 -65 -55 -128 -56 -128 52 -44 c29 -25 140 -68 258 -100 115 -31 220 -62 236 -70 25 -13 -719 -165 -1768 -360 -242 -45 -767 -145 -1166 -221 -399 -76 -739 -139 -755 -139 -24 0 -29 65 -29 416 l0 417 275 44 c253 41 888 141 1732 273 185 29 482 78 660 109 431 76 449 76 541 -4z m2517 -48 c294 -62 295 -68 25 -115 -110 -19 -223 -39 -250 -44 -96 -17 -129 30 -89 128 18 46 39 84 46 84 7 0 128 -24 268 -53z m1315 5 c0 -55 -29 -83 -107 -103 -80 -20 -73 111 7 133 86 24 100 20 100 -30z m-3141 9 c34 -21 20 -72 -80 -296 l-56 -124 -77 26 c-42 15 -161 48 -266 73 -104 25 -192 48 -195 50 -3 2 14 48 38 101 l43 98 32 -50 c162 -252 363 -201 454 116 8 29 65 32 107 6z m2446 -48 c108 -25 211 -60 230 -79 43 -44 25 -43 -189 7 -306 71 -336 81 -304 100 37 24 36 24 263 -28z m-2345 -1 c0 -22 -146 -385 -161 -401 -54 -56 -13 82 115 384 9 23 46 36 46 17z m-4285 -897 l5 -811 345 -127 345 -128 6 -117 c6 -105 2 -116 -29 -104 -19 8 -157 59 -306 115 -533 199 -1151 442 -1176 462 -24 19 -36 178 -14 199 6 6 151 -42 322 -106 171 -65 319 -113 329 -107 10 7 18 356 18 799 l0 788 75 -26 75 -26 5 -811z m4458 792 c121 -80 223 -199 195 -226 -20 -20 -441 -107 -466 -97 -20 8 122 396 145 396 9 0 65 -33 126 -73z m2037 34 c38 -15 37 -17 -10 -29 -167 -41 -887 -172 -896 -163 -65 65 780 243 906 192z m86 -186 c-6 -47 -1056 -291 -1073 -250 -4 10 7 56 25 102 l32 85 505 100 505 100 6 -46 c4 -26 4 -66 0 -91z m727 5 c343 -77 631 -140 640 -140 9 0 17 -49 17 -110 0 -75 -8 -110 -25 -109 -14 1 -313 71 -665 156 l-640 155 -6 94 c-8 118 -71 122 679 -46z m10 109 c20 -53 -17 -68 -113 -47 -139 30 -158 41 -100 59 91 28 200 21 213 -12z m621 -122 c188 -40 213 -58 121 -83 -74 -21 -477 59 -415 82 111 41 108 41 294 1z m262 -201 l-6 -114 -94 -23 c-109 -28 -113 -23 -101 114 8 89 13 95 82 113 126 34 126 35 119 -90z m-3501 50 c-14 -42 -357 -117 -1645 -357 -253 -47 -1894 -368 -2405 -470 -407 -81 -365 -78 -365 -30 0 49 -23 42 590 159 514 98 1271 244 2730 524 413 79 804 155 870 169 162 33 235 35 225 5z m-49 -137 c-7 -23 4 -57 25 -80 19 -21 32 -42 27 -45 -13 -9 -4368 -874 -4401 -874 -44 0 -17 199 28 209 25 5 140 28 255 49 116 22 782 153 1480 290 2846 559 2603 517 2586 451z m-5045 -836 c163 -54 169 -59 175 -122 5 -48 0 -64 -20 -57 -593 208 -593 208 -355 233 17 2 107 -23 200 -54z m1009 -372 c311 -113 321 -121 198 -147 -94 -20 -708 170 -708 219 0 64 219 33 510 -72z m370 -268 l0 -117 -112 -23 c-142 -28 -147 -25 -134 102 12 126 1 112 108 133 144 29 138 32 138 -95z"/> <path d="M2903 5070 c0 -11 16 -83 37 -160 21 -77 38 -117 38 -90 0 48 -73 291 -75 250z"/> <path d="M3490 6848 c44 -16 113 -56 154 -89 90 -72 130 -79 46 -8 -69 59 -206 129 -250 127 -16 0 6 -14 50 -30z"/> <path d="M3178 6564 c25 -36 94 -102 154 -145 59 -44 108 -91 108 -105 1 -19 4 -19 16 1 11 17 35 19 85 6 72 -19 623 -38 606 -21 -6 5 -142 15 -304 22 -347 14 -452 50 -612 210 -76 74 -88 82 -53 32z"/> <path d="M3190 6166 c-55 -62 -81 -103 -58 -90 37 19 113 108 156 179 26 45 3 24 -98 -89z"/> <path d="M3838 6070 c31 -57 142 -182 141 -159 0 10 -37 60 -82 109 -44 50 -71 72 -59 50z"/> <path d="M4541 5765 c-1 -13 14 -61 32 -107 25 -61 27 -86 9 -96 -16 -11 -9 -27 22 -53 37 -32 40 -33 18 -4 -15 20 -22 42 -15 48 6 7 28 0 48 -15 33 -25 32 -24 -1 15 -20 23 -53 86 -74 140 -21 53 -39 86 -39 72z"/> <path d="M4910 5550 c44 -15 337 -23 300 -9 -22 9 -103 16 -180 16 -77 0 -131 -3 -120 -7z"/> <path d="M4780 5524 c0 -54 219 -224 290 -224 11 0 -20 24 -70 52 -157 89 -213 156 -145 174 22 6 14 10 -20 12 -30 1 -55 -5 -55 -14z"/> <path d="M5325 4445 c41 -4 109 -4 150 0 41 5 8 8 -75 8 -82 0 -116 -3 -75 -8z"/> <path d="M6240 3835 c0 -5 50 -42 110 -82 61 -41 198 -146 305 -235 164 -135 175 -141 65 -39 -158 148 -480 387 -480 356z"/> <path d="M1891 3322 c-10 -17 808 -249 824 -233 16 16 -80 47 -435 143 -181 49 -341 93 -354 98 -14 4 -29 1 -35 -8z"/> </g> </svg>