<?xml version="1.0" standalone="no"?>
<!DOCTYPE svg PUBLIC "-//W3C//DTD SVG 20010904//EN"
 "http://www.w3.org/TR/2001/REC-SVG-20010904/DTD/svg10.dtd">
<svg version="1.0" xmlns="http://www.w3.org/2000/svg"
 width="600.000000pt" height="489.000000pt" viewBox="0 0 600.000000 489.000000"
 preserveAspectRatio="xMidYMid meet">
<g transform="translate(0.000000,489.000000) scale(0.050000,-0.050000)"
fill="#ffffff" stroke="none">
<path d="M5737 8730 c-329 -106 -489 -354 -511 -795 -9 -176 -19 -235 -38
-235 -77 0 -112 -223 -57 -366 7 -18 -240 -24 -1036 -24 -1177 0 -1067 13
-1458 -174 l-254 -122 -48 56 c-55 65 -147 73 -226 21 -26 -17 -58 -31 -71
-31 -13 0 -74 -24 -136 -53 -62 -29 -130 -61 -152 -71 -96 -44 -156 -113 -179
-209 -22 -85 -36 -103 -115 -147 -135 -75 -156 -98 -156 -172 0 -129 76 -169
221 -118 47 17 88 28 91 25 108 -108 148 -371 97 -645 -198 -1087 -209 -1231
-120 -1680 109 -547 264 -603 1107 -403 609 145 879 265 1149 512 155 142 159
142 195 -13 26 -107 206 -481 456 -946 134 -251 172 -444 152 -793 -8 -153 -4
-314 11 -440 l25 -197 -83 -259 c-92 -288 -120 -431 -83 -431 13 0 27 11 31
25 4 14 41 132 81 262 l73 238 83 -11 c46 -6 174 -25 284 -42 592 -92 1281
-92 1880 0 110 17 234 36 275 42 88 13 101 -8 190 -326 46 -162 105 -254 105
-163 0 46 -96 383 -141 495 -39 100 -42 128 -27 310 9 110 14 344 10 520 -7
409 17 520 183 830 251 470 368 714 416 865 58 183 51 181 179 59 219 -209
591 -391 1017 -496 1021 -253 1151 -214 1263 380 87 461 86 490 -69 1381 -86
500 -92 645 -31 788 61 139 80 152 168 110 231 -110 317 157 92 283 -97 54
-114 73 -141 159 -33 103 -177 231 -259 231 -19 0 -46 13 -60 30 -14 16 -62
41 -107 54 -46 13 -101 35 -122 50 -68 44 -164 32 -220 -28 l-50 -55 -246 124
c-363 182 -273 171 -1455 179 -978 7 -1050 10 -1044 42 39 222 28 307 -46 340
-48 22 -50 31 -50 190 0 428 -117 651 -417 799 -157 77 -457 99 -626 45z m552
-91 c408 -153 524 -619 343 -1369 -59 -242 -100 -538 -89 -637 19 -161 -56 -6
-132 271 -56 206 -95 242 -241 220 l-100 -14 -6 -200 c-8 -239 17 -414 97
-679 75 -251 75 -253 -26 -540 l-85 -241 -6 -1047 -5 -1046 63 -134 c138 -292
427 -642 664 -803 89 -60 91 -80 17 -198 -91 -145 -223 -532 -223 -654 0 -64
-52 -71 -546 -70 -572 1 -566 0 -580 119 -18 148 -111 420 -199 583 l-81 149
97 81 c322 268 478 449 619 719 l90 172 0 1034 c0 1122 2 1092 -117 1401 -79
205 -79 231 8 507 56 177 77 285 93 490 29 361 27 367 -129 367 -166 -1 -171
-6 -229 -222 -27 -104 -66 -224 -86 -268 l-37 -80 -2 130 c-3 174 -31 366 -92
624 -127 538 -87 978 107 1183 186 196 525 259 813 152z m535 -1201 c-20 -109
-115 -314 -136 -293 -15 15 72 440 96 470 45 54 66 -40 40 -177z m-1594 162
c19 -31 93 -443 82 -455 -30 -29 -132 250 -132 360 0 106 20 144 50 95z m-22
-425 l51 -65 -1109 -10 -1109 -10 -312 -160 c-304 -156 -312 -159 -341 -120
-61 82 -31 114 235 245 387 191 317 182 1501 184 l1033 1 51 -65z m3808 34
c179 -42 612 -264 620 -319 18 -130 -29 -125 -364 43 l-316 157 -1098 6 c-604
3 -1098 11 -1098 17 0 6 19 37 41 69 l42 58 1019 0 c852 0 1042 -5 1154 -31z
m-6762 -165 c13 -8 33 -70 44 -138 29 -183 50 -213 136 -196 l71 13 -10 -157
c-8 -135 -23 -182 -107 -356 l-98 -199 1 -351 c1 -321 5 -364 54 -521 68 -221
86 -359 57 -441 -30 -86 -20 -90 76 -35 53 31 78 57 71 76 -28 74 440 401 573
401 67 0 -35 -345 -114 -389 -93 -52 -153 -105 -621 -554 -334 -319 -399 -329
-529 -77 -33 64 -48 80 -54 54 -10 -48 86 -206 151 -249 84 -55 261 -43 481
33 102 35 291 86 420 113 129 26 254 54 279 61 27 8 45 4 45 -10 0 -12 -10
-22 -22 -22 -24 0 -489 -195 -914 -383 -432 -191 -482 -170 -575 243 -100 447
-94 583 59 1387 103 534 101 666 -9 925 -70 163 -85 222 -87 335 l-2 136 90
78 c56 48 111 78 144 78 35 1 63 16 77 43 19 36 35 41 101 30 44 -7 78 -4 78
6 0 55 86 97 134 66z m7612 -31 c34 -37 59 -46 108 -38 49 7 69 0 89 -33 16
-25 47 -42 79 -42 28 0 68 -18 88 -39 19 -22 51 -45 70 -51 110 -35 104 -298
-13 -540 -99 -205 -103 -422 -18 -850 164 -828 174 -1007 76 -1432 -103 -449
-135 -464 -560 -276 -139 61 -295 128 -348 149 -53 21 -195 83 -316 138 -121
56 -234 101 -250 101 -17 0 -31 10 -31 22 0 14 17 17 45 9 25 -8 147 -35 271
-61 124 -26 309 -74 410 -107 384 -125 583 -68 625 177 l12 70 -50 -80 c-171
-278 -172 -277 -713 238 -181 173 -368 338 -415 365 -47 28 -85 52 -85 54 0 2
-23 69 -50 150 -87 257 -82 260 203 119 159 -79 456 -336 357 -310 -22 6 -58
16 -80 22 -22 6 -104 20 -182 31 -78 11 -157 26 -175 33 -18 7 -33 3 -33 -8 0
-28 32 -37 254 -74 140 -23 223 -49 291 -90 92 -57 130 -56 94 1 -32 50 -21
256 23 426 134 525 125 894 -27 1150 -145 244 -165 579 -28 465 44 -36 91 38
116 180 32 188 77 223 163 131z m-1046 8 c145 -17 203 -36 392 -129 l221 -110
-1 -166 c-2 -177 24 -266 119 -418 127 -201 139 -521 39 -1005 -51 -248 -64
-347 -49 -375 35 -66 -12 -41 -66 34 -28 40 -103 111 -167 159 -104 77 -178
115 -432 216 -59 24 -86 54 -134 149 -224 443 -710 710 -1230 676 -108 -7
-207 -4 -220 5 -12 10 -103 52 -202 94 -197 84 -358 178 -420 248 -47 53 -70
466 -32 566 l21 54 355 6 c892 15 1650 13 1806 -4z m-3445 -56 c23 -85 15
-426 -12 -508 -32 -93 -112 -149 -425 -291 l-248 -113 -280 -3 c-511 -5 -901
-234 -1140 -669 l-80 -145 -177 -66 c-191 -71 -359 -176 -453 -283 -71 -81
-80 -83 -80 -12 0 31 -17 119 -39 195 -145 528 -134 794 51 1210 67 149 76
189 77 329 l1 159 157 88 c306 172 219 162 1498 163 l1134 1 16 -55z m-3803
-475 c27 -110 -109 -208 -177 -127 -41 49 -27 83 57 138 77 51 105 49 120 -11z
m8965 21 c120 -62 135 -171 24 -171 -87 0 -140 57 -127 135 12 73 24 77 103
36z m-5957 -531 c0 -11 -10 -20 -23 -20 -35 0 -198 -140 -221 -190 -40 -88 23
-153 401 -408 438 -296 426 -279 445 -612 9 -143 29 -309 46 -370 40 -140 30
-168 -78 -220 -139 -67 -293 35 -530 351 -143 191 -215 265 -148 151 128 -217
424 -542 493 -542 31 0 0 -27 -41 -34 -288 -56 -617 15 -786 171 l-102 93 36
230 c42 274 19 237 167 271 166 39 268 94 395 214 141 134 136 160 -9 42 -237
-194 -429 -241 -790 -195 -280 36 -444 27 -596 -31 -118 -44 -132 -43 -101 12
12 20 49 107 82 193 193 499 497 782 939 875 189 40 421 50 421 19z m3350 -31
c394 -105 704 -427 871 -906 69 -198 69 -223 -4 -176 -100 63 -270 80 -539 53
-451 -46 -667 0 -869 184 -138 127 -170 109 -40 -23 120 -122 255 -196 416
-229 l125 -25 25 -139 c54 -300 55 -357 2 -407 -157 -150 -335 -208 -630 -207
-255 1 -297 14 -214 66 120 73 357 351 477 558 43 74 -40 -14 -144 -154 -246
-329 -417 -452 -541 -390 -111 55 -118 81 -79 270 19 91 34 244 34 340 0 289
6 297 454 599 355 239 415 297 396 376 -16 64 -118 171 -193 202 -169 70 195
76 453 8z m-3706 -1826 c226 -139 741 -130 991 17 37 22 71 40 76 40 5 0 46
-74 91 -165 78 -155 122 -235 346 -625 51 -87 92 -182 92 -210 0 -112 -290
-469 -561 -691 -165 -135 -161 -112 -49 -338 87 -176 213 -595 186 -622 -16
-15 -570 67 -617 92 -26 13 -37 63 -48 223 -21 280 -25 917 -5 889 9 -13 44
-77 78 -143 114 -222 256 -408 256 -335 0 8 -35 66 -77 128 -42 63 -156 270
-253 460 -97 191 -242 466 -323 611 -80 145 -183 357 -228 470 -44 113 -89
225 -99 249 -24 59 -1 75 42 30 19 -21 65 -56 102 -80z m3636 -122 c-53 -131
-130 -300 -170 -375 -41 -75 -195 -368 -343 -652 -147 -284 -299 -563 -337
-620 -72 -106 -83 -134 -53 -134 25 0 184 244 264 405 38 74 76 135 85 135 9
0 9 -11 1 -25 -9 -14 -18 -209 -21 -435 -10 -754 17 -680 -266 -727 -367 -60
-446 -64 -433 -21 7 21 40 133 74 248 34 116 102 285 151 376 91 168 92 191
20 243 -234 168 -490 448 -594 650 l-63 121 65 130 c58 117 385 704 453 814
l27 44 95 -47 c340 -168 945 -130 1069 67 76 122 63 18 -24 -197z"/>
<path d="M5980 2410 c0 -540 7 -830 20 -830 13 0 20 290 20 830 0 540 -7 830
-20 830 -13 0 -20 -290 -20 -830z"/>
<path d="M2753 4789 c-153 -26 -190 -39 -170 -58 13 -13 379 49 417 71 43 24
-56 19 -247 -13z"/>
</g>
</svg>
