<?xml version="1.0" standalone="no"?> <!DOCTYPE svg PUBLIC "-//W3C//DTD SVG 20010904//EN" "http://www.w3.org/TR/2001/REC-SVG-20010904/DTD/svg10.dtd"> <svg version="1.0" xmlns="http://www.w3.org/2000/svg" width="600.000000pt" height="489.000000pt" viewBox="0 0 600.000000 489.000000" preserveAspectRatio="xMidYMid meet"> <g transform="translate(0.000000,489.000000) scale(0.100000,-0.100000)" fill="#ffffff" stroke="none"> <path d="M4491 4606 c-50 -18 -108 -72 -135 -124 -18 -36 -56 -177 -56 -208 0 -2 -18 -16 -41 -31 -35 -23 -55 -28 -152 -34 -137 -9 -371 -67 -437 -107 -74 -45 -150 -147 -231 -309 -116 -230 -170 -274 -368 -292 -93 -9 -127 -17 -180 -41 -140 -66 -231 -167 -272 -302 -20 -64 -26 -72 -93 -127 -146 -120 -227 -223 -320 -408 -55 -112 -96 -155 -162 -173 -141 -39 -291 -124 -364 -207 -22 -25 -61 -87 -85 -137 -25 -50 -59 -106 -75 -125 l-28 -33 -134 52 c-194 77 -250 77 -322 1 -35 -36 -57 -115 -47 -162 16 -72 37 -96 116 -134 41 -19 79 -35 86 -35 28 0 -4 -29 -76 -67 -85 -44 -134 -89 -137 -126 0 -12 -2 -26 -3 -32 -2 -5 -3 -13 -4 -18 0 -4 -28 6 -61 23 -33 16 -68 30 -78 30 -22 0 -42 -19 -42 -40 0 -9 99 -127 220 -261 l220 -244 0 -48 0 -47 -114 60 -113 60 -73 -15 c-40 -8 -76 -18 -81 -21 -11 -6 -12 -135 -1 -149 7 -11 266 -159 702 -403 l216 -120 64 14 c36 8 75 17 88 19 22 5 23 9 20 98 l-3 92 -65 34 c-36 18 -85 45 -110 59 -44 25 -44 26 -20 33 58 16 93 9 176 -36 45 -25 85 -45 88 -45 3 0 13 14 21 30 15 30 15 32 -11 63 l-26 31 23 8 c28 8 322 65 894 172 220 41 607 115 861 164 l460 90 265 -93 265 -94 70 16 c38 9 72 21 76 27 10 15 10 128 0 143 -5 7 -253 94 -552 194 l-543 180 -71 -12 c-39 -6 -77 -16 -83 -21 -8 -6 -13 -34 -13 -68 0 -65 4 -69 75 -95 50 -18 78 -35 59 -35 -6 0 -118 -20 -250 -44 -131 -24 -242 -42 -246 -40 -4 3 -70 94 -145 202 -76 108 -190 269 -253 357 -64 88 -119 166 -123 172 -7 11 211 273 234 281 5 2 43 -8 84 -22 89 -31 114 -32 146 -7 13 10 95 102 183 203 l158 185 134 18 c73 9 146 15 161 12 29 -6 270 25 336 43 34 10 37 13 37 49 0 24 -7 44 -19 55 -18 16 -28 16 -177 -5 -88 -11 -172 -27 -189 -34 -30 -13 -176 -37 -183 -30 -2 2 12 21 31 42 29 30 38 36 48 26 25 -24 65 -15 98 22 36 41 38 64 12 120 -26 56 -60 84 -127 104 -32 9 -59 21 -61 27 -6 17 160 103 238 123 109 28 179 57 247 100 l60 39 4 -86 c5 -98 27 -152 78 -196 42 -35 74 -33 159 10 98 49 170 117 216 206 55 106 71 126 129 159 64 35 79 61 80 136 1 72 -33 150 -69 159 -13 3 -28 3 -33 0 -5 -3 -21 0 -35 7 -24 11 -26 15 -19 52 12 67 5 139 -18 193 l-22 51 40 46 c50 57 124 199 147 283 42 150 -14 285 -147 351 -51 26 -73 31 -127 30 -36 0 -81 -6 -100 -13z m215 -34 c40 -20 102 -81 123 -121 24 -45 30 -116 16 -187 -18 -85 -91 -234 -144 -294 l-40 -45 -94 100 -94 100 5 61 c4 56 2 63 -19 78 -35 24 -45 20 -76 -26 -41 -60 -66 -75 -183 -106 -129 -35 -206 -73 -301 -150 -74 -60 -84 -70 -171 -173 -54 -64 -60 -79 -20 -51 45 32 161 87 262 125 52 20 125 56 162 80 37 25 83 51 104 57 45 15 147 9 254 -15 69 -16 79 -22 131 -74 67 -68 84 -118 77 -220 -4 -55 -13 -83 -43 -138 -20 -37 -41 -72 -45 -77 -5 -4 -18 10 -29 31 -11 22 -44 69 -74 104 -73 85 -98 138 -107 223 l-7 71 -2 -56 c-2 -89 21 -145 95 -234 99 -119 103 -130 94 -255 -5 -58 -15 -127 -24 -155 -19 -59 -18 -55 -7 -55 11 0 51 136 51 173 0 65 50 193 91 231 32 31 51 27 30 -5 -7 -12 -9 -24 -5 -27 4 -4 9 -1 11 6 7 18 59 43 77 36 9 -3 16 -13 16 -22 0 -8 7 -24 17 -34 11 -13 16 -36 16 -79 -1 -70 -12 -86 -89 -128 -43 -23 -54 -37 -101 -126 -62 -117 -116 -173 -220 -228 -82 -43 -111 -46 -140 -14 -66 72 -75 117 -62 308 13 198 33 271 127 462 2 5 -5 3 -16 -4 -42 -26 -152 25 -252 118 l-61 56 -119 -47 c-65 -27 -144 -63 -177 -81 -48 -26 -58 -37 -60 -61 -6 -68 -26 -184 -43 -254 -11 -41 -18 -75 -16 -77 1 -1 27 7 57 18 40 16 92 23 204 29 164 9 230 25 314 73 l54 30 -7 -29 c-3 -16 -11 -57 -18 -92 -11 -60 -13 -64 -52 -84 -23 -11 -60 -34 -84 -50 -24 -17 -73 -43 -110 -60 -38 -17 -92 -53 -124 -83 -48 -45 -153 -115 -171 -115 -3 0 -5 30 -4 68 0 37 -7 92 -16 123 -22 74 -92 168 -150 202 -49 29 -150 57 -208 57 -40 0 -99 18 -99 29 0 4 10 12 23 18 12 6 62 40 110 77 49 36 131 87 182 112 l92 46 26 97 c14 53 29 104 33 115 6 15 4 17 -14 12 -27 -9 -72 3 -72 19 0 21 82 97 125 116 23 10 61 21 85 25 l45 7 -56 -54 c-66 -63 -90 -106 -125 -228 -36 -126 -29 -140 28 -60 61 86 209 225 289 272 68 40 159 76 252 102 85 23 180 125 117 125 -24 0 -24 6 -4 90 26 111 74 172 162 206 50 19 147 12 198 -14z m-1501 -1120 c-6 -5 -26 -15 -45 -22 -55 -21 -142 -76 -177 -112 -51 -53 -77 -121 -77 -207 0 -69 1 -75 29 -98 80 -66 106 -98 117 -140 6 -24 13 -43 17 -41 155 73 235 137 270 217 42 98 47 253 11 321 -6 11 -7 20 -1 20 5 0 16 -18 25 -40 20 -51 21 -176 2 -250 -8 -30 -13 -57 -11 -59 9 -8 76 43 105 79 43 54 62 118 58 190 -1 33 0 60 4 60 12 0 78 -83 98 -125 27 -56 41 -139 34 -197 -6 -41 -15 -56 -64 -107 -31 -32 -79 -70 -106 -84 -69 -35 -101 -68 -114 -118 -18 -72 -39 -123 -71 -174 -38 -59 -48 -54 -14 7 31 55 78 191 65 186 -5 -2 -62 -52 -127 -113 -64 -60 -167 -150 -227 -198 -133 -107 -296 -255 -296 -269 0 -7 16 -9 45 -5 25 4 45 3 45 -2 0 -5 -28 -35 -63 -67 -45 -43 -82 -67 -132 -87 -39 -15 -105 -54 -150 -88 -183 -140 -387 -290 -390 -287 -2 2 -10 19 -18 39 -17 41 -64 80 -120 100 -27 9 -37 18 -33 29 73 220 97 264 181 335 70 59 145 102 249 141 145 54 251 141 315 259 41 76 120 189 128 181 2 -2 -16 -35 -40 -72 -57 -88 -102 -179 -112 -224 -4 -19 -25 -88 -47 -154 -22 -65 -37 -121 -34 -124 14 -13 181 116 263 203 149 158 247 337 247 450 -1 76 -18 109 -89 170 l-56 48 -31 -29 c-144 -136 -204 -216 -298 -397 -87 -170 -132 -242 -158 -256 -11 -6 -64 -26 -117 -46 -166 -60 -283 -153 -343 -272 -31 -59 -52 -83 -131 -143 l-44 -34 -76 27 c-42 15 -92 27 -112 27 -23 0 -42 7 -54 20 -17 19 -17 21 22 77 22 32 54 89 71 126 59 128 210 241 399 296 l72 21 36 -20 c42 -24 52 -25 36 -6 -7 8 -23 17 -36 20 -28 7 -40 -11 111 155 28 31 72 85 99 120 61 80 162 189 189 203 12 6 -11 -23 -50 -64 -132 -139 -179 -213 -234 -369 -22 -63 -49 -127 -61 -142 -11 -15 -19 -32 -17 -36 3 -9 160 27 210 47 14 6 38 26 52 44 29 39 107 178 99 178 -3 0 -31 -22 -62 -49 -72 -62 -160 -125 -167 -119 -2 3 21 25 53 48 100 75 211 190 249 257 44 80 134 192 213 266 33 32 61 62 61 66 0 17 -105 53 -172 58 -44 4 -64 9 -56 15 18 12 114 -1 173 -23 28 -11 50 -19 51 -19 1 0 4 29 7 64 11 122 73 210 188 271 83 43 161 71 134 47z m1015 -171 c0 -48 -118 -119 -284 -170 -38 -12 -71 -20 -73 -17 -6 6 88 86 102 86 15 0 101 45 179 93 33 20 63 37 68 37 4 0 8 -13 8 -29z m-537 -362 l38 -10 -45 -40 c-25 -22 -82 -83 -128 -137 -97 -114 -275 -319 -360 -414 -56 -65 -61 -68 -104 -68 -52 0 -55 9 -14 33 51 30 200 178 275 272 40 50 107 144 149 210 114 175 114 175 189 154z m111 -54 c40 -40 58 -90 43 -120 -26 -53 -62 -70 -87 -40 -7 8 -16 15 -20 15 -8 0 -99 -102 -364 -407 -151 -175 -160 -183 -194 -183 -36 0 -218 55 -236 71 -20 18 63 38 132 32 l68 -6 66 74 c36 41 154 176 261 300 179 207 268 299 288 299 5 0 24 -16 43 -35z m404 -197 c20 -20 14 -57 -10 -68 -25 -10 -236 -40 -280 -40 -28 0 -30 3 -32 58 -1 15 20 20 149 38 83 12 152 22 156 23 3 0 10 -4 17 -11z m-341 -73 c3 -9 3 -19 -1 -22 -7 -7 -259 -44 -264 -38 -2 1 7 14 20 28 18 21 37 28 93 35 111 15 145 14 152 -3z m-901 -428 c9 -9 -30 -55 -691 -812 -154 -176 -305 -350 -335 -387 -30 -37 -60 -67 -67 -67 -13 -1 -63 77 -63 98 0 6 87 109 193 229 245 275 462 521 554 629 40 46 123 138 185 204 l113 120 52 -4 c29 -2 56 -6 59 -10z m-1653 -169 c107 -38 142 -58 102 -58 -28 0 -93 -70 -109 -117 -19 -56 -20 -95 -2 -145 8 -21 12 -38 11 -38 -14 0 -232 104 -248 117 -42 38 -59 120 -36 180 21 56 82 101 139 103 14 0 78 -18 143 -42z m1347 7 c0 -5 -380 -440 -680 -777 -106 -120 -177 -192 -181 -185 -3 7 -9 29 -12 49 -5 36 -1 42 161 230 494 572 512 591 634 658 50 28 78 37 78 25z m-1133 -98 c20 -20 -41 -63 -94 -66 -7 -1 -22 -10 -33 -21 -24 -24 -27 -94 -7 -125 7 -11 19 -39 25 -61 7 -23 19 -47 27 -54 10 -8 15 -30 15 -61 0 -42 -4 -50 -30 -69 -27 -19 -31 -20 -36 -5 -4 9 -4 50 -2 91 5 72 4 75 -19 80 -45 12 -74 107 -54 181 14 51 54 101 96 119 34 16 92 11 112 -9z m374 -41 c-20 -47 -34 -53 -75 -37 -16 6 -11 13 34 49 29 23 55 40 57 38 3 -2 -4 -25 -16 -50z m-124 -42 c115 -46 145 -64 107 -64 -33 0 -85 -43 -114 -94 -32 -55 -40 -129 -20 -182 6 -15 9 -29 7 -31 -10 -9 -279 121 -296 144 -42 53 -35 153 16 214 71 84 118 86 300 13z m1190 -280 c117 -164 246 -345 287 -400 l74 -102 44 9 c23 4 122 22 218 39 177 31 575 107 618 117 22 5 23 4 20 -53 l-3 -59 -180 -33 c-99 -18 -434 -82 -745 -142 -311 -60 -677 -130 -815 -155 -137 -25 -308 -57 -380 -71 l-129 -26 -33 36 c-27 30 -32 40 -23 55 11 22 -24 14 520 117 223 41 474 88 558 104 185 35 195 38 188 56 -3 8 -117 170 -254 362 -136 191 -252 353 -256 360 -9 15 51 95 68 89 6 -2 107 -138 223 -303z m-1541 222 c-18 -45 -22 -51 -29 -34 -12 34 11 88 38 88 9 0 6 -15 -9 -54z m863 -13 c-8 -10 -52 -60 -99 -113 -47 -53 -97 -110 -112 -128 -30 -36 -44 -42 -28 -13 5 11 15 42 21 69 10 48 13 52 116 126 58 42 108 76 111 76 2 0 -2 -8 -9 -17z m-287 -29 c62 -56 63 -188 0 -257 -44 -49 -124 -69 -177 -45 -79 36 -86 197 -12 277 48 52 144 65 189 25z m779 -146 c67 -95 178 -251 247 -346 68 -95 122 -175 119 -178 -3 -3 -22 3 -43 13 -31 15 -77 73 -261 330 -203 283 -222 314 -211 333 7 11 16 20 20 20 4 0 62 -78 129 -172z m29 -174 c113 -157 209 -292 215 -299 5 -8 7 -16 4 -20 -3 -3 -73 -17 -155 -31 -82 -14 -331 -58 -554 -99 -223 -40 -407 -71 -409 -69 -8 7 33 56 329 394 167 190 315 360 329 377 14 18 28 33 31 33 3 0 98 -129 210 -286z m-1480 206 l40 -20 0 -89 c0 -70 -3 -91 -17 -102 -24 -21 -44 -76 -37 -104 3 -14 4 -25 1 -25 -2 0 -38 15 -79 34 -64 29 -79 41 -107 85 -32 49 -76 94 -103 104 -22 8 22 44 123 101 101 56 100 56 179 16z m189 -111 c-34 -26 -39 -24 -39 16 l0 36 32 -17 31 -16 -24 -19z m162 -40 c52 -22 98 -44 103 -49 5 -5 3 -27 -7 -52 -25 -67 -30 -139 -17 -235 17 -120 41 -180 100 -247 51 -59 56 -71 41 -95 -10 -16 -25 -1 -231 234 -67 77 -137 148 -156 158 -19 9 -34 24 -34 31 0 20 -76 111 -111 134 l-31 19 33 24 c65 47 184 117 200 118 8 1 58 -17 110 -40z m-619 -8 c18 -16 41 -43 52 -61 l18 -32 -23 7 c-13 4 -41 16 -61 26 -33 17 -38 24 -38 54 0 43 10 44 52 6z m-21 -80 c107 -49 259 -120 339 -158 l146 -70 194 -219 c257 -289 300 -339 300 -353 0 -22 -24 -10 -59 31 -20 23 -115 130 -211 238 -96 108 -190 213 -208 234 -27 31 -81 61 -285 158 -139 66 -277 130 -308 144 -78 32 -130 64 -123 75 3 5 9 9 13 9 4 0 95 -40 202 -89z m952 45 c-4 -7 -53 -65 -108 -129 l-100 -115 -3 62 c-2 42 3 79 15 112 l19 49 54 -3 c41 -2 64 2 90 17 43 24 43 24 33 7z m2344 -161 c282 -94 513 -173 513 -177 0 -4 -21 -10 -47 -14 -43 -6 -73 1 -308 79 l-260 87 -423 -80 c-233 -44 -436 -80 -452 -80 -32 0 -61 27 -41 39 6 4 58 16 114 25 191 34 632 116 646 121 30 11 -15 34 -181 90 -93 32 -168 61 -168 66 0 7 59 17 85 15 6 -1 241 -78 522 -171z m-478 85 c95 -33 175 -60 178 -60 2 0 2 -4 -1 -9 -3 -4 -46 -14 -96 -21 -89 -13 -91 -13 -175 16 l-85 29 0 52 c0 29 1 53 3 53 1 0 80 -27 176 -60z m-2853 -11 c71 -34 210 -99 309 -145 113 -53 189 -95 205 -113 14 -15 113 -126 220 -247 108 -120 200 -225 204 -233 5 -7 -67 26 -160 74 -146 75 -177 95 -227 148 -32 34 -65 76 -73 94 -22 51 -124 154 -173 175 -62 26 -71 20 -71 -48 0 -70 11 -79 -185 141 -83 94 -159 176 -168 184 -15 12 -23 31 -13 31 2 0 62 -28 132 -61z m387 -33 c35 -34 82 -96 74 -96 -3 0 -30 12 -61 26 -57 26 -76 47 -76 83 0 31 25 26 63 -13z m3355 -316 c3 -57 1 -62 -15 -55 -10 4 -121 44 -248 89 l-230 81 -3 56 -3 56 248 -82 248 -82 3 -63z m-3408 -117 c0 -197 -2 -204 -51 -164 -22 18 -23 24 -25 192 -2 95 -1 176 2 180 3 5 20 1 39 -8 l35 -17 0 -183z m1765 185 c14 -6 25 -14 25 -17 0 -4 -260 -55 -577 -114 -318 -60 -586 -111 -595 -113 -11 -3 -22 5 -32 24 l-15 30 97 17 c53 10 300 55 547 100 248 46 467 84 487 84 20 1 49 -4 63 -11z m1785 -46 l0 -59 -51 -11 c-28 -7 -55 -12 -60 -12 -5 0 -9 27 -9 59 l0 59 38 10 c78 21 82 19 82 -46z m-3430 -187 l0 -111 -37 -13 c-21 -8 -44 -16 -50 -18 -10 -4 -13 35 -13 173 l0 178 50 -49 50 -49 0 -111z m-329 58 l109 -58 0 -42 c0 -24 -2 -43 -5 -43 -26 0 -340 179 -324 184 75 25 105 19 220 -41z m175 -206 c219 -119 411 -223 427 -231 25 -14 27 -19 27 -81 0 -37 -4 -65 -8 -63 -5 2 -150 82 -323 180 -173 97 -366 205 -429 241 l-115 64 -3 58 c-2 46 0 56 11 52 7 -3 193 -102 413 -220z m209 155 c-6 -7 -35 18 -35 31 0 5 9 2 20 -8 11 -10 18 -20 15 -23z m11 -22 c8 0 24 -11 36 -25 12 -14 70 -51 128 -82 l105 -57 -57 -13 -58 -13 -95 51 c-52 28 -95 54 -96 57 0 4 -3 27 -6 51 -5 38 -3 43 12 37 9 -3 23 -6 31 -6z m169 -219 c104 -54 191 -103 193 -109 3 -9 -70 -32 -104 -32 -19 0 -403 201 -404 212 0 11 84 37 105 33 11 -3 105 -49 210 -104z m235 -200 l0 -69 -69 -16 c-39 -9 -72 -16 -75 -16 -4 0 -6 31 -6 70 l0 69 38 10 c118 30 112 33 112 -48z"/> <path d="M4100 3860 c0 -4 14 -13 30 -20 37 -15 188 -9 216 10 17 10 16 11 -6 5 -14 -3 -59 -9 -101 -12 -59 -4 -84 -2 -108 10 -17 8 -31 12 -31 7z"/> <path d="M3565 3636 c-38 -39 -99 -88 -135 -109 -35 -20 -58 -37 -51 -37 41 0 195 115 242 181 36 50 17 39 -56 -35z"/> <path d="M4385 3478 c-5 -36 -18 -67 -40 -98 -18 -25 -40 -70 -50 -100 -18 -62 -33 -250 -19 -250 5 0 10 38 11 84 2 102 23 192 59 246 15 22 29 40 31 40 2 0 16 -25 30 -56 24 -54 25 -63 20 -178 -4 -91 -3 -110 4 -76 6 25 11 83 12 130 2 76 -1 91 -26 138 -25 47 -27 60 -21 113 8 73 -1 79 -11 7z"/> <path d="M2490 2300 c29 -23 48 -26 31 -6 -6 8 -22 16 -34 20 -21 5 -21 4 3 -14z"/> <path d="M1690 2153 c0 -5 -7 -29 -15 -55 -8 -27 -10 -48 -5 -48 6 0 10 9 10 20 0 11 7 36 14 55 8 19 11 35 5 35 -5 0 -9 -3 -9 -7z"/> <path d="M2409 2074 c-50 -52 -146 -119 -225 -156 -52 -24 -83 -32 -126 -33 -31 0 -54 -4 -51 -9 3 -5 33 -6 66 -3 l61 5 -63 -55 c-34 -30 -60 -58 -57 -61 3 -2 31 19 62 48 32 28 114 89 183 135 117 77 201 148 190 160 -3 2 -21 -11 -40 -31z"/> <path d="M1661 2032 c-1 -17 18 -55 33 -64 15 -10 124 -8 156 2 15 5 -1 6 -42 3 -89 -7 -115 0 -132 40 -8 17 -15 26 -15 19z"/> <path d="M1851 1634 c-29 -37 -27 -89 4 -119 32 -33 60 -31 96 4 33 34 39 83 13 119 -23 33 -86 31 -113 -4z m87 0 c41 -28 25 -106 -24 -118 -60 -16 -90 72 -38 113 32 25 33 25 62 5z"/> </g> </svg>