<?xml version="1.0" standalone="no"?> <!DOCTYPE svg PUBLIC "-//W3C//DTD SVG 20010904//EN" "http://www.w3.org/TR/2001/REC-SVG-20010904/DTD/svg10.dtd"> <svg version="1.0" xmlns="http://www.w3.org/2000/svg" width="600.000000pt" height="489.000000pt" viewBox="0 0 600.000000 489.000000" preserveAspectRatio="xMidYMid meet"> <g transform="translate(0.000000,489.000000) scale(0.050000,-0.050000)" fill="#ffffff" stroke="none"> <path d="M6968 9243 c8 -102 19 -212 25 -243 11 -56 9 -57 -102 -71 -146 -18 -148 -15 -175 223 -12 109 -29 212 -38 228 -24 43 -23 -23 4 -253 13 -104 18 -193 13 -199 -8 -8 -1319 -108 -1417 -108 -20 0 -41 30 -55 78 -13 42 -37 88 -53 102 -23 19 -30 71 -30 214 0 129 -7 184 -21 175 -14 -8 -20 -74 -15 -175 5 -142 2 -164 -29 -170 -31 -6 -35 12 -35 175 0 107 -8 181 -20 181 -12 0 -20 -71 -20 -172 0 -163 -3 -176 -60 -241 -38 -43 -60 -90 -60 -127 0 -75 22 -71 -580 -110 -1280 -84 -1269 -82 -1506 -245 -135 -92 -136 -92 -193 -59 -129 76 -543 -227 -492 -360 7 -20 -26 -65 -99 -131 -124 -113 -129 -130 -64 -192 60 -55 85 -54 166 7 86 66 90 65 151 -45 57 -104 114 -338 176 -725 59 -371 108 -502 361 -950 43 -77 99 -215 123 -307 59 -223 160 -387 319 -518 261 -213 292 -250 318 -378 76 -367 135 -507 331 -789 58 -83 178 -292 267 -465 88 -172 174 -333 189 -358 19 -30 33 -139 42 -328 l14 -283 -62 -145 c-143 -335 -150 -638 -22 -886 34 -66 59 -121 56 -123 -3 -2 -108 -29 -235 -60 -253 -61 -329 -92 -348 -141 -26 -68 -13 -325 18 -356 41 -41 46 -42 850 -189 l190 -34 6 -175 c7 -227 44 -229 44 -3 0 169 1 172 45 161 25 -7 79 -13 120 -13 l75 0 0 -149 c0 -82 9 -154 20 -161 13 -8 20 45 20 146 l0 157 110 31 c76 21 110 24 111 8 1 -12 1 -87 -1 -167 -4 -224 29 -222 40 3 l10 198 600 202 c583 196 601 204 630 267 19 41 49 70 80 77 28 6 158 45 290 87 283 90 262 95 210 -58 -87 -258 -93 -412 -30 -702 30 -143 63 -259 73 -259 22 0 24 -15 -36 265 -59 275 -51 450 31 684 61 172 84 198 241 259 79 31 140 60 136 64 -13 13 -164 -36 -345 -113 -191 -80 -502 -181 -516 -166 -5 4 21 64 57 133 161 302 195 679 83 921 -30 65 -54 122 -54 128 0 83 841 -148 1064 -292 195 -125 192 -742 -5 -1552 -57 -233 -74 -352 -45 -323 14 14 73 256 145 603 57 270 110 997 80 1102 -27 97 -114 193 -225 250 l-79 40 70 58 c169 139 202 512 62 679 -51 60 -107 390 -73 421 9 8 127 1 263 -15 136 -15 411 -44 610 -62 l363 -34 10 -1530 10 -1530 10 1530 10 1530 110 35 c61 20 126 40 145 47 33 10 35 -73 35 -1549 0 -1019 7 -1565 20 -1573 13 -8 20 1503 20 4519 0 3007 -7 4531 -20 4531 -13 0 -20 -983 -20 -2910 l0 -2910 -115 12 c-63 7 -146 19 -185 26 l-70 14 -5 2884 c-4 2096 -11 2884 -27 2884 -17 0 -20 -786 -12 -2910 7 -1886 4 -2914 -9 -2922 -10 -6 -39 -7 -63 -1 l-44 11 7 2911 c4 2069 0 2911 -15 2911 -16 0 -22 -837 -22 -2880 l0 -2880 -105 11 c-58 6 -199 22 -315 35 l-210 24 -5 2255 c-4 1943 -1 2255 23 2255 16 0 98 -37 182 -83 171 -92 236 -88 262 15 20 78 -4 104 -188 203 -138 75 -164 97 -164 139 0 30 -23 70 -60 102 l-60 53 0 375 c0 237 -7 376 -20 376 -13 0 -20 -129 -20 -347 0 -365 -3 -383 -63 -352 -34 19 -37 49 -37 360 0 213 -7 339 -20 339 -12 0 -20 -117 -20 -311 0 -343 -6 -358 -125 -313 -59 22 -107 11 -178 -40 -27 -19 -50 -16 -115 13 l-82 37 0 307 c0 191 -8 307 -20 307 -12 0 -20 -110 -20 -290 0 -176 -8 -290 -20 -290 -10 0 -70 25 -132 55 l-112 55 8 233 8 234 -48 9 c-47 9 -48 6 -37 -83 7 -51 18 -159 26 -239 l13 -146 -108 6 -108 6 -21 225 c-27 273 -60 329 -41 68z m-1809 -296 c86 -110 50 -147 -143 -147 l-120 0 13 55 c20 82 81 138 118 108 22 -19 31 -18 40 6 17 45 45 38 92 -22z m2327 -161 c224 -108 236 -117 224 -165 -26 -103 -41 -103 -249 11 -243 131 -276 137 -651 110 -738 -54 -2336 -164 -2920 -202 -858 -55 -787 -40 -1046 -216 -161 -109 -169 -112 -196 -75 -47 64 -34 84 131 200 274 193 137 172 1901 293 655 44 1415 97 1690 117 275 20 586 37 690 39 l190 2 236 -114z m442 -83 c-1 -50 17 -55 52 -13 29 35 111 40 131 8 7 -12 3 -32 -9 -44 -41 -41 -23 -55 28 -22 73 48 123 7 77 -64 -37 -56 -17 -63 37 -14 72 65 118 -15 63 -110 -24 -41 -54 -115 -67 -165 -28 -106 -93 -223 -185 -334 -73 -86 -74 -91 -207 -725 -83 -400 -128 -539 -221 -693 -39 -64 -94 -162 -122 -217 -28 -55 -96 -150 -153 -211 -56 -61 -151 -201 -210 -310 -225 -411 -354 -543 -682 -695 -178 -83 -240 -127 -207 -149 16 -11 14 -59 -8 -182 -69 -380 -522 -652 -923 -555 -80 20 -147 32 -150 29 -19 -27 -235 -409 -281 -498 -88 -171 4 -338 395 -714 220 -211 220 -211 251 -108 13 43 97 189 188 325 91 136 192 304 225 373 82 171 98 159 80 -60 -19 -222 -19 -395 0 -670 16 -231 12 -243 -117 -309 -484 -247 -1473 -207 -1473 60 0 43 -6 160 -13 261 -18 257 48 235 122 -42 16 -58 29 -89 30 -69 0 20 -9 75 -21 123 -19 76 -15 106 28 234 160 469 171 409 -145 783 l-249 294 -107 0 c-259 0 -423 199 -475 578 -14 100 -12 107 23 93 225 -94 349 -33 271 134 -22 47 -47 114 -54 150 -10 51 -32 75 -97 108 -118 60 -224 148 -272 225 -63 103 -47 111 35 18 146 -165 364 -260 364 -158 0 13 29 58 63 100 58 70 62 82 41 138 -29 77 -12 97 32 40 19 -24 59 -53 89 -64 74 -28 69 -45 -31 -92 -205 -97 -226 -293 -58 -537 l94 -138 10 -214 c12 -265 -28 -200 546 -880 77 -91 78 -83 12 199 -56 240 -118 726 -118 924 0 52 -22 165 -50 250 -64 201 -63 240 12 411 108 245 107 569 0 545 -124 -27 -325 336 -338 613 -32 660 874 907 1137 309 79 -180 127 -560 102 -796 -28 -256 -33 -269 -93 -284 -25 -7 -60 -17 -77 -23 -22 -9 -35 10 -51 74 l-21 87 10 -100 c5 -55 15 -147 22 -205 23 -192 -172 -79 -293 170 -73 150 -170 223 -224 169 -28 -28 11 -402 54 -524 44 -124 42 -238 -5 -331 -93 -186 -115 -289 -111 -529 6 -369 140 -1147 174 -1012 8 32 90 184 183 337 199 330 224 396 192 522 -55 218 -21 342 125 462 202 166 298 390 204 477 l-51 48 50 23 c82 37 89 29 89 -107 0 -172 79 -170 383 11 150 88 180 98 127 39 -53 -59 -260 -169 -415 -220 -288 -96 -361 -373 -112 -421 319 -62 628 202 745 636 101 374 97 465 -22 465 -81 0 -82 13 -9 112 141 195 450 427 527 397 23 -8 39 19 65 115 51 185 137 353 273 537 183 247 265 390 371 651 l97 238 -4 223 c-4 182 1 225 26 235 16 6 56 70 88 142 71 158 193 231 188 113z m-916 -6 c12 -19 106 -842 159 -1387 11 -119 11 -121 -92 -266 -57 -81 -107 -143 -111 -138 -7 6 -99 839 -193 1734 -7 65 201 115 237 57z m232 -2 c25 -20 138 -948 142 -1169 1 -36 -132 -246 -155 -246 -13 0 -47 247 -87 625 -37 344 -71 668 -78 720 l-11 95 79 0 c43 0 92 -11 110 -25z m-514 -20 c5 -14 37 -290 70 -615 34 -324 79 -742 100 -928 27 -241 32 -349 18 -376 -12 -22 -34 -83 -50 -137 -27 -92 -37 -101 -156 -158 -147 -70 -379 -277 -470 -418 -62 -96 -64 -97 -187 -109 -217 -20 -346 -83 -514 -250 l-149 -148 -63 30 c-119 57 -116 236 4 287 220 92 162 1014 -82 1302 -204 242 -671 247 -918 9 -249 -240 -260 -638 -26 -969 93 -133 102 -156 108 -275 9 -176 -88 -333 -146 -238 -29 46 -253 175 -344 198 -88 21 -104 36 -205 183 -133 194 -269 321 -375 353 -77 23 -81 28 -104 148 -35 177 -85 291 -221 508 -276 438 -329 635 -225 833 42 81 56 136 59 242 4 149 5 151 158 244 101 61 109 62 1698 169 660 45 1349 93 1530 108 440 36 480 37 490 7z m724 -80 l126 -65 -1 -280 c-1 -283 -83 -610 -149 -596 -11 3 -40 196 -63 430 -24 234 -48 460 -53 501 -12 91 -16 91 140 10z m-4876 -173 c18 -12 23 -35 14 -70 -29 -116 54 -196 148 -142 75 43 80 39 80 -75 0 -78 -15 -133 -59 -215 -111 -206 -44 -449 249 -900 134 -206 254 -560 191 -560 -51 0 4 -37 117 -78 124 -45 261 -171 391 -360 73 -106 63 -113 -165 -127 -133 -9 -177 -19 -198 -47 -48 -65 -31 -499 24 -633 29 -70 -35 -34 -159 90 -145 146 -190 224 -251 445 -24 88 -79 225 -122 305 -43 80 -113 210 -156 290 -107 197 -155 351 -203 640 -81 498 -117 636 -207 795 -88 155 -132 261 -132 320 0 54 236 296 257 263 14 -21 29 -15 69 25 57 56 70 60 112 34z m5952 -108 c256 -135 231 -280 -27 -155 -207 100 -236 126 -207 189 30 68 45 66 234 -34z m-329 -4681 c-82 -82 -81 -111 -81 2168 l0 2163 45 63 45 63 5 -2219 c3 -1361 -2 -2226 -14 -2238z m-6054 4302 c20 -73 16 -83 -57 -132 -129 -88 -186 16 -65 120 79 68 107 71 122 12z m5933 -2126 l0 -2091 -115 6 -115 6 -13 140 c-17 190 -168 1586 -223 2076 l-45 396 75 134 c115 204 144 298 255 815 111 522 135 609 163 609 11 0 18 -828 18 -2091z m-531 366 c15 -87 140 -1205 192 -1705 22 -220 63 -598 90 -840 27 -242 49 -447 49 -455 0 -25 -150 -17 -184 10 -26 20 -44 136 -86 555 -29 292 -92 908 -141 1370 -48 462 -90 869 -93 904 -3 48 8 74 49 105 29 23 58 60 65 82 19 59 47 47 59 -26z m-200 -240 c6 -36 52 -470 102 -965 109 -1085 165 -1614 181 -1718 l12 -78 -127 15 c-70 8 -130 17 -134 21 -4 4 -41 330 -83 724 -43 394 -102 944 -132 1223 -61 567 -70 486 79 738 72 122 87 128 102 40z m-249 -423 c0 -37 35 -385 78 -775 147 -1328 165 -1496 155 -1512 -5 -8 -101 -7 -213 4 -236 21 -308 -2 -373 -121 -46 -87 -52 -85 -88 15 -45 127 -96 154 -367 187 -281 35 -253 18 -230 140 11 55 18 172 17 260 -2 119 7 183 36 250 58 132 98 313 147 650 57 397 43 372 264 478 210 100 376 237 477 394 75 115 97 122 97 30z m941 -1832 c22 0 39 -17 43 -45 9 -69 149 -77 174 -10 l18 47 307 -34 c169 -19 308 -35 310 -36 1 -1 7 -20 13 -42 13 -51 142 -57 170 -8 15 27 40 29 174 15 196 -21 206 -47 41 -101 l-130 -42 -375 36 c-970 94 -888 81 -909 137 -29 78 -7 110 66 95 34 -6 78 -12 98 -12z m-1676 -413 c52 -10 79 -47 34 -47 -89 0 -153 -399 -89 -553 17 -40 30 -75 30 -79 0 -5 -39 -8 -86 -8 -143 0 -162 27 -178 253 -7 109 -20 259 -27 334 l-15 137 138 -13 c76 -8 163 -18 193 -24z m211 -73 c87 -93 82 -174 -11 -174 -100 0 -105 -11 -105 -252 0 -203 -23 -238 -88 -138 -160 244 25 755 204 564z m814 -27 c187 -19 343 -36 346 -39 4 -2 -22 -55 -58 -118 -92 -163 -103 -357 -30 -499 64 -124 76 -120 -164 -51 -187 54 -410 92 -614 105 -105 7 -150 88 -150 274 0 225 124 396 270 373 33 -6 213 -26 400 -45z m509 -77 c168 -87 152 -529 -25 -658 -231 -169 -333 464 -104 645 66 51 58 50 129 13z m-1210 -270 c4 -82 13 -175 21 -205 l15 -55 -113 0 -112 0 0 211 0 211 91 -6 92 -6 6 -150z m-198 -299 c387 3 372 9 448 -193 80 -213 48 -531 -81 -808 -105 -226 -92 -220 -475 -220 -219 0 -387 -11 -501 -32 -261 -49 -528 -31 -728 49 -124 51 -184 63 -301 63 -505 0 -717 392 -524 970 66 198 70 201 153 153 325 -190 1097 -159 1471 57 l97 56 52 -49 c51 -48 57 -49 389 -46z m-1959 -1125 c73 -32 144 -45 278 -48 144 -4 214 -18 348 -68 109 -40 224 -66 326 -74 189 -14 183 -22 -69 -103 -257 -83 -332 -81 -886 25 -252 48 -495 94 -539 101 -204 33 -177 60 145 143 306 80 278 78 397 24z m2128 -154 c0 -67 -60 -93 -720 -311 -827 -274 -767 -268 -1408 -149 -756 139 -702 118 -719 288 -12 123 5 186 44 162 39 -25 1162 -232 1254 -232 53 0 233 46 454 118 201 64 383 122 405 127 74 19 690 15 690 -3z"/> <path d="M7311 7017 c-18 -59 -37 -147 -42 -197 -7 -71 -3 -62 21 40 16 71 39 156 50 188 11 32 16 62 11 67 -4 5 -23 -39 -40 -98z"/> <path d="M7247 6590 c0 -77 3 -106 8 -65 4 42 4 105 -1 140 -4 36 -8 2 -7 -75z"/> <path d="M7192 6316 c-24 -51 -70 -101 -129 -138 -50 -32 -81 -58 -70 -58 72 0 264 205 243 259 -3 9 -23 -19 -44 -63z"/> <path d="M6770 6024 c-157 -83 -248 -146 -249 -171 -1 -9 33 10 74 43 41 32 131 87 200 122 69 34 125 67 125 72 0 14 2 15 -150 -66z"/> <path d="M5645 4455 c-34 -47 -82 -112 -107 -145 -24 -33 -7 -19 37 30 76 83 157 200 140 200 -4 0 -35 -38 -70 -85z"/> <path d="M4867 2930 c0 -88 3 -122 8 -74 4 47 4 119 0 160 -5 40 -8 2 -8 -86z"/> <path d="M2765 6280 c4 -16 81 -89 169 -161 89 -72 185 -157 215 -190 48 -53 50 -53 22 -8 -32 54 -62 82 -222 207 -54 43 -120 101 -146 130 -26 29 -43 39 -38 22z"/> <path d="M7778 2908 c-48 -58 -49 -272 -1 -316 55 -49 98 -29 136 62 70 169 -37 372 -135 254z m122 -137 c0 -115 -36 -184 -87 -165 -66 25 -66 218 0 284 51 51 87 2 87 -119z"/> <path d="M9760 4870 c0 -3007 7 -4530 20 -4530 13 0 20 1523 20 4530 0 3007 -7 4530 -20 4530 -13 0 -20 -1523 -20 -4530z"/> <path d="M10040 4870 c0 -3016 7 -4528 20 -4520 13 8 20 1536 20 4520 0 2984 -7 4512 -20 4520 -13 8 -20 -1504 -20 -4520z"/> </g> </svg>