<?xml version="1.0" standalone="no"?> <!DOCTYPE svg PUBLIC "-//W3C//DTD SVG 20010904//EN" "http://www.w3.org/TR/2001/REC-SVG-20010904/DTD/svg10.dtd"> <svg version="1.0" xmlns="http://www.w3.org/2000/svg" width="600.000000pt" height="489.000000pt" viewBox="0 0 600.000000 489.000000" preserveAspectRatio="xMidYMid meet"> <g transform="translate(0.000000,489.000000) scale(0.100000,-0.100000)" fill="#ffffff" stroke="none"> <path d="M3101 4549 c-72 -12 -165 -63 -207 -114 -78 -95 -99 -196 -91 -429 6 -167 31 -315 62 -363 9 -13 32 -31 50 -40 19 -9 35 -19 35 -23 0 -3 -29 -20 -64 -38 l-65 -31 -47 21 c-36 15 -69 21 -134 21 -117 0 -175 -26 -282 -130 l-80 -78 -51 3 c-29 2 -71 -3 -94 -12 l-42 -15 -27 82 c-23 69 -28 104 -31 222 -3 77 -1 157 4 178 l8 38 35 -53 c50 -75 107 -102 214 -103 95 0 125 15 175 91 63 96 76 145 76 294 0 116 -3 141 -21 180 -45 95 -101 129 -222 137 -85 5 -88 4 -129 -25 -23 -17 -54 -53 -69 -79 -15 -26 -29 -49 -30 -51 -1 -2 -22 -1 -46 3 -42 6 -45 9 -62 58 -23 66 -96 140 -151 156 -56 15 -161 14 -194 -3 -115 -60 -192 -267 -163 -438 14 -82 51 -156 93 -187 36 -26 128 -51 192 -51 l49 0 -6 -36 c-4 -19 -25 -98 -46 -174 -66 -232 -73 -336 -34 -521 30 -146 58 -170 204 -183 41 -4 128 -16 193 -28 138 -24 214 -17 298 26 27 15 50 26 53 26 2 0 9 -20 16 -45 10 -35 10 -58 1 -102 -17 -88 -14 -221 9 -318 19 -77 20 -96 10 -188 -6 -55 -13 -104 -16 -108 -2 -4 -8 -69 -14 -145 -14 -202 -24 -211 -260 -244 -264 -36 -510 -99 -681 -174 -98 -44 -346 -185 -451 -259 -110 -76 -123 -149 -84 -452 38 -289 79 -525 91 -525 7 0 3 47 -12 137 -13 76 -34 230 -48 343 -14 113 -27 221 -30 241 -7 53 13 148 39 189 46 71 513 326 677 370 55 15 81 7 130 -37 123 -111 199 -303 199 -503 0 -52 -4 -101 -9 -109 -12 -19 -129 -30 -328 -31 -177 0 -218 -7 -228 -41 -3 -9 7 -59 22 -111 24 -82 28 -109 28 -228 0 -74 -4 -154 -8 -177 -6 -29 -5 -43 2 -43 29 0 51 220 32 322 -11 55 -43 176 -57 213 -3 7 2 20 11 29 14 14 44 16 206 16 l189 0 0 -83 c0 -68 3 -87 18 -100 19 -17 115 -56 220 -88 l62 -20 0 -144 c0 -90 4 -145 10 -145 6 0 10 54 10 141 0 109 3 140 13 137 6 -3 36 -13 65 -22 l52 -18 0 -119 c0 -73 4 -119 10 -119 6 0 10 45 10 115 0 63 1 115 3 115 1 0 36 -13 77 -28 84 -31 87 -36 89 -139 1 -35 6 -63 11 -63 17 0 11 121 -11 210 -14 56 -22 119 -23 185 -1 86 3 111 28 180 72 204 142 296 277 366 56 29 74 34 139 34 97 0 167 -32 239 -110 105 -116 137 -312 69 -423 -23 -37 -142 -136 -207 -173 -56 -31 -66 -65 -46 -160 19 -92 24 -109 34 -109 4 0 -1 42 -12 92 -22 113 -18 125 60 175 32 20 85 58 118 84 54 42 115 79 130 79 3 0 5 -97 5 -215 0 -191 2 -215 16 -215 14 0 15 9 9 66 -4 36 -4 138 0 228 l8 162 51 27 c28 15 57 27 63 27 10 0 13 -63 16 -257 l2 -258 3 267 2 266 55 31 c30 17 57 31 60 31 3 0 5 -133 5 -295 0 -229 3 -295 13 -295 9 0 12 65 10 298 l-2 297 27 28 c25 26 27 35 27 110 -1 45 -4 92 -9 103 -6 17 -3 23 16 27 13 4 36 20 52 36 28 29 29 32 47 258 10 125 28 341 39 478 11 138 27 356 36 485 9 129 17 236 19 238 1 1 17 -11 36 -29 121 -113 293 -179 469 -179 50 0 126 -9 180 -21 140 -30 267 -12 290 43 17 42 40 237 40 348 0 111 -17 220 -66 429 -14 57 -23 105 -22 107 2 1 37 -3 78 -8 90 -13 118 -8 165 34 177 155 186 591 13 688 -51 28 -192 39 -235 17 -40 -21 -94 -83 -117 -134 -20 -46 -38 -52 -70 -28 -11 8 -36 15 -55 15 -49 0 -56 7 -81 72 -36 97 -98 143 -209 154 -90 10 -124 0 -176 -53 -55 -55 -80 -101 -106 -196 l-19 -72 8 115 c10 169 7 214 -17 249 -28 39 -56 47 -256 71 -228 27 -223 26 -239 65 -36 85 -146 163 -261 184 -66 12 -78 12 -154 0z m247 -53 c67 -31 117 -79 154 -148 20 -38 23 -57 23 -168 0 -121 -2 -128 -39 -230 -39 -103 -40 -108 -39 -236 0 -77 5 -139 11 -150 10 -17 11 -17 12 9 0 15 2 27 5 27 10 0 161 -115 185 -141 19 -21 41 -30 90 -39 80 -14 151 -47 229 -106 53 -39 122 -114 106 -114 -4 0 -35 26 -70 58 -111 101 -272 161 -396 147 -57 -7 -119 -36 -119 -56 0 -37 147 -180 240 -233 81 -46 109 -48 247 -20 127 25 188 30 179 15 -3 -4 -28 -11 -56 -15 -66 -9 -241 -53 -252 -64 -14 -14 66 -107 150 -174 130 -103 220 -134 371 -125 47 3 94 7 105 8 14 3 22 -6 33 -36 7 -22 20 -47 28 -55 11 -10 9 3 -7 45 -13 38 -23 93 -26 150 -3 77 0 105 24 190 24 85 28 119 29 230 0 72 -4 157 -8 189 -9 58 -11 61 -98 145 l-89 86 0 55 c0 80 8 99 51 120 73 38 92 16 38 -45 -17 -19 -29 -41 -26 -48 2 -7 32 -21 66 -31 46 -14 69 -27 91 -54 20 -25 30 -31 30 -20 0 9 -4 20 -10 23 -22 13 -8 25 29 25 l38 0 7 -81 c8 -101 36 -169 87 -212 l38 -33 41 -200 c51 -247 58 -353 35 -534 -9 -74 -21 -142 -26 -151 -5 -10 -25 -23 -45 -29 -71 -24 -262 -7 -289 24 -5 7 -41 33 -80 58 -38 25 -101 70 -140 101 -74 60 -102 70 -40 15 53 -47 192 -146 215 -153 83 -26 -89 -34 -217 -10 -143 27 -298 124 -375 235 -21 29 -38 49 -38 44 0 -6 7 -19 15 -30 26 -34 16 -67 -51 -174 -65 -104 -123 -180 -228 -301 -87 -99 -94 -118 -114 -335 l-17 -189 -85 -19 c-69 -15 -128 -19 -315 -19 -203 -1 -240 1 -315 20 -119 30 -190 58 -230 91 l-34 29 12 149 c7 82 17 185 23 229 8 68 6 96 -12 190 -17 88 -20 130 -15 209 8 127 14 149 35 140 52 -23 261 -10 261 17 0 5 -11 6 -27 2 -16 -5 -71 -8 -124 -8 -80 0 -100 3 -117 18 -35 32 -47 108 -44 282 l3 160 37 38 c48 50 160 104 242 119 36 6 71 17 79 24 36 33 -141 73 -236 54 -62 -13 -138 -45 -192 -81 -47 -32 -35 -3 14 32 111 80 276 98 408 44 11 -5 17 -3 17 7 0 15 93 68 119 68 10 0 12 -12 6 -57 -5 -42 -4 -55 4 -47 6 6 14 40 18 76 l6 65 52 12 c28 6 97 34 154 62 89 43 106 56 132 96 16 26 29 52 28 57 0 6 -6 2 -12 -8 -46 -74 -135 -132 -266 -175 -124 -41 -189 -20 -215 70 -32 107 -49 267 -43 404 10 207 42 293 133 358 70 50 135 67 239 64 73 -3 102 -8 153 -31z m-1664 -90 c-133 -114 -170 -412 -69 -560 14 -21 24 -40 22 -42 -7 -7 -60 16 -81 34 -54 49 -92 187 -82 292 19 179 107 310 210 310 l40 0 -40 -34z m176 2 c50 -35 117 -164 88 -172 -79 -23 -102 -33 -115 -53 -10 -15 -22 -22 -33 -18 -26 8 -47 -4 -60 -35 -16 -38 0 -67 43 -78 21 -6 30 -14 27 -23 -2 -8 -7 -63 -10 -124 l-5 -110 -50 -3 c-45 -3 -54 0 -84 30 -62 61 -76 106 -76 253 0 152 15 208 72 275 70 82 139 101 203 58z m440 -46 c0 -5 -12 -15 -26 -23 -39 -20 -80 -86 -110 -175 -24 -71 -26 -89 -22 -199 3 -101 7 -127 27 -165 13 -25 30 -53 39 -62 14 -16 13 -18 -2 -18 -29 0 -74 28 -100 63 -41 54 -56 110 -56 211 0 102 15 167 54 247 33 65 61 97 101 115 33 15 95 19 95 6z m100 -12 c18 0 82 -64 103 -104 19 -36 22 -56 22 -171 0 -163 -21 -228 -101 -314 -50 -54 -54 -56 -102 -56 -44 0 -55 4 -86 34 -124 120 -108 430 30 564 39 37 86 59 112 51 8 -2 18 -4 22 -4z m1305 -61 c129 -13 151 -23 182 -83 13 -24 13 -48 3 -170 -24 -304 -51 -571 -58 -577 -4 -4 -33 -9 -65 -11 -43 -4 -60 -1 -70 10 -6 9 -53 46 -104 84 -133 99 -136 104 -130 208 4 61 17 116 43 195 34 101 38 120 40 235 1 69 3 126 3 128 1 2 9 1 19 -2 9 -2 71 -10 137 -17z m242 -38 c75 -34 76 -50 44 -407 -11 -120 -23 -265 -27 -322 -6 -89 -9 -102 -23 -97 -9 4 -29 9 -44 12 -16 3 -31 12 -34 20 -3 7 2 98 10 201 43 506 43 520 19 563 -12 21 -22 40 -22 43 0 12 36 5 77 -13z m-1947 -44 c0 -7 -7 -23 -16 -35 -11 -16 -15 -40 -12 -85 2 -50 0 -62 -12 -62 -21 0 -22 154 -1 178 16 20 41 22 41 4z m-77 -34 c-5 -16 -7 -54 -5 -85 2 -60 -13 -80 -24 -30 -3 15 -8 33 -10 40 -7 24 18 102 32 102 11 0 12 -7 7 -27z m121 12 c-6 -16 -24 -21 -24 -7 0 11 11 22 21 22 5 0 6 -7 3 -15z m-178 -65 c-1 -48 -5 -70 -13 -70 -21 0 -27 69 -9 106 8 19 17 34 19 34 2 0 3 -31 3 -70z m2402 8 c-87 -82 -132 -210 -131 -373 1 -109 16 -170 60 -237 14 -21 24 -41 21 -43 -9 -9 -106 46 -121 68 -42 66 -62 195 -47 312 26 200 107 314 224 315 l39 0 -45 -42z m167 4 c35 -20 87 -115 83 -152 -2 -20 -8 -25 -33 -25 -24 0 -33 -7 -50 -38 -13 -24 -29 -40 -45 -43 -60 -13 -70 -22 -70 -63 0 -22 7 -46 15 -55 8 -8 15 -24 15 -36 0 -32 17 -59 69 -113 l46 -48 -52 -50 c-44 -42 -57 -49 -92 -49 -91 0 -150 102 -158 275 -9 194 53 352 162 410 33 17 63 13 110 -13z m-2421 12 c18 -7 23 -84 6 -84 -14 0 -30 35 -30 64 0 28 1 29 24 20z m-204 -39 c0 -19 -4 -35 -9 -35 -24 0 -41 14 -41 34 0 27 8 36 32 36 14 0 18 -8 18 -35z m3140 -13 c0 -4 -14 -21 -32 -37 -67 -64 -120 -225 -122 -370 -1 -107 15 -177 55 -240 16 -25 29 -48 29 -51 0 -9 -55 8 -86 27 -21 13 -41 40 -60 81 -27 59 -29 71 -29 198 0 139 10 190 56 281 21 42 73 97 103 109 27 11 86 12 86 2z m127 -19 c73 -34 117 -144 117 -293 0 -154 -49 -287 -133 -363 -94 -85 -192 -26 -235 139 -29 112 -13 260 40 380 36 82 58 109 106 133 52 25 60 26 105 4z m-3162 -70 c14 -8 14 -11 -5 -28 -11 -10 -20 -24 -20 -30 0 -7 16 3 36 21 24 23 45 34 65 34 16 0 29 -3 29 -7 0 -5 4 -34 10 -66 7 -44 6 -65 -6 -92 -10 -24 -14 -75 -14 -177 0 -129 3 -153 30 -248 l30 -105 -44 -40 c-24 -22 -58 -60 -77 -85 -18 -25 -44 -55 -58 -67 -14 -12 -21 -22 -15 -23 5 0 15 5 21 11 8 8 18 6 35 -5 34 -22 172 -56 229 -56 65 0 167 34 229 75 54 37 63 33 56 -20 -3 -16 -5 -38 -5 -49 -1 -19 -8 -20 -98 0 -22 4 -33 3 -33 -5 0 -6 3 -10 8 -9 4 1 32 -1 63 -6 l57 -7 5 -52 c3 -30 0 -58 -6 -65 -30 -37 -168 -77 -232 -67 -144 22 -225 39 -218 46 10 9 221 122 247 132 10 4 16 10 13 13 -5 6 -187 -83 -248 -122 -75 -47 -217 -25 -246 37 -7 14 -22 86 -34 159 -26 162 -21 213 48 478 42 160 46 188 47 298 1 138 9 158 56 144 16 -4 36 -12 45 -17z m2648 -89 c-11 -149 -15 -165 -37 -162 -19 3 -21 9 -19 64 1 68 26 138 45 131 7 -2 12 -17 11 -33z m80 18 c15 -16 14 -21 -4 -62 -12 -25 -22 -63 -24 -85 -4 -49 -31 -61 -41 -19 -7 29 10 134 27 166 12 23 22 23 42 0z m-147 -3 c9 -16 -12 -33 -31 -25 -14 5 -15 9 -5 21 15 18 26 19 36 4z m198 -51 c-4 -18 -10 -58 -13 -88 -5 -41 -10 -56 -23 -58 -26 -5 -24 69 4 130 25 55 43 64 32 16z m-336 -72 c-2 -15 -7 -28 -13 -29 -12 -2 -19 38 -10 60 9 25 27 1 23 -31z m-318 -184 c35 -108 83 -149 207 -173 89 -17 126 -7 188 52 49 46 53 48 67 31 22 -24 26 -42 38 -161 7 -71 7 -130 0 -186 -9 -76 -36 -194 -45 -204 -3 -2 -24 14 -49 37 -53 49 -106 77 -163 87 -41 6 -45 10 -80 78 -41 77 -126 169 -186 202 -44 23 -44 24 -22 250 8 83 15 159 16 170 1 11 5 -17 10 -63 4 -46 13 -100 19 -120z m440 158 c0 -11 -7 -20 -15 -20 -15 0 -21 21 -8 33 12 13 23 7 23 -13z m-2071 -514 c14 -14 22 -26 18 -26 -12 0 -117 74 -117 82 0 14 73 -28 99 -56z m1441 -1032 c-17 -203 -42 -502 -54 -665 -13 -162 -29 -305 -35 -317 -6 -12 -29 -31 -51 -42 -57 -29 -105 -26 -64 4 12 9 19 48 29 167 24 271 65 799 74 939 l8 135 46 72 c26 39 52 84 59 100 l12 28 3 -26 c2 -14 -10 -192 -27 -395z m-129 -39 c-7 -104 -18 -260 -26 -345 -8 -85 -21 -240 -30 -345 -24 -302 -27 -311 -79 -297 l-30 8 3 100 c3 107 -13 216 -55 374 -25 92 -25 98 -14 230 12 142 25 222 38 245 4 8 50 68 102 134 62 78 96 114 99 103 2 -9 -2 -102 -8 -207z m-1195 -400 c74 -45 194 -83 304 -96 172 -21 443 -9 578 26 l54 14 15 -37 c59 -141 77 -434 36 -567 -24 -74 -95 -191 -163 -265 l-41 -45 6 43 c15 115 -41 269 -125 346 -74 66 -131 90 -222 94 -93 5 -145 -11 -229 -68 -32 -22 -59 -37 -59 -34 0 16 78 109 132 159 34 30 56 55 50 55 -6 0 -41 -28 -78 -62 -64 -60 -131 -151 -183 -248 l-24 -45 -136 -35 c-174 -44 -339 -79 -371 -80 l-25 0 3 99 c5 123 -16 230 -62 326 -41 86 -118 190 -162 218 -19 12 -34 25 -34 29 0 9 161 46 308 69 247 38 282 47 317 73 18 14 37 35 40 46 3 11 8 20 9 20 2 0 30 -16 62 -35z m1089 -621 c55 -12 65 -29 65 -114 0 -46 -5 -83 -12 -92 -13 -17 -368 -210 -368 -201 0 3 19 29 43 57 23 28 69 86 101 129 52 69 66 82 139 119 53 27 76 43 64 46 -10 2 -43 -11 -73 -28 -31 -17 -58 -30 -60 -27 -2 2 3 26 12 53 9 27 18 55 20 62 2 7 12 11 21 8 10 -3 32 -8 48 -12z m-1080 -215 c-32 -81 -55 -168 -55 -208 0 -17 -5 -31 -11 -31 -6 0 -121 36 -255 80 -182 60 -249 78 -262 71 -19 -11 -25 -8 73 -34 33 -9 149 -44 257 -79 l197 -63 7 -45 c3 -25 10 -60 15 -79 4 -19 6 -37 3 -40 -6 -6 -129 34 -378 123 -223 80 -216 74 -216 181 l0 64 38 6 c73 11 429 87 512 109 47 13 88 21 93 17 4 -4 -4 -36 -18 -72z"/> <path d="M3213 3552 c-28 -42 -66 -97 -84 -122 -18 -25 -26 -39 -16 -31 19 15 126 161 146 199 28 53 2 27 -46 -46z"/> <path d="M2861 3406 c17 -17 109 -73 109 -67 0 11 -30 36 -67 55 -30 15 -52 21 -42 12z"/> <path d="M3135 3349 c-54 -13 -95 -30 -95 -40 0 -13 6 -11 43 7 22 12 84 21 207 29 l175 12 -145 1 c-80 0 -163 -4 -185 -9z"/> <path d="M2962 3223 c-62 -89 -146 -353 -111 -353 5 0 9 12 9 28 0 64 66 250 112 315 11 15 18 30 15 33 -3 3 -14 -7 -25 -23z"/> <path d="M3736 2979 c-27 -16 -100 -77 -164 -135 -188 -170 -265 -196 -456 -150 -60 14 -135 40 -168 58 -68 36 -91 32 -26 -5 79 -46 230 -87 324 -87 116 0 200 46 374 205 52 48 117 100 145 116 27 16 43 29 34 29 -8 0 -37 -14 -63 -31z"/> <path d="M3752 2910 c2 -8 20 -22 39 -32 40 -19 221 -70 227 -63 5 5 6 5 -106 39 -46 14 -90 26 -99 26 -9 0 -28 10 -41 23 -16 14 -23 17 -20 7z"/> <path d="M3597 2753 c-22 -73 -74 -469 -64 -480 5 -4 20 102 32 222 4 33 16 107 26 164 11 57 18 105 15 108 -2 2 -7 -4 -9 -14z"/> <path d="M2802 2668 c-8 -41 -7 -57 2 -47 10 10 23 89 16 89 -5 0 -13 -19 -18 -42z"/> <path d="M2664 2585 c-82 -41 -147 -150 -125 -206 8 -21 10 -18 10 21 1 66 72 159 138 181 18 6 33 15 33 20 0 12 1 12 -56 -16z"/> <path d="M2850 2590 c0 -3 33 -23 74 -44 94 -46 127 -85 187 -212 26 -56 53 -105 60 -109 14 -9 17 -16 -53 125 -31 63 -70 128 -86 143 -30 29 -182 110 -182 97z"/> <path d="M2775 2543 c-4 -10 -11 -90 -15 -178 -5 -88 -11 -188 -15 -221 -4 -37 -3 -64 2 -67 6 -4 13 33 17 91 12 155 24 387 21 390 -1 2 -6 -5 -10 -15z"/> <path d="M3313 2552 c9 -14 63 -26 105 -24 34 2 77 20 69 29 -3 2 -15 -1 -28 -7 -22 -12 -98 -9 -133 5 -13 6 -17 5 -13 -3z"/> <path d="M3405 2481 c-3 -6 -24 -21 -47 -32 -39 -20 -47 -37 -11 -25 23 8 77 55 70 62 -3 3 -8 0 -12 -5z"/> <path d="M3435 2430 c-52 -5 -56 -7 -32 -14 31 -9 97 0 97 14 0 6 -1 9 -2 8 -2 -1 -30 -4 -63 -8z"/> <path d="M3452 2329 c-19 -17 -32 -32 -30 -34 4 -4 68 53 68 61 0 7 -4 4 -38 -27z"/> <path d="M2595 2320 c19 -8 133 -14 124 -6 -2 2 -35 6 -74 9 -42 3 -62 2 -50 -3z"/> <path d="M2800 2307 c17 -16 203 -67 241 -67 13 1 -23 13 -81 29 -58 15 -121 33 -140 40 -30 10 -33 10 -20 -2z"/> <path d="M2545 2218 c4 -46 12 -90 17 -98 6 -10 8 -5 4 19 -3 18 -6 62 -6 97 0 40 -4 64 -11 64 -8 0 -9 -25 -4 -82z"/> <path d="M3101 2119 c-12 -39 -20 -73 -17 -76 3 -3 15 27 27 66 11 40 19 74 16 77 -2 3 -15 -27 -26 -67z"/> <path d="M2601 2084 c9 -8 36 -18 60 -20 l44 -5 -55 20 c-67 25 -68 25 -49 5z"/> <path d="M2780 2052 c0 -16 85 -41 159 -48 48 -4 62 -3 51 5 -8 6 -29 11 -45 11 -30 0 -112 19 -147 35 -11 4 -18 3 -18 -3z"/> <path d="M2544 2038 c-11 -17 -7 -199 3 -209 5 -5 8 43 8 106 0 63 -1 115 -2 115 -1 0 -5 -6 -9 -12z"/> <path d="M2740 1995 c-1 -17 -7 -57 -15 -90 -17 -70 -19 -119 -5 -110 6 3 10 20 10 36 0 17 7 62 16 101 12 51 13 73 5 81 -8 8 -11 3 -11 -18z"/> <path d="M3076 1965 c-3 -9 -6 -24 -6 -33 0 -9 -16 -53 -35 -96 -19 -44 -32 -82 -30 -84 7 -7 62 118 76 172 11 45 8 74 -5 41z"/> <path d="M2480 1467 c5 -15 16 -57 25 -92 8 -36 26 -82 39 -103 24 -38 76 -81 76 -63 0 5 -7 11 -15 15 -27 10 -73 95 -90 166 -9 38 -23 77 -31 87 -13 16 -13 15 -4 -10z"/> <path d="M2555 608 c10 -98 25 -164 41 -184 15 -18 15 -18 9 1 -16 48 -35 154 -35 198 0 26 -5 47 -10 47 -7 0 -9 -22 -5 -62z"/> <path d="M2861 627 c-6 -8 -21 -52 -32 -98 -12 -46 -26 -90 -33 -98 -9 -11 -8 -13 4 -9 8 2 20 22 27 44 55 178 57 188 34 161z"/> </g> </svg>