<?xml version="1.0" standalone="no"?> <!DOCTYPE svg PUBLIC "-//W3C//DTD SVG 20010904//EN" "http://www.w3.org/TR/2001/REC-SVG-20010904/DTD/svg10.dtd"> <svg version="1.0" xmlns="http://www.w3.org/2000/svg" width="600.000000pt" height="489.000000pt" viewBox="0 0 600.000000 489.000000" preserveAspectRatio="xMidYMid meet"> <g transform="translate(0.000000,489.000000) scale(0.100000,-0.100000)" fill="#ffffff" stroke="none"> <path d="M3150 4593 c-64 -23 -142 -105 -165 -172 -35 -106 1 -407 59 -493 12 -18 32 -34 44 -36 32 -5 27 -15 -17 -35 -22 -10 -59 -31 -83 -47 -23 -16 -55 -30 -69 -30 -126 -1 -248 -132 -264 -284 -6 -56 -12 -68 -42 -98 -42 -39 -83 -121 -83 -165 0 -17 -4 -34 -9 -37 -11 -7 -121 42 -121 54 0 5 8 11 18 14 33 11 95 81 121 136 23 48 26 68 26 161 0 100 -2 108 -30 155 -41 67 -104 99 -197 99 -58 0 -72 -4 -110 -31 l-45 -31 -23 44 c-41 77 -161 127 -248 102 -127 -35 -215 -215 -182 -374 24 -118 121 -189 245 -182 33 2 67 7 75 10 11 5 36 -29 96 -131 45 -75 94 -162 110 -192 37 -71 103 -137 199 -200 124 -80 156 -72 317 88 48 47 91 82 95 78 12 -12 5 -335 -9 -388 -10 -42 -15 -48 -37 -48 -107 -2 -302 -28 -363 -49 -66 -23 -209 -94 -263 -131 -22 -15 -65 -53 -95 -84 -66 -67 -98 -73 -90 -16 11 75 4 186 -15 245 -28 86 -98 157 -180 181 -161 47 -274 -2 -369 -159 -38 -64 -66 -168 -66 -244 0 -61 25 -158 50 -198 47 -72 47 -66 -16 -149 -39 -50 -66 -76 -79 -76 -11 0 -71 14 -134 31 -150 40 -200 29 -242 -52 -17 -35 -21 -38 -45 -29 -18 7 -35 6 -58 -4 -49 -20 -71 -83 -63 -179 7 -96 26 -143 87 -223 28 -37 71 -106 95 -153 55 -111 107 -161 167 -161 38 0 46 5 88 52 111 127 165 173 250 216 l85 43 50 -15 c28 -9 71 -16 97 -16 41 0 54 5 88 36 21 20 45 51 51 69 8 21 21 36 36 40 37 9 144 123 188 200 42 73 81 125 95 125 4 0 12 -17 17 -37 8 -36 12 -39 70 -55 34 -9 66 -19 71 -22 17 -10 24 -77 23 -227 -1 -120 3 -170 23 -266 25 -124 41 -233 34 -233 -2 0 -25 7 -51 16 -42 14 -52 14 -121 -1 -82 -18 -86 -22 -86 -107 0 -58 7 -63 144 -108 l98 -32 -6 -32 c-14 -70 -114 -183 -278 -311 -42 -33 -82 -70 -88 -81 -19 -34 -3 -64 48 -86 39 -18 60 -20 161 -16 127 6 158 15 250 77 31 21 86 54 122 74 92 51 104 86 74 212 -8 32 -12 61 -10 63 2 2 89 -26 192 -63 103 -37 252 -89 330 -116 l141 -48 69 22 68 22 0 85 0 85 -147 50 c-81 28 -149 52 -152 55 -2 3 68 28 157 56 274 87 823 260 998 314 l167 52 228 -63 c246 -68 310 -76 377 -47 l37 17 0 63 c0 35 -5 69 -11 75 -7 7 -126 40 -265 74 l-254 62 0 267 0 267 112 24 c61 13 117 30 125 37 18 18 17 102 -2 129 -20 29 -44 35 -309 83 -223 40 -231 41 -318 29 -48 -6 -91 -9 -94 -6 -3 3 6 57 21 119 42 175 45 234 22 487 -17 193 -18 235 -8 302 11 67 11 84 -4 135 -9 33 -30 84 -45 114 -17 33 -33 85 -40 130 -6 41 -20 94 -31 117 -29 60 -100 119 -168 140 -34 11 -78 36 -113 64 -31 26 -90 66 -131 89 -114 65 -136 123 -98 268 49 190 4 339 -123 404 -55 29 -182 34 -246 11z m199 -19 c70 -20 125 -71 151 -140 26 -70 25 -140 -1 -251 -37 -154 -11 -227 103 -289 38 -21 98 -62 133 -91 35 -29 72 -53 82 -53 31 -1 99 -36 141 -74 89 -81 114 -233 58 -369 -15 -38 -26 -70 -23 -73 6 -6 46 88 54 126 3 17 10 29 16 27 6 -2 23 -36 40 -77 23 -58 28 -86 26 -134 -1 -34 -3 -109 -3 -169 -1 -59 -3 -107 -4 -107 -2 0 -13 10 -23 23 -13 14 -9 2 11 -37 16 -32 30 -71 30 -86 0 -35 -25 -106 -94 -266 -31 -72 -56 -137 -55 -145 0 -8 4 -5 9 6 54 123 110 257 121 287 41 119 40 -117 -2 -314 -61 -288 -64 -310 -52 -416 9 -82 9 -101 -4 -120 -8 -13 -21 -21 -28 -18 -7 2 -21 -6 -29 -20 -20 -29 -40 -32 -33 -4 8 32 -10 23 -22 -10 -18 -54 -26 -32 -26 72 0 86 -4 111 -23 154 -23 50 -23 53 -8 105 24 79 20 179 -10 294 -24 93 -26 110 -20 239 3 77 8 142 11 144 3 3 15 -3 26 -15 18 -18 19 -25 10 -59 -6 -22 -10 -57 -10 -79 1 -22 3 -31 5 -20 2 11 9 45 15 75 6 30 29 102 51 160 37 96 39 110 34 170 -4 36 -13 92 -20 124 -17 70 -34 87 -170 162 -85 47 -95 56 -144 130 -29 43 -61 105 -70 136 -9 32 -21 58 -25 58 -18 0 56 -171 99 -227 28 -37 30 -45 9 -37 -9 4 -15 0 -15 -8 0 -21 -91 -112 -141 -141 -72 -41 -139 -50 -242 -32 -49 8 -106 24 -128 35 -21 11 -39 17 -39 12 0 -24 168 -72 254 -72 93 0 212 60 266 135 14 19 28 35 33 35 4 0 7 -22 7 -49 0 -64 26 -200 51 -267 l20 -53 -39 -58 c-67 -99 -74 -120 -81 -228 l-6 -100 -69 -17 c-182 -46 -495 -24 -628 43 -45 23 -46 25 -33 202 4 48 11 85 16 81 5 -3 9 -18 9 -33 0 -15 5 -32 10 -37 8 -8 8 -19 0 -38 -5 -15 -9 -53 -9 -84 1 -31 4 -43 5 -27 2 17 9 54 15 83 l10 52 52 1 52 2 -50 6 c-70 9 -75 14 -75 77 0 61 22 94 63 94 13 0 32 7 43 15 17 12 13 12 -33 1 -66 -18 -71 -21 -81 -59 -9 -32 -9 -31 -30 36 -12 37 -25 104 -28 147 l-7 80 68 0 c41 0 80 6 101 16 45 22 38 29 -9 9 -53 -22 -129 -20 -160 5 -38 30 -62 103 -61 181 2 77 36 165 86 216 18 18 29 35 26 38 -11 11 -87 -87 -104 -135 -16 -45 -21 -50 -63 -61 -25 -7 -51 -15 -57 -16 -8 -3 -8 14 -3 57 19 138 102 226 235 251 34 6 70 21 87 35 31 26 117 67 125 59 3 -3 9 -22 13 -42 7 -34 8 -33 6 16 l-2 55 76 31 c91 38 137 72 162 117 l18 33 -33 -36 c-44 -48 -81 -72 -151 -98 -72 -26 -128 -27 -151 -2 -25 28 -66 205 -73 316 -4 78 -2 113 11 158 42 146 188 218 345 171z m-1399 -694 c0 -5 -6 -10 -12 -10 -7 0 -27 -12 -44 -28 -106 -93 -142 -270 -81 -393 27 -56 21 -63 -16 -19 -36 42 -51 95 -51 170 1 122 60 231 148 271 47 21 56 23 56 9z m140 -32 c38 -26 86 -109 76 -133 -4 -13 -15 -14 -55 -9 -43 6 -51 4 -63 -15 -8 -13 -23 -21 -40 -21 -20 0 -31 -8 -43 -30 -17 -33 -20 -66 -5 -75 12 -7 90 -156 90 -172 0 -19 -35 -33 -83 -33 -57 0 -104 31 -137 90 -21 38 -25 58 -25 125 0 98 22 167 72 225 62 72 148 91 213 48z m214 -73 c-82 -49 -134 -159 -134 -284 0 -66 4 -87 28 -135 16 -31 26 -56 22 -56 -4 0 -23 17 -42 39 -79 86 -72 266 15 382 27 38 94 79 127 79 22 0 21 -3 -16 -25z m139 1 c41 -16 81 -64 97 -112 8 -22 11 -71 8 -124 -3 -73 -9 -98 -34 -146 -38 -75 -89 -115 -152 -122 -89 -8 -139 37 -168 149 -14 54 -15 74 -5 128 21 112 75 192 151 225 44 19 62 19 103 2z m-333 -91 c0 -3 -16 -25 -35 -51 -19 -25 -35 -51 -35 -57 0 -7 11 1 23 18 67 90 94 101 51 22 -13 -26 -21 -47 -16 -47 5 0 7 -22 4 -49 -6 -71 21 -157 67 -202 34 -34 115 -69 160 -69 26 0 192 -87 224 -117 16 -16 40 -47 54 -71 14 -24 28 -41 30 -38 3 3 -4 21 -15 41 l-21 35 23 0 c54 0 120 30 166 75 l47 47 8 -97 7 -97 -63 -65 c-35 -36 -90 -87 -122 -114 -79 -67 -104 -66 -213 6 -99 66 -149 120 -199 218 -21 39 -66 119 -100 177 -95 160 -167 308 -159 322 53 88 77 118 94 118 11 0 20 -2 20 -5z m-113 -72 c-20 -35 -22 -36 -25 -15 -4 26 13 52 34 52 10 0 7 -10 -9 -37z m1781 -707 c6 -13 25 -40 43 -60 l32 -37 -12 -127 c-12 -134 -10 -152 28 -312 12 -47 21 -110 21 -141 l0 -57 -63 -11 c-35 -6 -75 -11 -90 -11 l-26 0 0 93 c0 99 -10 160 -42 276 -17 62 -20 88 -14 167 7 87 10 99 52 169 25 41 48 75 52 75 4 0 13 -11 19 -24z m-2116 -223 c-182 -89 -274 -377 -181 -570 23 -47 18 -71 -8 -38 -33 44 -64 126 -70 189 -18 192 94 390 247 437 55 16 62 6 12 -18z m186 -12 c107 -55 166 -194 147 -346 -5 -45 -10 -56 -23 -53 -13 2 -16 12 -14 36 5 45 -20 80 -75 104 -39 17 -52 18 -82 9 -20 -6 -47 -12 -61 -13 -32 -4 -73 -64 -65 -96 5 -19 -10 -44 -72 -122 -43 -54 -81 -99 -84 -99 -4 -1 -17 23 -29 52 -32 72 -32 214 -1 302 67 187 232 291 359 226z m1083 -90 c156 -69 494 -81 685 -26 19 6 22 -3 48 -112 21 -92 26 -137 24 -208 l-3 -89 -31 -7 c-77 -15 -136 -79 -164 -175 -12 -39 -16 -42 -67 -57 -54 -15 -55 -15 -49 7 23 93 11 237 -26 309 -30 59 -98 128 -151 152 -29 14 -44 26 -37 30 7 4 64 5 128 1 130 -7 126 7 -5 18 -56 4 -105 2 -155 -8 -40 -8 -93 -17 -118 -21 -25 -3 -54 -8 -66 -11 -18 -5 -22 2 -33 50 -7 31 -17 56 -23 56 -5 0 -8 -6 -5 -14 11 -27 28 -98 25 -100 -25 -16 -63 -26 -66 -17 -10 30 -84 132 -107 147 -14 9 -23 19 -20 22 3 3 38 8 78 11 70 6 72 7 75 34 4 32 7 33 63 8z m-228 -204 c-37 -36 -79 -75 -93 -87 -29 -25 -22 -24 70 8 30 11 71 22 90 26 l35 7 -35 -27 c-19 -15 -63 -56 -97 -91 -35 -35 -63 -59 -63 -53 0 6 26 38 58 70 32 33 52 60 45 60 -27 0 -121 -44 -184 -86 -85 -56 -130 -106 -174 -193 -38 -76 -29 -71 -149 -86 -69 -9 -106 -26 -41 -19 l50 5 -37 -21 c-42 -23 -69 -56 -124 -150 -42 -73 -115 -155 -155 -176 l-27 -13 -4 59 c-5 72 -27 106 -86 137 l-43 21 30 21 c60 43 121 63 197 65 87 1 101 16 16 16 -76 0 -148 -22 -212 -65 -49 -33 -55 -34 -91 -25 -22 6 -39 13 -39 16 0 3 42 46 93 97 50 51 124 132 162 181 101 129 94 124 208 166 l47 18 -24 -29 c-38 -45 -51 -95 -33 -123 35 -53 131 -71 219 -40 26 8 73 38 105 66 84 74 255 240 250 244 -7 8 -234 -28 -330 -52 -54 -13 -116 -33 -138 -44 l-39 -21 45 60 c48 63 99 111 118 111 7 0 -14 -25 -47 -56 -32 -30 -56 -58 -53 -61 3 -3 25 2 49 11 85 32 269 65 367 66 45 0 59 5 88 31 63 55 45 23 -24 -44z m-830 16 c4 -3 -6 -21 -23 -41 -414 -508 -404 -497 -440 -494 -19 1 -36 5 -39 7 -2 3 25 40 60 82 35 43 119 148 188 233 171 213 188 231 220 223 14 -3 29 -8 34 -10z m-140 -38 c-41 -51 -55 -48 -28 5 10 18 23 30 36 30 18 0 18 -2 -8 -35z m207 -34 c0 -9 -84 -124 -186 -256 l-185 -240 -39 2 c-82 4 -83 2 111 243 99 124 199 245 221 270 l41 44 18 -23 c11 -13 19 -31 19 -40z m1298 -15 c-9 -7 -108 -39 -220 -71 -112 -32 -232 -69 -267 -82 -35 -13 -65 -22 -67 -20 -10 10 144 69 262 101 71 19 165 46 209 59 94 29 106 31 83 13z m-1260 -64 l23 -15 -32 -33 c-38 -39 -49 -41 -72 -16 -16 18 -15 21 10 54 16 20 33 33 38 30 6 -3 20 -12 33 -20z m1376 -92 c17 -71 20 -181 7 -214 -6 -17 -18 -18 -122 -17 -256 3 -559 -61 -617 -132 -11 -13 -4 -14 51 -10 38 3 72 1 83 -5 17 -11 17 -11 -6 -12 -25 0 -90 -34 -90 -46 0 -3 10 -4 23 -1 20 5 24 -2 57 -106 47 -151 48 -245 2 -362 -17 -44 -31 -78 -31 -75 -28 243 -69 510 -70 454 -1 -23 10 -113 23 -200 39 -261 40 -279 11 -388 -48 -186 -51 -268 -18 -439 20 -105 11 -128 -70 -168 -33 -17 -90 -50 -126 -74 -79 -53 -157 -75 -263 -75 -112 0 -184 33 -161 75 5 7 58 53 119 103 137 112 199 179 235 257 46 98 52 152 46 445 -6 287 -18 400 -46 464 -21 47 -37 121 -47 219 -8 83 9 155 40 167 12 4 43 16 69 25 26 9 70 32 98 50 27 19 49 29 49 23 0 -5 8 -7 18 -4 9 4 3 -5 -14 -18 -38 -31 -59 -77 -50 -111 9 -36 57 -54 164 -61 71 -5 103 -3 171 15 157 39 311 137 395 249 21 28 42 49 46 47 5 -3 16 -36 24 -75z m1170 19 c121 -22 236 -45 254 -50 39 -13 52 -35 52 -88 0 -47 22 -39 -269 -101 -106 -23 -197 -38 -201 -33 -5 4 -10 28 -12 53 l-3 44 190 43 c247 55 238 53 232 59 -3 3 -101 -15 -218 -42 -139 -30 -214 -43 -217 -36 -9 29 -65 93 -94 108 -18 10 -59 20 -90 23 -80 8 -63 31 34 47 106 17 100 18 342 -27z m-2614 -32 c0 -6 -9 -2 -20 8 -11 10 -20 23 -20 28 0 6 9 2 20 -8 11 -10 20 -23 20 -28z m-32 -10 l22 -23 -38 -37 c-33 -33 -96 -67 -121 -67 -6 0 15 34 47 75 31 41 60 75 63 75 3 0 15 -10 27 -23z m2002 14 c0 -5 -5 -22 -10 -36 l-10 -26 -29 23 c-38 30 -38 36 2 41 17 2 35 5 40 5 4 1 7 -2 7 -7z m-53 -63 c53 -51 78 -120 78 -218 0 -72 -4 -94 -27 -142 -17 -38 -38 -64 -60 -78 -44 -26 -56 -25 -31 3 70 76 94 230 53 340 -12 32 -39 76 -61 99 -21 23 -39 43 -39 44 0 11 60 -22 87 -48z m318 42 c24 0 76 -52 101 -102 56 -110 39 -263 -37 -339 -66 -66 -147 -62 -213 12 -38 41 -45 59 -23 59 8 0 22 9 32 20 10 11 27 20 37 20 10 0 21 7 25 16 3 8 16 20 29 25 37 13 51 52 30 84 -9 14 -23 25 -31 25 -12 0 -15 16 -15 76 0 82 12 119 37 110 8 -3 21 -6 28 -6z m117 -37 c45 -43 72 -118 72 -203 1 -95 -22 -157 -75 -205 -50 -45 -61 -39 -21 12 41 52 56 105 56 193 0 89 -30 165 -85 218 l-34 33 30 -11 c17 -6 42 -23 57 -37z m-535 18 c70 -33 114 -125 115 -247 1 -145 -87 -257 -187 -238 -179 33 -213 396 -46 484 45 24 66 24 118 1z m-2012 -211 c-78 -78 -125 -109 -125 -82 0 23 196 189 209 177 3 -3 -35 -46 -84 -95z m6 69 c-13 -11 -27 -17 -30 -13 -7 7 28 34 43 34 6 -1 0 -10 -13 -21z m-329 -121 c170 -46 308 -85 308 -88 0 -3 -13 -13 -29 -23 -40 -23 -81 -108 -81 -168 0 -25 7 -65 15 -88 12 -35 12 -42 1 -39 -7 2 -105 32 -217 68 l-204 65 -86 85 c-47 47 -98 102 -113 122 l-28 38 19 37 c17 34 70 73 98 73 6 0 148 -37 317 -82z m928 66 c0 -11 -5 -14 -16 -10 -9 3 -20 6 -25 6 -6 0 -7 5 -4 10 10 16 45 12 45 -6z m1795 -33 c-9 -30 -25 -16 -25 22 0 29 1 30 16 15 10 -10 14 -23 9 -37z m463 -211 c1 -135 0 -254 -2 -266 -4 -13 -19 -25 -41 -31 l-35 -11 0 273 0 274 23 4 c54 11 52 21 55 -243z m-1098 221 c0 -19 -48 -33 -220 -68 -53 -10 44 40 120 63 95 28 100 28 100 5z m-1198 3 c35 -6 37 -8 43 -56 4 -27 5 -51 4 -53 -8 -7 -113 25 -121 37 -12 19 -10 52 4 66 14 14 19 14 70 6z m2198 -264 c0 -260 -1 -270 -19 -270 -11 0 -31 4 -45 10 l-26 10 0 249 0 250 33 10 c17 5 38 10 45 10 9 1 12 -59 12 -269z m-113 -177 c-2 -2 -80 15 -173 38 -160 39 -172 40 -229 29 -33 -6 -66 -16 -72 -22 -8 -6 -13 -33 -13 -63 0 -30 5 -57 13 -62 6 -6 52 -21 100 -33 48 -13 84 -26 80 -30 -8 -6 -654 -200 -667 -200 -3 0 -5 129 -4 287 l3 288 53 11 53 12 43 -43 c54 -53 101 -69 178 -61 77 8 114 28 146 81 15 24 34 46 42 47 8 2 30 -14 49 -35 78 -89 215 -103 302 -30 36 31 79 114 79 155 0 14 3 35 8 45 4 10 8 -78 10 -196 1 -118 1 -216 -1 -218z m-887 378 c0 -10 7 -37 14 -59 l15 -42 -37 -9 c-20 -5 -91 -21 -157 -35 -66 -14 -168 -36 -228 -50 l-107 -24 -118 31 c-64 17 -118 31 -120 33 -2 1 -6 18 -9 38 l-6 36 139 0 c112 0 160 5 249 25 371 84 365 83 365 56z m-2521 -53 c20 -24 76 -83 126 -133 l90 -90 177 -55 c98 -30 178 -57 178 -60 0 -3 -33 -22 -73 -43 -90 -46 -142 -89 -213 -178 -56 -71 -83 -86 -130 -75 -37 10 -72 52 -123 148 -44 82 -60 108 -125 200 -65 90 -75 273 -19 316 34 25 74 15 112 -30z m857 -69 c22 -23 29 -40 32 -89 6 -85 -30 -160 -92 -190 -50 -24 -76 -18 -115 24 -50 53 -37 199 23 255 49 46 108 46 152 0z m1564 -362 l0 -334 -39 -11 c-21 -7 -41 -12 -45 -12 -3 0 -6 151 -6 335 l0 334 33 10 c17 5 38 10 45 10 9 1 12 -72 12 -332z m-510 273 l106 -29 84 19 c47 10 88 16 93 13 4 -2 7 -135 7 -294 0 -223 -3 -290 -12 -293 -367 -111 -385 -115 -423 -103 -20 6 -39 16 -42 23 -6 17 33 162 74 272 33 88 37 106 37 197 0 74 -6 116 -21 163 -12 34 -18 62 -14 62 3 0 53 -13 111 -30z m400 -299 l0 -330 -45 16 -45 15 0 308 c0 340 -5 316 63 319 l27 1 0 -329z m-861 135 c12 -133 23 -345 16 -331 -2 6 -14 55 -25 110 -25 118 -36 272 -25 341 7 46 8 47 16 20 4 -15 12 -78 18 -140z m1778 14 c92 -22 171 -40 176 -40 4 0 7 -12 7 -26 0 -20 -4 -25 -17 -22 -205 50 -403 104 -403 110 0 6 23 13 57 17 6 0 87 -17 180 -39z m101 -94 c6 -6 2 -8 -89 -34 l-67 -19 -110 30 -110 30 -4 44 c-2 25 -2 46 -1 47 4 4 374 -92 381 -98z m116 -22 c20 -3 36 -9 36 -13 0 -4 -114 -42 -252 -85 -301 -93 -775 -236 -782 -236 -4 0 -6 14 -6 30 0 22 6 33 23 40 56 23 923 278 934 275 6 -2 28 -7 47 -11z m434 -41 c127 -31 232 -60 232 -63 0 -4 -17 -12 -37 -18 -33 -10 -61 -5 -272 49 -130 34 -238 63 -240 65 -6 5 41 23 64 24 11 0 125 -25 253 -57z m-358 -32 l0 -50 -157 -50 c-87 -27 -277 -86 -423 -131 -146 -45 -382 -119 -526 -166 l-261 -84 -77 26 c-43 15 -74 30 -69 34 8 8 428 140 653 206 69 20 289 87 490 149 201 63 366 114 368 114 1 1 2 -21 2 -48z m270 -15 l245 -63 3 -51 c2 -39 0 -52 -11 -52 -12 0 -287 74 -434 116 l-53 15 0 50 c0 27 1 49 3 49 1 0 112 -29 247 -64z m360 -87 c0 -53 -5 -57 -75 -75 -24 -6 -25 -5 -25 48 l0 54 43 15 c23 8 45 14 50 12 4 -2 7 -27 7 -54z m-2752 -154 c40 -12 53 -21 58 -40 11 -43 -3 -45 -94 -14 -125 42 -122 40 -77 55 53 16 53 16 113 -1z m857 -34 l40 -18 -145 -46 c-80 -25 -158 -49 -173 -53 -15 -3 -26 -11 -24 -17 2 -6 119 -49 261 -95 141 -46 254 -87 251 -91 -4 -3 -27 -13 -51 -21 l-45 -15 -332 111 c-332 111 -332 111 -330 139 3 38 6 39 55 26 40 -11 54 -8 223 43 99 30 191 55 205 55 14 0 43 -8 65 -18z m-953 -16 c40 -15 91 -32 113 -40 l40 -15 -4 -51 c-3 -49 -4 -51 -30 -46 -14 3 -65 20 -112 37 l-87 31 -7 45 c-5 39 -2 64 10 64 2 0 37 -11 77 -25z m654 -219 c137 -47 284 -97 327 -111 l77 -27 0 -59 c0 -41 -4 -59 -12 -59 -7 0 -155 51 -328 113 l-315 114 -3 56 c-2 31 -1 57 1 57 2 0 116 -38 253 -84z m538 -158 c-1 -29 -3 -56 -3 -60 -1 -6 -86 -38 -103 -38 -4 0 -8 27 -8 59 l0 59 43 15 c71 26 74 24 71 -35z"/> <path d="M3311 3841 c-28 -55 -51 -106 -50 -113 0 -7 25 36 55 96 30 59 53 110 50 113 -3 3 -28 -40 -55 -96z"/> <path d="M3010 3731 c0 -5 21 -14 48 -20 26 -7 58 -19 70 -27 13 -9 26 -13 29 -11 8 9 -40 35 -94 51 -29 8 -53 11 -53 7z"/> <path d="M3640 3730 c0 -6 11 -8 25 -4 44 11 91 -5 139 -47 49 -43 65 -41 19 3 -52 47 -76 58 -130 58 -29 0 -53 -5 -53 -10z"/> <path d="M3280 3696 c-25 -6 -54 -18 -65 -25 -19 -12 -18 -12 5 -6 72 19 115 26 220 33 l115 9 -115 1 c-63 0 -135 -5 -160 -12z"/> <path d="M3135 3566 c-14 -31 -29 -76 -35 -99 -12 -51 -13 -197 -2 -197 5 0 6 26 4 58 -5 69 9 144 43 226 31 77 23 87 -10 12z"/> <path d="M3068 3136 c-12 -74 -10 -122 6 -135 15 -13 216 -64 223 -57 5 5 -86 32 -142 42 -72 12 -74 15 -77 112 -3 80 -4 83 -10 38z"/> <path d="M2915 3127 c-17 -42 -19 -105 -4 -127 7 -11 9 -4 4 26 -4 25 -1 57 9 84 19 54 12 67 -9 17z"/> <path d="M3492 3130 c2 -8 18 -22 35 -30 18 -9 28 -21 26 -30 -3 -11 -1 -10 10 3 8 9 28 17 46 17 17 0 31 3 31 8 0 4 -24 7 -54 7 -40 0 -60 5 -76 20 -16 14 -22 16 -18 5z"/> <path d="M3305 3110 c3 -5 14 -42 25 -82 10 -40 19 -62 19 -49 1 35 -30 141 -41 141 -5 0 -7 -4 -3 -10z"/> <path d="M3534 3041 c3 -5 21 -16 40 -25 38 -18 91 -22 81 -6 -3 6 -21 10 -39 10 -18 0 -41 7 -52 15 -21 16 -38 20 -30 6z"/> <path d="M3064 2895 c0 -49 1 -71 3 -48 2 23 2 64 0 90 -2 26 -3 8 -3 -42z"/> <path d="M3600 2973 c0 -5 14 -22 30 -38 17 -16 30 -26 30 -23 0 3 -13 20 -30 38 -16 18 -30 28 -30 23z"/> <path d="M3332 2851 c-1 -30 3 -49 9 -46 11 8 12 65 0 84 -6 9 -9 -4 -9 -38z"/> <path d="M3103 2793 c8 -13 137 -37 164 -31 10 2 -16 9 -58 16 -42 6 -84 15 -94 18 -12 5 -16 4 -12 -3z"/> <path d="M3059 2768 c0 -2 -2 -46 -4 -98 l-3 -95 9 73 c4 40 13 81 18 91 10 18 6 31 -11 31 -4 0 -8 -1 -9 -2z"/> <path d="M3327 2753 c-9 -15 -37 -143 -36 -166 0 -12 11 21 24 73 22 88 25 114 12 93z"/> <path d="M2795 3120 c-4 -19 -20 -59 -36 -89 -35 -67 -31 -80 6 -17 29 49 49 110 42 129 -2 7 -7 -4 -12 -23z"/> <path d="M2300 3124 c-1 -22 73 -131 116 -171 46 -43 88 -58 140 -50 20 3 16 4 -17 6 -29 0 -58 9 -79 24 -37 24 -103 103 -137 163 -12 21 -22 34 -23 28z"/> <path d="M3305 2450 c-54 -6 -50 -7 43 -8 62 -1 102 2 102 8 0 11 -48 11 -145 0z"/> <path d="M2011 2055 c-67 -42 -72 -47 -31 -32 26 10 106 67 90 66 -3 -1 -29 -16 -59 -34z"/> <path d="M2517 1863 c-19 -36 -51 -152 -45 -159 3 -2 11 17 17 43 7 26 21 68 32 92 22 49 19 68 -4 24z"/> <path d="M2601 1506 c-3 -73 -35 -254 -67 -380 -19 -76 -33 -143 -31 -149 5 -17 76 288 93 402 8 58 13 116 11 130 -4 25 -4 25 -6 -3z"/> <path d="M2620 1468 c0 -9 -9 -101 -19 -205 -20 -188 -32 -427 -22 -417 3 3 9 67 12 142 4 75 14 215 24 310 9 96 14 176 11 180 -3 3 -6 -2 -6 -10z"/> <path d="M2967 1713 c-4 -3 -6 -27 -6 -52 l1 -46 9 50 c8 51 7 60 -4 48z"/> <path d="M905 1756 c38 -38 84 -139 111 -244 14 -56 39 -120 58 -152 53 -87 59 -102 72 -160 l12 -55 1 42 c1 31 -10 62 -40 120 -23 43 -50 94 -60 113 -10 19 -25 67 -33 106 -21 103 -102 254 -136 254 -5 0 2 -11 15 -24z"/> <path d="M1721 1645 c-29 -15 -50 -51 -51 -85 -1 -85 103 -96 130 -14 22 66 -27 127 -79 99z m53 -21 c9 -8 16 -28 16 -43 0 -31 -34 -81 -55 -81 -44 0 -61 84 -25 120 24 24 43 25 64 4z"/> </g> </svg>