<?xml version="1.0" standalone="no"?>
<!DOCTYPE svg PUBLIC "-//W3C//DTD SVG 20010904//EN"
 "http://www.w3.org/TR/2001/REC-SVG-20010904/DTD/svg10.dtd">
<svg version="1.0" xmlns="http://www.w3.org/2000/svg"
 width="600.000000pt" height="489.000000pt" viewBox="0 0 600.000000 489.000000"
 preserveAspectRatio="xMidYMid meet">
<g transform="translate(0.000000,489.000000) scale(0.050000,-0.050000)"
fill="#ffffff" stroke="none">
<path d="M3570 9024 l-100 -54 -5 -457 -6 -456 -77 13 c-130 22 -125 -94 8
-172 l70 -42 0 -266 c0 -294 3 -289 -147 -290 -44 0 -61 -13 -79 -60 -22 -59
-74 -84 -74 -35 0 549 -191 1041 -452 1164 -74 36 -519 111 -654 111 -292 0
-596 -380 -734 -915 l-22 -85 -136 13 c-158 14 -202 -20 -202 -155 0 -92 30
-117 175 -145 l115 -23 13 -210 c28 -436 180 -778 396 -889 98 -51 644 -151
731 -133 250 49 492 313 632 687 l39 105 -10 -180 c-6 -99 -38 -323 -71 -498
-110 -581 -26 -1113 197 -1240 122 -69 784 -121 914 -71 70 26 86 10 34 -35
-22 -20 -132 -146 -243 -280 -215 -260 -258 -298 -462 -420 -211 -126 -356
-181 -703 -267 -536 -133 -786 -221 -1165 -411 -388 -195 -986 -578 -1008
-646 -15 -46 39 -16 347 189 157 104 426 262 598 350 l313 161 83 -46 c231
-127 505 -467 588 -730 58 -181 118 -544 94 -565 -37 -34 -457 -123 -768 -162
-347 -44 -455 -66 -543 -111 l-53 -28 49 -87 c27 -49 67 -172 90 -275 22 -103
44 -191 49 -196 26 -26 1 211 -38 364 -57 220 -79 204 363 255 184 22 358 44
388 50 53 12 54 11 28 -45 -18 -39 -22 -103 -14 -209 16 -202 51 -240 281
-309 94 -29 297 -90 451 -138 l280 -86 10 -172 c13 -223 48 -234 56 -17 6 184
2 180 154 127 l100 -35 6 -114 c7 -140 44 -151 44 -13 0 73 8 100 28 100 51 0
92 -24 92 -52 0 -39 20 -35 72 14 59 55 81 38 119 -93 30 -104 59 -146 83
-122 6 7 -21 127 -61 267 -208 737 -240 993 -149 1190 278 601 1169 625 1459
40 105 -211 12 -552 -231 -850 -144 -178 -152 -242 -60 -519 57 -175 85 -113
35 80 -60 235 -59 253 29 350 42 47 174 225 294 395 120 171 331 468 470 660
139 193 279 388 311 435 76 108 -39 127 1222 -196 603 -154 1180 -299 1282
-323 l185 -43 95 81 95 80 0 177 0 177 -690 173 -690 172 -5 524 c-3 287 0
523 6 523 6 0 85 -35 175 -79 615 -294 1233 -390 1332 -204 114 212 118 730
11 1357 -83 484 -83 510 -18 694 l52 145 120 -16 c67 -10 128 -21 136 -26 8
-6 15 -134 16 -285 0 -166 13 -348 32 -456 27 -147 33 -332 33 -1012 l0 -832
93 -358 c187 -726 205 -793 216 -804 37 -36 -6 170 -123 597 l-134 489 -11
830 c-12 888 -12 872 18 794 10 -29 51 -87 89 -129 l70 -77 6 -529 6 -529 167
-610 c92 -335 175 -623 184 -640 39 -67 16 79 -52 330 -38 143 -110 417 -159
608 l-90 349 0 496 c0 391 5 497 26 497 14 0 145 -23 291 -51 320 -61 354 -55
499 99 158 166 297 483 365 827 13 69 33 125 44 125 10 0 132 -19 269 -42
l250 -43 41 41 c47 47 61 246 21 286 -14 14 -140 44 -280 66 l-256 42 -4 280
c-13 825 -185 1026 -882 1029 -150 1 -364 -145 -364 -249 0 -17 -7 -30 -15
-30 -8 0 -12 294 -9 653 7 746 22 688 -192 719 -170 25 -186 21 -339 -90 l-85
-62 0 -493 0 -492 -81 13 c-132 21 -113 -144 22 -191 l59 -21 0 -407 c0 -249
-8 -411 -20 -419 -11 -7 -20 1 -20 18 0 58 -119 170 -197 184 -40 7 -109 28
-153 46 -67 28 -156 35 -284 24 -14 -1 -43 -22 -65 -46 -23 -24 -41 -32 -41
-19 0 38 -150 96 -340 133 -93 17 -189 36 -212 41 -37 7 -44 27 -53 154 -67
866 -1006 936 -1406 105 -50 -105 -101 -190 -113 -190 -12 0 -126 17 -254 38
-303 50 -531 86 -1102 172 -258 39 -531 80 -605 92 l-135 22 -5 993 -5 993
-130 23 c-192 34 -221 31 -330 -29z m330 -23 c0 -44 -123 -81 -229 -69 -124
15 -137 30 -56 62 58 23 285 29 285 7z m93 -116 c-7 -41 -13 -469 -13 -950 0
-481 -7 -875 -17 -875 -9 0 -45 40 -80 88 l-63 89 0 822 0 822 65 39 c99 61
122 53 108 -35z m-249 -17 c18 -12 22 -948 4 -948 -6 0 -37 18 -67 40 -31 21
-79 48 -108 59 l-53 20 0 433 0 433 104 -14 c57 -7 111 -18 120 -23z m-1604
-443 c0 -8 -45 -40 -100 -70 -550 -303 -746 -1657 -319 -2197 68 -85 65 -93
-17 -50 -553 290 -495 1727 89 2206 103 84 348 163 347 111z m220 -35 c0 -5
-32 -23 -71 -39 -565 -236 -785 -1797 -318 -2263 55 -56 21 -66 -67 -20 -647
339 -370 2196 345 2314 44 7 88 14 96 15 8 2 15 -1 15 -7z m7146 -30 c65 -59
-155 -117 -316 -82 l-60 12 90 55 c89 53 236 61 286 15z m-6836 -37 c225 -103
366 -399 413 -870 27 -269 30 -265 -189 -234 -162 23 -173 28 -233 103 -142
177 -341 66 -341 -190 0 -199 160 -296 297 -181 l66 55 172 -24 c220 -31 209
-18 163 -187 -314 -1167 -1250 -1035 -1246 175 4 883 450 1557 898 1353z
m6860 -1494 c-38 -90 -70 -187 -70 -216 0 -29 -10 -53 -23 -53 -15 0 -18 25
-10 75 7 41 13 414 13 829 l0 755 75 51 75 51 5 -664 6 -664 -71 -164z m-185
1368 c35 -19 57 -1077 22 -1077 -7 0 -52 36 -99 80 -48 44 -105 80 -128 80
-39 0 -40 12 -40 481 l0 480 105 -13 c58 -7 121 -21 140 -31z m-5755 -230 c81
-38 140 -84 125 -98 -6 -7 -30 -3 -52 9 -22 12 -68 22 -102 22 -86 0 -201 51
-201 89 0 37 130 25 230 -22z m108 -138 c72 -14 76 -34 66 -326 -8 -221 -10
-226 -51 -212 -24 8 -74 15 -113 17 -93 3 -99 22 -85 310 l11 244 57 -11 c31
-6 83 -16 115 -22z m-2466 -400 c49 -10 61 -142 18 -186 -44 -43 -220 32 -227
96 -7 81 37 126 110 111 26 -6 71 -15 99 -21z m5878 0 c303 -79 490 -331 490
-663 0 -179 -42 -275 -115 -260 -30 6 -262 43 -515 83 -253 39 -521 81 -595
93 -163 26 -165 33 -62 240 121 243 373 470 577 519 89 22 91 22 220 -12z
m-4590 -80 c0 -6 -15 -40 -33 -75 -22 -40 -34 -109 -33 -187 1 -137 -33 -156
-73 -42 -38 110 -22 192 55 280 28 33 84 49 84 24z m96 -33 c34 -34 30 -56
-13 -56 -47 0 -63 17 -49 52 13 34 31 35 62 4z m7544 -24 c0 -2 -49 -55 -109
-117 -442 -456 -610 -1711 -321 -2400 24 -58 -60 -43 -137 25 -436 382 -157
2335 354 2477 53 15 213 26 213 15z m-6708 -107 c-15 -42 -33 -114 -41 -160
-20 -116 -59 -87 -45 33 15 124 47 202 83 202 25 0 26 -10 3 -75z m198 35 c0
-17 -25 -34 -60 -40 -63 -11 -97 -101 -54 -144 30 -30 4 -96 -38 -96 -44 0
-44 1 -18 141 28 146 170 263 170 139z m5530 0 c17 -9 53 -41 80 -71 l50 -55
-60 15 c-33 8 -103 21 -155 30 -91 14 -175 66 -175 106 0 22 211 1 260 -25z
m1233 14 c7 -8 -1 -14 -18 -14 -49 0 -193 -192 -276 -370 -286 -606 -355
-1647 -137 -2073 50 -100 50 -101 -37 -86 -403 68 -403 1531 0 2252 140 249
368 391 468 291z m-7081 -39 c-7 -25 -18 -84 -25 -131 -9 -58 -18 -78 -30 -60
-27 42 11 236 47 236 12 0 15 -19 8 -45z m-419 -36 c276 -42 283 -45 294 -96
16 -82 2 -83 -307 -32 -159 27 -311 49 -336 49 -56 0 -75 43 -44 100 16 31 36
40 67 33 23 -5 170 -30 326 -54z m7756 -7 c128 -136 227 -580 205 -928 -12
-204 9 -189 -214 -151 -185 32 -188 32 -221 -9 -43 -53 -64 -187 -40 -251 20
-52 35 -57 259 -92 160 -25 155 -18 124 -167 -169 -834 -627 -1185 -803 -616
-273 883 278 2651 690 2214z m-6847 -11 c32 -32 52 -63 43 -68 -23 -14 -187
88 -174 109 21 34 72 18 131 -41z m-134 -54 c80 -38 116 -107 108 -207 -4 -48
2 -68 19 -65 105 21 -38 -106 -207 -184 l-152 -70 9 -256 c7 -227 17 -281 84
-489 l75 -235 -92 -186 c-110 -221 -108 -208 -27 -208 36 0 118 -12 182 -25
228 -48 565 58 763 240 113 104 130 93 51 -35 -34 -54 -100 -188 -147 -298
-110 -255 -142 -275 -464 -285 -249 -8 -628 37 -699 83 -195 128 -256 668
-141 1263 34 176 56 365 59 510 3 127 7 242 8 258 3 28 34 26 233 -14 218 -43
420 76 268 157 -100 53 -34 96 70 46z m5674 -38 c10 -6 18 -195 18 -422 l0
-410 -115 14 c-188 23 -176 -9 -169 450 l6 405 121 -13 c66 -7 129 -18 139
-24z m-4756 -149 c939 -146 1256 -196 1714 -270 226 -36 730 -114 1122 -172
l711 -105 -41 -68 c-55 -88 170 -114 -2012 234 -2400 384 -2260 357 -2260 432
0 67 9 67 766 -51z m-658 -92 c28 -11 32 -75 32 -520 l0 -507 -85 -43 c-47
-24 -109 -60 -138 -81 -90 -63 -81 -80 -209 372 -16 56 -28 189 -28 303 l0
203 99 43 c163 70 160 78 163 -455 1 -235 8 -352 18 -317 9 31 14 233 11 450
-5 296 0 406 20 444 14 28 31 66 37 85 11 37 30 42 80 23z m983 -159 c450 -71
911 -145 1024 -162 234 -37 250 -58 160 -215 -71 -124 -89 -128 -279 -61 -162
58 -174 59 -504 53 -475 -8 -648 -72 -877 -324 l-105 -114 -155 -14 -155 -14
0 491 c0 460 2 491 36 491 20 0 405 -59 855 -131z m2931 -87 c282 -52 376 -93
325 -143 -26 -25 -549 62 -561 94 -10 26 4 87 20 87 4 0 101 -17 216 -38z
m558 -113 c0 -54 -50 -87 -83 -54 -14 14 -14 34 2 63 32 59 81 54 81 -9z m180
30 c0 -12 -12 -45 -28 -75 -15 -30 -34 -119 -42 -199 -14 -145 -33 -176 -67
-110 -54 107 -40 291 29 368 37 40 108 51 108 16z m130 -39 c7 -11 -7 -81 -31
-155 -24 -74 -46 -146 -50 -160 -21 -72 -69 -21 -69 74 0 170 97 327 150 241z
m-1968 -80 c668 -106 625 -95 538 -141 -85 -46 -157 -49 -173 -9 -21 56 -45
30 -34 -37 8 -46 -2 -91 -30 -145 -83 -155 -109 -171 -190 -118 -58 38 -327
130 -380 130 -73 0 -22 19 138 52 88 17 168 40 178 50 29 27 -44 22 -169 -13
-129 -35 -471 -61 -549 -41 l-55 14 92 81 c83 73 92 89 92 169 0 48 8 88 17
88 9 0 245 -36 525 -80z m2158 -53 c0 -14 -13 -21 -30 -14 -30 11 -135 -79
-154 -133 -6 -17 -17 -24 -25 -16 -18 17 44 192 86 241 33 39 123 -18 123 -78z
m-560 14 c34 -22 14 -50 -63 -89 -72 -36 -61 -98 22 -114 37 -8 84 -35 103
-60 33 -44 41 -45 158 -26 142 24 377 -2 393 -43 5 -14 -13 -83 -42 -154 -66
-165 -65 -209 19 -675 115 -636 103 -1216 -27 -1346 -104 -104 -460 -59 -941
119 -429 159 -553 249 -651 475 -25 56 -55 125 -67 152 -20 46 -21 43 -23 -39
-2 -163 -234 -329 -712 -509 -236 -89 -273 -97 -235 -47 11 14 44 89 74 167
71 189 157 328 320 520 142 165 199 256 187 293 -4 12 -31 -18 -59 -67 -29
-48 -108 -151 -175 -228 -153 -174 -204 -260 -305 -506 -95 -232 -97 -234
-213 -285 -60 -26 -160 -110 -286 -238 -248 -253 -254 -254 -377 -116 -306
342 -925 609 -1555 671 l-145 14 183 220 c101 121 230 270 286 332 71 77 118
153 150 240 50 138 159 363 208 428 25 34 76 44 369 72 367 36 472 70 526 172
66 123 476 423 545 400 10 -3 -40 -34 -111 -70 -231 -113 -456 -350 -456 -478
1 -83 5 -86 330 -255 165 -86 336 -175 380 -199 103 -54 553 -57 786 -5 263
59 261 60 399 -152 240 -366 505 -558 834 -605 78 -11 113 -29 168 -87 61 -66
67 -68 54 -23 -41 144 -35 373 19 660 97 520 58 882 -106 976 -240 139 -301
444 -100 501 87 25 101 26 136 4z m-585 -125 l285 -43 0 -85 c0 -72 -21 -116
-133 -282 -182 -270 -164 -257 -259 -187 -133 97 -277 160 -459 200 -213 47
-203 31 -115 179 66 113 87 131 215 191 172 82 126 80 466 27z m1335 4 c88
-12 176 -27 195 -33 46 -13 48 -123 3 -140 -32 -13 -523 61 -544 82 -24 24
105 133 146 124 22 -6 112 -20 200 -33z m-4030 0 c0 -11 -14 -20 -31 -20 -106
0 -387 -213 -460 -350 -35 -64 -45 -70 -99 -58 -95 20 -90 35 51 181 133 138
539 324 539 247z m5746 -210 c533 -83 505 -77 500 -121 -16 -144 -21 -170 -31
-181 -18 -17 -799 112 -831 138 -33 26 -9 214 28 214 5 0 155 -23 334 -50z
m-2692 -113 c62 -59 63 -56 -84 -268 -157 -225 -164 -230 -223 -161 l-47 55
82 113 c45 63 109 157 142 209 68 109 68 109 130 52z m3306 -52 c-1 -86 -22
-145 -52 -145 -33 0 -38 104 -7 161 30 56 59 48 59 -16z m-3044 -186 c49 -158
24 -799 -31 -799 -6 0 -57 44 -113 97 -57 53 -141 118 -187 145 -68 38 -91 67
-117 144 -39 117 -46 98 142 360 l154 215 62 -36 c44 -26 71 -63 90 -126z
m-862 -21 c182 -111 326 -273 358 -404 13 -55 11 -56 -54 -46 -38 6 -135 21
-217 32 -147 21 -201 44 -201 86 0 42 -157 285 -244 379 -49 52 -86 99 -82
103 15 15 365 -104 440 -150z m-294 -2028 l0 -751 45 -17 c25 -10 315 -82 645
-162 330 -79 623 -150 650 -158 45 -14 95 -262 52 -262 -10 0 -355 89 -822
212 -143 38 -543 140 -890 228 -789 199 -800 202 -800 218 0 22 122 182 138
182 8 0 161 -40 340 -90 179 -49 333 -90 344 -90 10 0 18 248 18 601 l0 602
125 118 c69 65 132 118 140 119 8 0 15 -338 15 -750z m160 600 c47 -29 25
-1172 -23 -1224 -24 -25 -51 -46 -60 -46 -10 0 -17 322 -16 715 l1 715 39 -74
c21 -40 48 -79 59 -86z m-3260 -93 c612 -86 1456 -595 1368 -825 -10 -25 -51
4 -179 126 -406 384 -1015 636 -1568 649 -127 3 -156 29 -76 70 47 23 193 17
455 -20z m2740 -31 c0 -7 -17 -32 -37 -55 -20 -22 -153 -203 -294 -401 -142
-198 -416 -580 -610 -850 -615 -857 -652 -909 -665 -945 -7 -19 -22 -35 -33
-35 -25 0 -28 45 -4 71 9 10 55 123 102 249 70 188 113 268 238 439 84 114
347 479 583 810 l430 601 130 64 c136 67 160 75 160 52z m-2784 -108 c536
-103 1071 -390 1327 -712 l60 -76 -13 -210 c-20 -320 -151 -880 -206 -880 -8
0 -44 59 -81 130 -293 566 -1162 612 -1475 78 -48 -81 -110 -110 -69 -32 9 19
28 75 41 124 32 121 126 306 199 395 33 40 56 77 50 82 -20 20 -135 -112 -202
-232 l-71 -125 -60 35 c-138 81 -262 274 -318 495 -31 125 -57 113 -34 -15 37
-207 192 -443 346 -530 33 -18 35 -32 19 -96 l-19 -75 -217 -49 c-120 -26
-318 -79 -440 -118 -333 -105 -302 -106 -309 14 -26 473 -249 887 -621 1159
-125 90 -148 120 -93 120 17 0 136 37 265 81 129 45 366 112 526 148 334 77
553 158 739 272 l130 80 160 -12 c88 -7 253 -30 366 -51z m2817 -370 c-5 -215
-14 -396 -19 -400 -7 -8 -403 78 -468 102 -19 6 321 522 438 665 53 64 60 14
49 -367z m-428 286 c-49 -55 -892 -1233 -969 -1353 -64 -101 -68 -90 -26 73
17 64 36 211 42 326 16 320 36 388 135 462 46 35 160 142 253 238 165 169 175
176 360 239 105 35 199 73 210 83 39 38 34 -25 -5 -68z m185 -701 c245 -64
311 -120 236 -195 -22 -22 -606 140 -606 168 0 102 68 107 370 27z m1447 -354
c663 -163 677 -168 642 -211 -65 -78 -81 -76 -727 82 -702 172 -696 170 -643
229 55 61 100 54 728 -100z m706 -349 c0 -89 -56 -190 -106 -190 -49 0 -16
217 38 257 68 49 68 48 68 -67z m-5259 -415 c-7 -170 55 -585 109 -724 10 -28
5 -33 -25 -25 -952 266 -1468 439 -1468 494 0 60 728 301 1210 400 99 20 180
37 181 38 0 1 -3 -81 -7 -183z m-1268 -383 c84 -42 1155 -369 1319 -402 57
-11 68 -25 95 -115 57 -193 22 -226 -167 -158 -109 38 -700 223 -1071 333
-265 79 -312 128 -312 325 0 78 13 79 136 17z"/>
<path d="M3830 5048 c-70 -60 -285 -168 -334 -168 -18 0 -40 -10 -48 -23 -23
-38 108 -4 242 63 129 65 277 180 229 179 -16 0 -56 -23 -89 -51z"/>
<path d="M4745 5278 c-36 -11 -65 -27 -65 -37 0 -11 27 -10 65 1 91 26 313 28
338 3 15 -15 4 -47 -38 -108 -58 -85 -145 -244 -145 -266 0 -39 39 3 78 84 25
52 71 126 101 165 83 107 89 138 29 161 -63 24 -276 22 -363 -3z"/>
<path d="M5200 5241 c0 -11 36 -29 80 -41 222 -60 333 -296 250 -529 -35 -98
-25 -113 23 -39 65 98 52 323 -24 431 -77 110 -329 247 -329 178z"/>
<path d="M4550 4887 c-96 -26 -76 -50 31 -37 164 20 299 -19 244 -70 -40 -37
-185 -263 -185 -288 0 -38 45 -1 78 65 22 42 72 119 111 170 l70 93 -51 33
c-52 34 -224 54 -298 34z"/>
<path d="M7169 4831 c21 -17 47 -31 56 -31 10 0 58 -27 106 -61 49 -33 89 -52
89 -41 0 30 -165 138 -232 152 -55 12 -56 11 -19 -19z"/>
<path d="M4940 4820 c-17 -10 -2 -21 42 -30 98 -21 208 -81 299 -163 43 -39
79 -63 79 -52 0 88 -347 290 -420 245z"/>
<path d="M6220 4826 c0 -29 127 -139 180 -156 71 -22 69 5 -3 41 -37 18 -92
57 -122 85 -30 28 -55 42 -55 30z"/>
<path d="M4292 4680 c-67 -122 -34 -134 37 -13 55 93 61 113 34 113 -9 0 -41
-45 -71 -100z"/>
<path d="M4255 4546 c-100 -16 -57 -46 60 -42 114 3 265 -33 265 -63 0 -8 -31
-55 -70 -103 -71 -90 -84 -118 -52 -118 25 0 162 193 162 228 0 58 -227 119
-365 98z"/>
<path d="M6204 4538 c12 -35 128 -104 159 -94 13 5 -12 30 -55 57 -105 65
-114 68 -104 37z"/>
<path d="M4133 4366 c-58 -114 -64 -135 -33 -116 31 19 103 170 94 196 -4 13
-32 -23 -61 -80z"/>
<path d="M4672 4444 c-15 -25 33 -44 108 -44 31 0 118 -32 192 -70 151 -79
184 -80 83 -3 -117 89 -355 162 -383 117z"/>
<path d="M5349 4357 c-19 -37 -96 -126 -172 -199 -75 -72 -137 -142 -137 -154
0 -36 315 276 341 339 35 83 9 94 -32 14z"/>
<path d="M7832 4276 c82 -159 468 -488 468 -399 0 9 -21 26 -47 38 -90 41
-287 222 -352 323 -72 112 -121 140 -69 38z"/>
<path d="M9040 3535 c0 -36 13 -110 28 -165 16 -55 83 -304 149 -554 159 -596
182 -673 204 -687 29 -17 31 -27 -149 659 -93 353 -175 680 -182 727 -16 100
-50 114 -50 20z"/>
</g>
</svg>
