<?xml version="1.0" standalone="no"?> <!DOCTYPE svg PUBLIC "-//W3C//DTD SVG 20010904//EN" "http://www.w3.org/TR/2001/REC-SVG-20010904/DTD/svg10.dtd"> <svg version="1.0" xmlns="http://www.w3.org/2000/svg" width="600.000000pt" height="489.000000pt" viewBox="0 0 600.000000 489.000000" preserveAspectRatio="xMidYMid meet"> <g transform="translate(0.000000,489.000000) scale(0.100000,-0.100000)" fill="#ffffff" stroke="none"> <path d="M3232 4531 c-152 -52 -218 -196 -192 -420 11 -100 43 -222 70 -267 l18 -32 -59 -30 c-52 -27 -63 -29 -96 -20 -103 28 -234 -13 -318 -100 -29 -30 -59 -52 -71 -52 -11 0 -42 -6 -68 -14 -35 -11 -48 -11 -51 -3 -42 149 -45 169 -45 256 l0 94 46 -51 c52 -58 75 -68 161 -71 75 -3 102 10 169 81 70 73 89 132 89 268 0 94 -3 111 -27 160 -35 71 -100 137 -146 150 -54 15 -139 12 -173 -5 -35 -18 -83 -82 -99 -131 -8 -23 -18 -34 -31 -34 -10 0 -22 0 -26 -1 -3 0 -14 24 -23 54 -34 110 -83 147 -192 147 -53 0 -77 -6 -127 -31 -71 -36 -111 -86 -132 -170 -9 -35 -18 -49 -30 -49 -51 0 -65 -68 -20 -101 22 -16 30 -32 35 -68 11 -84 77 -191 118 -191 5 0 21 -9 36 -20 18 -13 51 -22 94 -27 l66 -6 -20 -66 c-51 -174 -57 -284 -22 -430 24 -98 44 -113 186 -140 180 -33 223 -35 303 -13 39 10 78 22 87 26 28 12 44 -46 51 -179 4 -82 12 -141 27 -185 18 -56 21 -88 20 -223 0 -137 -3 -164 -20 -197 -11 -21 -28 -41 -37 -44 -10 -3 -74 -10 -143 -16 -303 -27 -538 -93 -783 -217 -123 -63 -142 -84 -153 -172 -12 -98 37 -413 111 -711 72 -294 71 -336 -18 -416 -68 -61 -151 -116 -207 -137 -138 -52 -178 -126 -84 -157 57 -19 194 -4 289 32 62 24 104 32 190 38 188 12 205 33 159 204 -26 100 -29 126 -28 261 0 135 3 159 28 240 46 150 38 276 -29 429 -8 19 -4 19 131 13 76 -4 152 -11 168 -15 25 -7 26 -9 12 -21 -24 -20 -22 -132 2 -153 9 -9 78 -28 152 -43 74 -15 137 -29 139 -31 3 -2 -7 -109 -22 -237 -15 -127 -32 -285 -39 -350 -11 -112 -13 -118 -32 -114 -12 2 -60 12 -108 22 -93 20 -129 15 -198 -26 -28 -18 -30 -22 -30 -83 0 -36 4 -67 9 -70 11 -7 846 -196 865 -196 28 0 27 -20 -2 -63 -17 -23 -35 -61 -42 -84 -11 -36 -11 -46 4 -67 9 -14 28 -29 42 -32 45 -11 187 4 247 26 66 25 88 51 98 119 3 25 12 67 20 93 11 40 11 55 0 90 -7 24 -14 66 -16 93 -1 28 -6 84 -10 125 -6 68 14 264 30 289 2 5 166 -24 362 -64 l358 -73 60 32 60 31 3 72 c3 68 2 73 -20 78 -13 3 -115 23 -227 45 -112 22 -207 43 -211 47 -13 15 -40 545 -29 559 6 8 9 45 8 88 -3 71 -2 76 23 95 15 12 29 34 32 49 3 15 19 243 36 507 17 264 33 499 36 522 l5 41 57 -26 c53 -24 72 -27 269 -35 197 -8 215 -8 250 10 39 19 43 27 62 129 22 121 5 253 -58 438 -17 50 -31 92 -31 94 0 3 20 2 44 -1 63 -9 104 6 159 60 53 52 91 118 102 176 5 26 12 37 25 37 45 0 55 86 13 105 -15 6 -25 21 -29 45 -12 73 -35 127 -80 183 -55 71 -90 87 -186 87 -97 0 -135 -24 -176 -112 -17 -35 -33 -71 -36 -81 -4 -13 -14 -17 -33 -15 -23 3 -28 10 -38 53 -28 124 -88 175 -206 175 -48 0 -148 -37 -183 -68 -25 -23 -62 -99 -77 -156 -8 -33 -16 -46 -29 -46 -45 0 -55 -86 -13 -105 22 -9 26 -20 38 -100 3 -22 18 -62 33 -90 22 -42 37 -55 87 -79 32 -16 86 -32 120 -36 79 -10 118 8 165 79 31 47 36 50 47 34 35 -47 54 -247 34 -345 -7 -32 -13 -58 -14 -58 -1 0 -24 11 -51 25 -27 14 -57 25 -67 25 -12 0 -37 28 -68 74 -90 132 -155 170 -296 169 -83 -1 -93 1 -125 26 -19 15 -67 46 -106 69 -59 34 -72 47 -78 73 -11 58 -6 108 19 186 38 113 43 213 16 285 -54 142 -209 211 -359 159z m231 -39 c65 -36 113 -109 123 -188 7 -63 2 -100 -32 -207 -26 -85 -30 -153 -13 -225 12 -50 29 -78 29 -49 0 9 2 17 4 17 15 0 186 -115 186 -125 0 -2 -24 -11 -53 -19 -29 -8 -63 -26 -76 -40 -19 -20 -36 -25 -104 -31 -154 -13 -270 -47 -308 -91 -21 -24 -62 -147 -84 -250 -21 -94 -13 -123 43 -161 44 -29 169 -56 262 -57 95 0 134 19 215 106 185 196 241 246 281 253 21 4 80 18 129 32 104 29 149 27 225 -12 l50 -25 0 -83 c1 -55 6 -90 16 -107 15 -25 15 -25 7 10 -13 57 -8 160 11 235 15 56 17 92 13 175 -9 155 -24 196 -92 248 -60 46 -75 72 -75 132 0 39 23 75 41 65 5 -4 9 -29 9 -56 0 -47 2 -50 21 -44 12 4 41 2 64 -5 41 -11 44 -15 50 -54 16 -103 66 -195 122 -221 29 -14 36 -26 68 -126 46 -143 65 -235 64 -312 -1 -79 -20 -190 -37 -209 -19 -24 -71 -27 -278 -19 l-192 7 -73 36 c-41 20 -93 53 -116 73 l-43 37 0 -34 c0 -49 -79 -198 -165 -313 -89 -119 -110 -176 -121 -328 l-7 -105 -31 -7 c-181 -39 -419 -47 -554 -19 -71 15 -182 59 -182 73 0 232 -8 371 -24 411 -11 29 -20 85 -23 154 -6 105 -5 109 13 102 55 -23 86 -26 150 -16 110 18 121 29 140 139 8 43 27 119 44 169 36 108 37 132 8 159 -84 76 -175 69 -335 -27 -70 -42 -68 -30 1 15 58 37 106 57 174 75 45 12 51 23 26 51 -9 10 -13 23 -9 29 10 16 125 71 135 65 6 -4 11 -25 12 -48 l1 -42 6 50 6 50 48 7 c93 13 247 125 247 179 0 8 -11 -4 -24 -26 -36 -59 -165 -135 -243 -142 -74 -7 -86 6 -120 119 -30 101 -43 299 -24 383 38 169 239 254 394 167z m-1353 -54 c-59 -77 -85 -168 -84 -293 1 -107 15 -160 60 -228 14 -22 24 -41 22 -43 -2 -2 -20 5 -39 15 -23 12 -43 36 -64 76 -29 57 -30 63 -30 194 1 118 4 144 24 195 31 77 84 136 122 136 l29 0 -40 -52z m158 32 c34 -21 77 -98 84 -150 3 -22 -2 -26 -41 -36 -26 -6 -50 -19 -59 -32 -8 -12 -25 -22 -37 -22 -24 0 -35 -17 -35 -54 0 -27 18 -46 43 -46 17 0 19 -5 14 -35 -3 -19 -2 -47 2 -62 5 -18 2 -52 -8 -93 -15 -61 -18 -65 -47 -68 -70 -7 -144 136 -144 277 0 134 52 271 120 317 42 29 65 30 108 4z m312 -37 c-40 -46 -65 -99 -86 -189 -28 -118 -3 -288 52 -361 24 -31 24 -33 5 -33 -11 0 -35 18 -54 40 -61 72 -89 210 -67 337 22 131 94 243 157 243 l25 0 -32 -37z m168 9 l26 -17 -58 -5 c-54 -5 -62 -9 -97 -49 -51 -57 -73 -131 -73 -241 0 -151 53 -245 144 -257 39 -6 41 -7 25 -20 -11 -7 -38 -13 -61 -13 -57 0 -96 34 -125 108 -19 48 -23 76 -23 182 0 142 20 211 77 277 55 63 106 74 165 35z m-752 -53 c-51 -110 -58 -300 -17 -408 21 -57 15 -65 -16 -23 -77 105 -68 352 18 455 17 21 33 36 35 34 2 -2 -7 -28 -20 -58z m682 -17 c-89 -95 -111 -308 -43 -429 27 -50 18 -56 -18 -13 -83 98 -74 342 16 438 22 24 58 43 66 36 3 -2 -7 -17 -21 -32z m111 13 c115 -59 101 -418 -19 -480 -43 -22 -69 -18 -100 15 -93 100 -67 394 42 460 39 24 41 24 77 5z m1341 -4 c0 -5 -7 -11 -15 -14 -24 -10 -73 -106 -91 -179 -12 -52 -15 -96 -12 -176 5 -113 22 -171 65 -229 26 -36 18 -41 -27 -18 -36 18 -64 64 -85 139 -24 82 -16 255 15 344 27 77 84 142 123 142 15 0 27 -4 27 -9z m134 -29 c32 -30 63 -92 68 -137 3 -26 0 -30 -25 -33 -20 -3 -35 -14 -49 -38 -17 -30 -25 -34 -46 -29 -53 13 -85 -60 -38 -90 14 -9 27 -30 30 -50 5 -23 20 -46 48 -70 l42 -36 -19 -35 c-84 -157 -220 -84 -244 131 -17 147 15 298 77 367 59 65 101 71 156 20z m346 22 c0 -3 -16 -24 -35 -47 -65 -76 -100 -208 -92 -347 6 -100 27 -171 68 -222 24 -30 26 -38 14 -38 -34 0 -78 44 -108 108 -26 56 -31 80 -35 166 -2 57 1 126 7 157 14 66 60 167 89 192 25 22 92 45 92 31z m144 -34 l20 -20 -51 0 c-44 0 -58 -5 -86 -30 -91 -79 -122 -316 -60 -448 22 -47 67 -80 118 -88 37 -5 43 -9 34 -20 -7 -9 -32 -14 -69 -14 -53 0 -60 3 -88 34 -50 57 -67 124 -67 261 0 136 15 202 65 277 17 25 45 53 63 62 40 20 93 14 121 -14z m-770 -37 c-68 -140 -72 -383 -8 -481 22 -33 9 -40 -21 -12 -54 51 -83 192 -65 319 12 84 34 141 74 189 39 46 47 40 20 -15z m701 -27 c-77 -77 -104 -276 -58 -416 8 -25 22 -53 31 -62 14 -16 14 -18 -1 -18 -21 0 -62 51 -79 97 -19 57 -16 236 7 298 23 67 51 104 89 120 40 17 43 13 11 -19z m113 8 c12 -8 31 -33 42 -55 23 -44 42 -131 32 -140 -4 -4 -34 -3 -67 1 -53 7 -62 6 -77 -12 -21 -23 -24 -68 -6 -86 7 -7 39 -12 75 -12 76 0 82 -8 57 -82 -21 -65 -80 -128 -118 -128 -60 0 -105 81 -114 202 -11 168 55 325 138 328 9 0 26 -7 38 -16z m-2384 -17 c-4 -7 -13 -19 -21 -28 -10 -12 -11 -23 -3 -43 5 -15 10 -36 10 -47 0 -24 -29 -37 -40 -18 -11 17 -2 31 13 23 7 -3 4 1 -5 9 -10 8 -18 19 -18 25 0 16 33 86 45 94 13 10 27 -1 19 -15z m-61 -23 c-9 -14 -16 -46 -16 -70 0 -61 -21 -51 -25 12 -2 39 2 54 18 72 27 29 45 19 23 -14z m-60 -41 c-3 -32 -6 -59 -7 -60 -1 -1 -10 6 -21 14 -16 13 -17 15 -2 10 18 -7 24 8 7 18 -10 6 -7 45 5 65 16 25 23 5 18 -47z m-403 2 c0 -39 -14 -46 -30 -16 -12 23 -3 51 16 51 9 0 14 -12 14 -35z m517 8 c-4 -3 -7 0 -7 7 0 7 3 10 7 7 3 -4 3 -10 0 -14z m-167 -31 c0 -34 -7 -43 -26 -35 -8 3 -14 18 -14 34 0 22 5 29 20 29 15 0 20 -7 20 -28z m2124 -59 c-7 -21 -13 -53 -14 -70 0 -42 -26 -44 -35 -3 -8 36 10 96 33 109 26 15 31 4 16 -36z m-58 2 c-11 -36 -20 -43 -31 -24 -12 18 4 59 24 59 16 0 17 -4 7 -35z m98 -18 c-6 -43 -24 -61 -38 -39 -6 9 32 97 39 90 3 -3 2 -26 -1 -51z m-2095 14 c10 -6 11 -13 2 -29 -6 -11 -11 -29 -11 -39 0 -11 7 -4 18 17 13 27 24 36 48 38 31 3 32 3 43 -59 8 -45 7 -67 -1 -83 -19 -36 -13 -212 10 -286 35 -114 35 -117 6 -136 -28 -19 -97 -104 -90 -112 3 -2 18 11 33 29 63 76 115 110 186 123 34 6 48 2 112 -35 81 -46 85 -52 85 -148 l0 -64 -45 5 c-59 7 -58 -8 1 -17 45 -6 45 -7 42 -43 -3 -34 -6 -37 -58 -56 -40 -14 -79 -20 -145 -19 -105 1 -279 34 -314 61 -37 27 -62 133 -62 257 -1 87 5 124 45 279 40 154 46 188 40 238 -8 74 13 105 55 79z m1551 -37 c0 -24 -4 -34 -12 -32 -24 8 -22 68 2 68 5 0 10 -16 10 -36z m345 -11 c-8 -35 -13 -39 -26 -26 -15 15 -2 53 18 53 12 0 14 -6 8 -27z m675 -12 c37 -5 46 -10 48 -30 2 -13 0 -27 -5 -32 -4 -4 -48 -5 -98 -1 -84 7 -90 9 -93 30 -2 13 -1 30 2 38 5 14 8 14 146 -5z m-576 -26 c3 -8 1 -15 -4 -15 -6 0 -10 7 -10 15 0 8 2 15 4 15 2 0 6 -7 10 -15z m94 -13 c2 -12 -1 -22 -6 -22 -15 0 -34 28 -27 40 10 17 30 6 33 -18z m-545 -329 c-7 -2 -19 -2 -25 0 -7 3 -2 5 12 5 14 0 19 -2 13 -5z m77 -23 c46 -25 34 -25 -21 0 -24 11 -37 19 -29 19 8 0 31 -8 50 -19z m-275 -116 c39 -31 90 -69 114 -85 25 -16 41 -29 37 -29 -15 0 -52 23 -111 70 -33 26 -78 59 -99 74 -21 14 -32 26 -25 26 8 0 46 -25 84 -56z m182 -121 c-4 -3 -10 -3 -14 0 -3 4 0 7 7 7 7 0 10 -3 7 -7z m40 -10 c-4 -3 -10 -3 -14 0 -3 4 0 7 7 7 7 0 10 -3 7 -7z m103 -295 c28 -20 29 -24 25 -77 -3 -31 -17 -231 -31 -446 -41 -635 -37 -595 -68 -622 -15 -13 -39 -23 -52 -23 -25 0 -26 2 -20 48 5 43 58 738 72 957 5 80 28 185 40 185 3 0 18 -10 34 -22z m-115 -506 c-54 -720 -47 -657 -70 -654 -42 6 -45 10 -45 72 0 77 -21 181 -61 296 -26 77 -30 102 -29 190 0 119 17 183 64 251 19 26 63 90 98 141 36 53 64 86 66 77 2 -8 -9 -176 -23 -373z m-942 -206 c91 -44 205 -59 387 -52 97 3 187 13 240 25 47 11 88 16 91 13 16 -17 68 -185 79 -255 18 -112 8 -196 -34 -283 -20 -38 -44 -78 -54 -87 -18 -16 -18 -14 -18 61 -1 58 -6 89 -23 127 -84 190 -309 231 -453 83 -52 -54 -53 -42 -1 40 20 32 58 70 98 99 71 52 82 72 12 24 -58 -39 -130 -120 -156 -174 -11 -23 -26 -73 -34 -112 l-14 -70 -64 -6 c-35 -3 -118 -15 -184 -27 -66 -11 -158 -24 -204 -27 -70 -6 -83 -4 -78 8 14 38 18 132 7 199 -16 98 -66 201 -130 264 l-51 51 58 12 c32 6 112 16 178 22 212 18 206 17 245 60 19 21 37 37 40 36 3 -2 31 -16 63 -31z m-573 -131 c68 -50 130 -159 151 -265 13 -67 8 -205 -9 -222 -7 -7 -60 -6 -181 7 -94 9 -184 14 -202 10 -35 -8 -35 -6 7 -105 44 -105 45 -216 4 -376 -30 -119 -32 -134 -28 -263 4 -111 9 -154 32 -233 44 -152 32 -169 -129 -175 -83 -3 -114 -9 -185 -36 -79 -30 -94 -32 -205 -32 -115 0 -120 1 -123 22 -4 26 43 64 114 91 66 25 145 77 216 144 97 91 98 123 13 478 -61 257 -111 577 -100 654 11 84 22 95 162 168 113 59 370 157 414 158 8 0 30 -11 49 -25z m1098 -185 c104 -47 163 -167 147 -298 -6 -51 -12 -62 -53 -100 -25 -23 -50 -41 -56 -39 -6 2 -14 19 -18 38 -4 21 -5 10 -2 -26 2 -34 18 -92 35 -134 19 -45 35 -108 42 -162 10 -80 9 -102 -12 -212 -45 -240 -53 -308 -46 -392 4 -44 8 -105 9 -135 1 -30 7 -65 14 -77 16 -29 15 -69 -3 -118 -8 -22 -14 -57 -15 -78 0 -58 -38 -90 -127 -111 -103 -23 -195 -22 -218 4 -23 25 -15 56 35 140 22 36 53 99 70 140 30 72 32 82 33 225 2 171 -5 205 -79 394 -45 112 -47 122 -59 281 -11 142 -17 174 -41 230 -25 56 -29 78 -29 160 0 87 3 100 29 148 33 59 85 105 143 127 56 20 150 18 201 -5z m375 -156 c20 -4 37 -9 37 -13 0 -7 -140 -61 -140 -53 0 2 5 22 12 44 10 33 15 38 32 34 12 -3 38 -9 59 -12z m57 -83 l0 -59 -132 -52 c-73 -28 -144 -55 -157 -61 -40 -17 -34 -4 22 44 29 24 61 61 72 80 17 33 52 52 193 106 1 1 2 -26 2 -58z m-830 -65 c0 -19 7 -53 15 -76 8 -23 15 -48 15 -55 0 -25 -61 -27 -183 -5 -281 50 -441 80 -445 84 -9 10 79 26 191 36 65 6 150 17 190 26 80 17 198 32 210 26 4 -2 7 -18 7 -36z m810 -33 c0 -5 7 -111 15 -238 8 -126 16 -250 17 -274 3 -38 -1 -47 -24 -64 -15 -11 -30 -19 -32 -16 -4 4 -36 487 -36 545 0 22 6 34 23 42 27 13 37 14 37 5z m-79 -35 c0 -7 8 -137 18 -288 10 -151 16 -277 15 -278 -4 -6 -114 19 -114 26 0 4 -7 108 -15 232 -8 124 -15 237 -15 251 0 22 8 30 48 47 57 25 62 25 63 10z m-1186 -28 c66 -12 180 -32 254 -46 73 -14 159 -24 190 -23 51 3 57 1 68 -22 7 -13 13 -38 13 -56 0 -29 -4 -33 -37 -42 -21 -6 -50 -11 -64 -11 -57 0 -559 98 -576 112 -8 6 -13 34 -13 65 0 52 1 55 23 50 12 -4 76 -16 142 -27z m1058 -102 c4 -51 10 -146 13 -212 l7 -118 -44 7 c-58 10 -59 10 -59 54 0 60 -17 137 -46 204 -40 94 -39 95 41 127 39 16 73 29 76 29 3 1 9 -41 12 -91z m-823 -89 c36 -8 50 -15 50 -27 0 -9 -7 -89 -16 -177 -44 -438 -62 -596 -67 -601 -9 -9 -129 20 -134 32 -2 7 12 158 32 336 20 177 39 351 42 386 6 70 6 70 93 51z m302 -121 c5 -106 8 -121 56 -244 60 -153 86 -280 79 -377 -2 -37 -7 -70 -10 -73 -5 -5 -325 60 -331 68 -2 1 0 37 5 78 48 429 69 623 69 631 0 5 15 9 33 10 17 0 41 4 52 9 40 17 42 13 47 -102z m-164 94 c10 -7 9 -33 -2 -133 -8 -68 -24 -214 -35 -324 -31 -302 -26 -279 -68 -299 -19 -9 -38 -15 -40 -12 -4 4 0 57 48 516 28 273 25 260 57 260 15 0 33 -4 40 -8z m710 -265 c4 -31 -5 -33 -74 -16 -47 12 -47 12 -38 45 5 20 8 21 57 10 46 -10 52 -15 55 -39z m431 -52 c238 -46 238 -46 184 -73 l-41 -22 -198 40 c-108 22 -199 42 -201 44 -4 3 57 45 66 46 3 0 88 -16 190 -35z m-383 -6 c82 -16 229 -45 326 -64 98 -18 182 -36 188 -40 5 -3 10 -28 10 -56 0 -40 -3 -49 -17 -49 -10 1 -169 31 -353 69 l-335 67 2 40 c3 46 9 64 21 64 5 0 76 -14 158 -31z m634 -107 l0 -58 -44 -21 -44 -22 -4 51 c-1 27 -1 53 2 58 4 6 78 48 88 50 1 0 2 -26 2 -58z m-1721 -256 c13 -8 0 -68 -13 -63 -7 3 -74 18 -149 33 -75 16 -137 32 -137 36 0 4 19 16 42 26 42 18 44 18 146 -5 57 -12 107 -25 111 -27z m51 -92 c184 -41 368 -82 408 -91 l72 -16 0 -54 c0 -32 -4 -53 -11 -53 -10 0 -707 157 -806 182 l-43 10 0 54 c0 51 1 54 23 49 12 -3 173 -39 357 -81z m396 1 c87 -19 162 -39 167 -44 6 -6 -6 -17 -31 -30 l-41 -21 -163 37 c-90 20 -167 40 -172 44 -7 6 56 47 75 49 3 0 77 -16 165 -35z m169 -92 c-4 -10 -16 -42 -27 -70 -27 -73 -38 -75 -38 -6 0 53 3 60 28 75 35 22 46 22 37 1z"/> <path d="M3402 3821 c-7 -16 -35 -66 -63 -111 -27 -46 -48 -87 -47 -91 3 -9 122 181 134 214 11 29 -10 19 -24 -12z"/> <path d="M3954 3321 c63 -65 144 -102 234 -108 42 -3 87 -1 99 4 14 5 -9 8 -70 8 -81 0 -98 3 -147 28 -30 16 -73 46 -95 68 -53 51 -71 51 -21 0z"/> <path d="M3865 3239 c82 -22 111 -24 121 -7 5 8 2 9 -10 5 -10 -4 -47 0 -82 8 -92 21 -113 17 -29 -6z"/> <path d="M3000 3049 c-14 -6 -36 -20 -49 -32 -27 -25 -71 -113 -71 -142 0 -11 11 6 25 39 29 72 67 113 117 127 21 5 38 12 38 14 0 8 -33 4 -60 -6z"/> <path d="M3645 3035 c-16 -13 -51 -29 -77 -35 -26 -7 -48 -16 -48 -20 0 -15 101 18 136 45 19 14 34 28 34 31 0 10 -17 2 -45 -21z"/> <path d="M3150 3042 c0 -4 15 -14 34 -20 19 -7 52 -32 74 -56 41 -45 102 -153 102 -181 0 -8 5 -15 11 -15 21 0 -26 103 -80 178 -40 54 -141 122 -141 94z"/> <path d="M3081 2999 c-13 -39 -14 -168 -1 -189 6 -10 7 7 3 52 -3 39 -1 86 6 113 14 55 8 71 -8 24z"/> <path d="M3580 2935 c-12 -19 -31 -40 -42 -46 -11 -6 -17 -13 -14 -17 3 -3 17 5 31 18 16 15 30 20 42 16 14 -6 15 -5 6 5 -9 9 -9 18 -2 31 19 36 2 30 -21 -7z"/> <path d="M3665 2931 c-6 -5 -19 -11 -30 -14 -20 -5 -19 -5 1 -6 11 0 29 6 40 14 10 8 14 15 9 15 -6 0 -15 -4 -20 -9z"/> <path d="M3591 2829 c-36 -42 -29 -55 8 -15 12 13 36 27 53 30 35 7 34 11 -2 18 -20 5 -32 -2 -59 -33z"/> <path d="M2940 2802 c25 -15 88 -24 95 -12 4 6 -4 10 -18 10 -14 0 -40 3 -58 6 -23 4 -29 2 -19 -4z"/> <path d="M3140 2773 c19 -9 64 -18 100 -19 l65 -3 -60 9 c-33 6 -73 14 -89 20 -44 15 -55 10 -16 -7z"/> <path d="M2895 2750 c-8 -12 3 -88 16 -110 5 -9 6 12 2 50 -6 72 -8 76 -18 60z"/> <path d="M3073 2735 c-9 -25 2 -124 16 -138 10 -9 11 -6 4 18 -4 17 -7 54 -7 83 2 53 -2 64 -13 37z"/> <path d="M3370 2652 c0 -22 -13 -78 -30 -125 -16 -48 -30 -97 -30 -109 1 -32 66 167 73 225 4 28 3 47 -3 47 -6 0 -10 -17 -10 -38z"/> <path d="M2946 2601 c10 -10 86 -32 91 -27 4 3 -84 36 -96 36 -3 0 -1 -4 5 -9z"/> <path d="M3130 2572 c24 -15 124 -24 150 -13 21 8 16 10 -30 10 -30 1 -73 4 -95 7 -27 4 -35 2 -25 -4z"/> <path d="M2910 2545 c-5 -50 3 -110 13 -94 1 2 -1 31 -4 64 -3 37 -7 49 -9 30z"/> <path d="M3080 2525 c0 -9 -6 -12 -17 -8 -11 4 -14 3 -9 -5 12 -19 36 -14 36 8 0 11 -2 20 -5 20 -3 0 -5 -7 -5 -15z"/> <path d="M2716 4188 c-34 -48 -4 -128 42 -114 29 10 48 71 33 109 -13 34 -53 37 -75 5z m14 -48 l-7 -45 -2 41 c0 22 2 44 6 47 10 11 11 5 3 -43z m48 8 c4 -42 -22 -72 -33 -38 -9 28 4 82 18 77 7 -2 13 -19 15 -39z"/> <path d="M2669 3398 c-83 -44 -175 -49 -261 -13 -11 4 -18 3 -18 -4 0 -27 160 -42 228 -22 34 10 122 58 122 66 0 9 -15 3 -71 -27z"/> <path d="M2885 2175 c4 -16 13 -58 21 -92 16 -79 40 -128 72 -153 40 -32 46 -23 8 13 -40 38 -50 59 -72 160 -9 40 -21 79 -26 87 -6 10 -7 6 -3 -15z"/> <path d="M1921 1697 c-36 -93 -20 -226 42 -348 23 -46 47 -85 54 -87 7 -2 -3 23 -23 55 -50 83 -76 173 -76 263 0 41 5 88 11 104 7 16 9 31 7 34 -3 3 -10 -7 -15 -21z"/> <path d="M3349 1664 c-9 -32 -19 -68 -23 -79 -8 -20 -8 -20 8 0 20 23 38 89 34 117 -2 13 -10 -3 -19 -38z"/> <path d="M3216 1392 c12 -48 32 -151 44 -230 13 -78 26 -142 30 -142 7 0 5 14 -25 205 -18 113 -54 255 -64 255 -4 0 3 -39 15 -88z"/> </g> </svg>