<?xml version="1.0" standalone="no"?> <!DOCTYPE svg PUBLIC "-//W3C//DTD SVG 20010904//EN" "http://www.w3.org/TR/2001/REC-SVG-20010904/DTD/svg10.dtd"> <svg version="1.0" xmlns="http://www.w3.org/2000/svg" width="600.000000pt" height="489.000000pt" viewBox="0 0 600.000000 489.000000" preserveAspectRatio="xMidYMid meet"> <g transform="translate(0.000000,489.000000) scale(0.100000,-0.100000)" fill="#ffffff" stroke="none"> <path d="M2870 4676 c-96 -25 -172 -95 -211 -192 -25 -64 -30 -163 -14 -329 11 -128 1 -140 -150 -184 -38 -11 -96 -36 -128 -55 -45 -27 -73 -36 -129 -42 -121 -12 -248 -91 -291 -182 -6 -13 -38 -37 -71 -54 -108 -54 -150 -92 -219 -197 -36 -53 -88 -122 -116 -152 -27 -30 -75 -84 -106 -121 -52 -64 -55 -70 -55 -125 0 -63 41 -266 72 -358 11 -33 45 -107 76 -165 123 -228 156 -324 133 -382 -13 -35 -27 -36 -250 -3 -140 20 -180 23 -221 14 -60 -13 -121 -56 -155 -109 -52 -82 -55 -118 -55 -586 l0 -433 -52 -15 c-29 -8 -127 -33 -218 -57 -232 -59 -210 -44 -210 -138 0 -52 4 -82 13 -89 7 -6 47 -20 88 -32 l75 -20 195 55 c107 30 259 74 339 96 80 23 196 56 258 75 62 19 115 34 118 34 2 0 4 37 4 83 l0 82 -80 23 -79 23 -131 -36 c-72 -19 -133 -35 -135 -35 -3 0 -5 194 -5 431 l0 431 30 29 c26 27 34 30 72 24 24 -3 121 -16 217 -29 l174 -24 28 -35 c37 -45 88 -64 199 -77 99 -11 115 -7 148 35 20 25 22 25 113 18 93 -8 94 -8 103 -38 17 -54 58 -139 82 -172 22 -30 24 -40 24 -162 l0 -130 -37 -10 c-21 -5 -76 -19 -123 -31 -47 -12 -105 -27 -130 -35 -25 -7 -64 -18 -87 -24 l-43 -12 0 -84 c0 -71 3 -84 18 -88 72 -20 129 -28 161 -23 20 3 158 41 306 85 148 44 270 79 271 78 1 -1 4 -140 5 -309 3 -208 0 -311 -7 -318 -6 -6 -76 -30 -155 -54 -79 -24 -183 -56 -231 -70 l-88 -27 0 -83 c0 -55 4 -87 13 -93 6 -5 45 -19 85 -31 l72 -21 138 40 c75 22 189 57 252 79 129 43 374 120 465 145 33 9 66 22 73 27 8 7 12 39 12 94 l0 83 -37 11 c-129 36 -140 35 -266 -4 -65 -20 -124 -39 -133 -43 -12 -4 -14 50 -12 428 l3 433 45 13 c25 8 120 27 211 42 92 16 188 38 214 50 31 14 68 21 107 21 62 0 120 17 285 82 l102 40 83 -40 c46 -23 100 -44 120 -48 21 -3 42 -12 48 -19 7 -8 9 -118 8 -326 l-3 -313 -50 -15 c-27 -8 -126 -38 -220 -67 l-170 -52 -3 -85 -3 -85 58 -18 c104 -32 94 -34 673 152 268 86 274 88 281 120 4 16 7 52 8 81 1 57 8 52 -93 77 -58 15 -60 15 -179 -19 -66 -19 -124 -32 -128 -29 -5 3 -9 133 -9 289 0 216 3 286 13 292 39 25 189 66 301 83 282 42 329 39 442 -36 108 -71 155 -77 221 -28 21 16 45 24 72 24 28 0 48 8 70 26 42 35 47 46 81 176 18 70 42 132 63 167 61 100 75 135 92 238 16 94 16 105 1 157 -22 73 -51 106 -103 116 -33 5 -49 3 -71 -10 -24 -15 -31 -16 -47 -4 -50 37 -98 -3 -166 -139 -33 -66 -62 -103 -143 -185 -95 -95 -104 -102 -141 -102 -60 0 -291 28 -370 45 -38 8 -126 19 -195 25 -111 9 -136 15 -218 50 -76 33 -104 40 -157 40 -52 0 -76 6 -136 35 -114 54 -199 69 -356 61 l-133 -7 -75 42 c-68 37 -76 44 -86 82 -8 29 -9 79 -3 162 4 66 8 168 9 227 1 99 3 109 29 146 31 45 51 104 67 201 8 48 22 82 50 124 49 75 62 124 57 212 -8 113 -57 185 -165 239 l-51 25 19 38 c27 53 65 181 85 288 31 173 -2 321 -92 409 -90 88 -233 125 -354 92z m232 -39 c52 -22 129 -97 158 -153 14 -30 27 -80 33 -135 9 -76 7 -101 -12 -199 -40 -199 -106 -353 -156 -366 -57 -14 -201 67 -280 158 l-37 43 24 -45 c19 -34 47 -60 114 -106 l90 -60 -13 -30 c-23 -54 -13 -71 13 -21 23 45 26 47 66 47 32 0 49 6 69 26 25 24 30 25 63 14 52 -17 132 -93 150 -143 17 -49 28 -117 18 -117 -4 0 -18 21 -32 47 -24 46 -99 114 -123 112 -7 0 -3 -6 7 -12 95 -58 159 -172 136 -241 -22 -67 -70 -107 -70 -58 0 31 -67 159 -105 201 -52 57 -65 59 -132 13 -103 -70 -98 -55 -99 -291 -1 -113 -6 -222 -11 -242 -8 -27 -7 -44 3 -68 15 -36 48 -52 119 -56 34 -2 51 -8 53 -18 2 -8 -6 -53 -17 -100 -12 -47 -21 -93 -22 -103 0 -11 -7 -2 -15 20 -13 35 -12 40 6 63 21 27 25 43 12 43 -5 0 -14 -12 -21 -26 -11 -24 -13 -25 -29 -11 -10 9 -35 22 -57 29 -39 13 -40 14 -44 68 l-4 55 -11 -60 -11 -60 -56 -5 c-44 -4 -69 -13 -111 -43 -30 -20 -61 -37 -70 -37 -18 0 -38 41 -38 76 0 14 -4 23 -9 20 -8 -6 0 -65 14 -99 4 -9 4 -28 1 -42 -13 -50 -100 -26 -154 42 -30 39 -64 101 -76 141 l-7 22 35 -21 c20 -11 41 -19 48 -17 6 2 -23 23 -66 46 -44 24 -81 40 -84 38 -3 -3 3 -8 12 -12 16 -6 56 -75 70 -121 l7 -22 -56 24 c-30 14 -60 25 -65 25 -5 0 0 -19 10 -42 26 -57 25 -64 -7 -63 -20 0 -29 -6 -31 -20 -3 -16 -1 -18 9 -7 26 25 56 14 82 -30 32 -55 86 -106 172 -166 62 -42 72 -55 111 -132 63 -123 64 -120 -57 -120 -96 0 -104 2 -168 35 -83 44 -130 91 -176 175 -39 74 -47 61 -10 -17 30 -66 96 -131 163 -162 29 -14 52 -28 52 -32 0 -4 -21 -10 -47 -14 -27 -4 -74 -15 -105 -26 -32 -10 -60 -19 -63 -19 -3 0 -5 21 -5 48 0 26 -5 63 -10 82 -6 19 -15 80 -20 135 -8 86 -16 115 -56 205 -44 100 -104 305 -104 357 0 16 22 48 68 96 37 40 83 93 100 120 18 26 37 47 41 47 5 0 23 -35 40 -78 68 -169 149 -256 274 -294 79 -24 176 -21 258 7 91 31 108 73 116 286 7 190 -1 254 -35 289 -26 25 -134 72 -251 108 -36 11 -57 24 -64 39 -13 29 -83 63 -128 63 -30 0 -46 -12 -139 -106 -119 -121 -202 -188 -287 -230 -72 -36 -67 -33 -61 -39 9 -9 133 60 195 108 70 54 152 132 216 206 l48 54 53 -12 c99 -22 121 -77 69 -173 -64 -117 -186 -198 -311 -206 -82 -6 -345 8 -362 18 -19 12 13 144 56 229 41 83 118 158 207 203 49 24 73 30 130 30 51 1 65 3 52 11 -10 5 -44 7 -77 3 -109 -11 -256 -112 -309 -210 -29 -56 -41 -59 -27 -8 34 128 157 222 311 236 50 5 80 14 115 36 26 16 86 41 132 55 109 34 129 44 154 78 19 26 21 39 17 125 -10 257 -8 283 23 344 61 121 150 172 291 165 44 -3 97 -12 117 -20z m-1188 -1054 c-3 -27 -10 -72 -15 -102 -5 -30 -9 -70 -9 -88 0 -45 -23 -65 -162 -137 -122 -63 -211 -124 -228 -156 -7 -14 -8 -60 -1 -152 11 -144 47 -278 110 -408 35 -71 32 -47 -4 40 -37 90 -75 230 -81 305 l-7 70 83 -110 c45 -60 100 -144 121 -185 21 -41 38 -68 38 -60 2 32 -60 140 -145 255 -105 142 -121 181 -99 229 9 18 30 44 47 57 33 25 251 148 256 144 2 -1 -13 -33 -33 -71 -20 -38 -38 -87 -41 -109 -4 -40 -4 -40 15 12 25 66 74 159 104 196 l22 27 175 -11 c96 -7 177 -13 179 -15 13 -11 -114 -158 -184 -214 -100 -79 -138 -95 -232 -95 -72 0 -80 -2 -69 -15 30 -35 56 -194 56 -346 0 -134 3 -156 30 -251 45 -154 57 -172 152 -226 48 -28 88 -70 88 -93 0 -10 -15 -14 -55 -14 -65 0 -69 -6 -70 -95 0 -59 1 -60 32 -70 32 -11 32 -12 17 -34 -26 -37 -62 -25 -108 37 -46 62 -59 61 -22 -2 31 -53 31 -56 6 -56 -12 0 -31 18 -51 48 -41 59 -38 56 -45 49 -4 -3 3 -23 15 -43 12 -20 20 -39 17 -41 -10 -10 -45 19 -67 54 -13 20 -25 31 -27 24 -2 -6 2 -18 8 -27 23 -27 1 -26 -24 1 -38 41 -51 99 -36 160 22 90 23 151 4 207 -9 29 -59 137 -110 239 -89 176 -96 195 -129 343 -51 227 -53 213 62 348 53 62 112 135 131 161 19 26 37 46 39 43 3 -3 -15 -43 -41 -91 -25 -47 -44 -85 -41 -85 14 0 86 128 105 185 26 77 72 131 154 180 33 19 63 35 68 35 4 0 5 -21 2 -47z m132 -560 c38 -167 83 -304 134 -403 16 -30 24 -72 30 -149 5 -58 13 -122 19 -141 7 -23 9 -80 5 -162 l-7 -128 -36 0 c-59 0 -78 9 -84 39 -9 43 -54 89 -118 122 -69 34 -85 60 -123 199 -22 82 -26 115 -26 241 0 115 -4 163 -21 229 -21 80 -21 84 -3 97 10 7 32 13 50 13 18 0 61 15 96 34 34 19 66 35 70 35 4 1 10 -11 14 -26z m1147 -276 c-12 -101 -12 -142 -4 -193 18 -101 24 -111 87 -139 32 -14 55 -27 53 -29 -2 -2 -46 -11 -98 -20 -76 -13 -96 -14 -103 -4 -33 53 5 480 53 593 l13 30 7 -55 c4 -33 1 -107 -8 -183z m-774 69 c29 -13 69 -44 91 -69 23 -25 56 -51 74 -58 30 -11 34 -17 40 -57 8 -60 8 -102 -1 -102 -23 1 -153 103 -184 144 -39 51 -93 166 -79 166 4 0 31 -11 59 -24z m515 -53 c0 -39 -5 -78 -12 -86 -7 -9 -54 -19 -127 -27 -63 -7 -115 -18 -115 -23 0 -5 14 -7 33 -3 17 4 71 9 120 13 l87 6 0 -72 c0 -69 -1 -72 -27 -82 -16 -6 -65 -9 -111 -7 -45 2 -82 0 -82 -3 0 -12 97 -20 154 -13 72 9 86 26 86 112 l0 64 53 -7 c63 -9 67 -12 74 -62 9 -65 -8 -83 -73 -83 -37 0 -53 -4 -49 -11 4 -6 31 -9 63 -8 61 3 70 -5 71 -67 2 -59 -49 -87 -189 -104 -147 -18 -146 -18 -165 43 -10 28 -30 75 -46 104 -23 41 -30 70 -35 138 -7 81 -6 87 14 101 12 8 22 25 22 38 0 17 10 27 38 39 20 10 62 31 92 47 38 22 65 30 90 28 l35 -3 -1 -72z m90 66 c50 -23 74 -125 39 -168 -16 -19 -23 -21 -66 -12 -26 5 -50 11 -53 13 -2 3 0 25 5 49 6 24 11 63 11 87 0 46 14 53 64 31z m76 -198 c0 -17 -4 -32 -9 -35 -12 -8 -23 23 -16 45 10 29 25 22 25 -10z m2289 -97 c17 -22 21 -41 21 -104 0 -118 -16 -183 -78 -304 -53 -106 -56 -115 -63 -213 -13 -181 -45 -247 -119 -245 -30 1 -104 34 -115 52 -13 22 -107 61 -166 69 -115 15 -393 -25 -511 -75 -77 -32 -203 -43 -286 -24 -52 12 -218 86 -249 112 -10 8 -17 8 -21 1 -5 -8 -22 -7 -60 0 -34 7 -58 8 -66 2 -69 -51 -201 -137 -221 -145 -49 -19 -23 6 53 49 42 25 89 54 105 65 l27 20 -27 12 -28 12 26 1 c14 1 39 11 56 24 17 12 54 33 82 47 94 43 60 50 -122 24 -62 -9 -161 -32 -222 -51 -135 -42 -353 -148 -419 -203 -26 -22 -52 -40 -57 -40 -11 0 -39 42 -34 51 3 4 26 12 52 19 27 6 64 20 83 31 19 11 28 18 20 15 -119 -38 -152 -47 -164 -43 -11 5 -42 78 -61 145 -6 22 -5 23 42 17 26 -3 62 -1 78 4 25 8 19 9 -42 10 -80 1 -93 11 -93 71 0 27 3 31 18 25 191 -78 433 -97 594 -46 78 25 156 75 178 114 13 24 13 30 0 55 -28 50 -80 67 -222 70 -105 3 -152 -1 -265 -22 -76 -15 -151 -29 -168 -31 -29 -5 -29 -5 -5 6 62 27 251 60 379 66 l135 6 -25 20 c-13 10 -45 30 -71 43 -27 13 -48 25 -48 27 0 1 26 3 58 4 31 0 86 9 122 19 80 22 328 26 374 6 43 -19 26 -24 -35 -11 -64 14 -297 7 -325 -9 -17 -10 -17 -11 7 -12 29 0 119 -28 133 -41 14 -13 0 -11 -64 6 -30 8 -89 17 -130 21 l-75 6 74 -52 74 -52 86 21 c48 11 99 21 115 21 15 0 75 -16 134 -36 59 -19 141 -39 182 -45 77 -9 342 -40 530 -60 117 -13 279 -5 339 16 108 38 270 200 345 345 50 99 81 140 102 140 7 0 22 -12 33 -26z m161 -2 c39 -39 54 -101 45 -186 -9 -94 -37 -180 -81 -246 -34 -51 -61 -125 -99 -264 -19 -67 -60 -116 -98 -116 -39 0 -48 20 -37 80 5 29 10 85 10 124 0 68 2 77 66 203 l67 131 6 135 c4 90 11 140 20 151 21 26 69 20 101 -12z m-2460 -39 c0 -19 -3 -24 -10 -17 -6 6 -8 18 -4 27 9 24 14 21 14 -10z m20 -165 c0 -17 4 -19 23 -13 51 16 150 35 155 30 4 -3 -1 -18 -10 -33 -17 -27 -17 -27 -115 -24 -107 4 -259 -16 -388 -50 -50 -13 -105 -20 -145 -19 -85 3 -185 -13 -287 -46 -45 -15 -85 -24 -88 -21 -3 3 -1 16 4 30 20 52 181 88 390 88 153 0 346 22 389 44 16 8 34 22 41 30 16 19 31 12 31 -16z m981 -63 c24 -9 71 -29 104 -44 47 -23 80 -30 155 -35 52 -4 160 -18 240 -32 80 -15 192 -29 250 -33 97 -7 103 -8 75 -20 -16 -7 -70 -18 -119 -24 -92 -11 -170 -6 -431 29 -60 8 -162 19 -225 24 -113 10 -220 27 -220 36 0 2 6 13 12 24 10 16 10 24 0 40 -6 11 -12 24 -12 29 0 23 111 27 171 6z m-1211 -33 c0 -5 -9 -17 -20 -27 -40 -36 -63 -122 -64 -232 -1 -57 -3 -103 -7 -103 -3 0 -20 15 -38 34 -57 59 -127 82 -310 106 -91 11 -170 25 -178 31 -7 6 -13 26 -13 44 0 37 13 44 147 84 70 21 233 40 233 28 0 -4 -30 -20 -67 -37 -36 -17 -63 -33 -60 -36 3 -4 49 12 101 35 128 56 276 95 276 73z m-1520 -117 c52 -8 136 -20 187 -26 l91 -12 4 -54 c1 -30 0 -57 -4 -59 -4 -3 -96 7 -204 21 -108 14 -203 25 -212 25 -8 0 -32 -18 -54 -40 l-38 -41 0 -462 c0 -347 -3 -466 -12 -475 -13 -13 -49 -15 -86 -6 l-23 7 3 471 c3 341 7 481 16 508 18 52 89 126 137 143 51 18 79 18 195 0z m974 -114 c238 -27 263 -32 322 -61 82 -40 142 -107 172 -191 22 -63 22 -69 22 -611 l0 -548 -25 -16 c-22 -14 -32 -15 -65 -5 l-40 12 0 550 c0 449 -3 556 -14 583 -22 53 -83 115 -125 125 -69 18 -476 71 -547 71 -22 0 -45 5 -52 12 -15 15 -16 73 -1 100 9 17 17 19 52 14 23 -4 158 -19 301 -35z m146 -167 c116 -18 157 -42 190 -111 17 -37 23 -67 24 -128 l1 -80 -38 -3 c-100 -8 -231 62 -301 162 -42 60 -90 168 -79 179 6 7 74 0 203 -19z m1748 -182 c9 -7 12 -80 10 -332 -3 -363 -1 -353 -75 -334 l-38 9 -3 320 c-1 176 0 325 3 332 5 14 82 18 103 5z m-1288 -84 c0 -9 -9 -14 -42 -22 l-28 -6 0 56 0 57 35 -39 c19 -21 34 -42 35 -46z m-507 -10 c57 -45 57 -44 57 -124 0 -81 -17 -108 -60 -97 -47 11 -50 19 -50 139 0 63 3 114 6 114 3 0 24 -15 47 -32z m185 -71 c39 -6 72 -14 72 -18 0 -8 -95 -38 -147 -46 l-33 -6 0 48 c0 41 2 46 18 40 9 -4 50 -12 90 -18z m82 -77 c0 -10 -5 -22 -10 -25 -9 -6 -163 -45 -176 -45 -10 0 -3 40 9 47 17 12 161 50 170 46 4 -3 7 -13 7 -23z m0 -94 c0 -24 -6 -48 -12 -54 -7 -5 -44 -19 -83 -30 -113 -32 -487 -143 -502 -149 -11 -4 -13 7 -11 57 l3 62 145 40 c80 22 206 57 280 78 182 51 180 51 180 -4z m-295 4 c6 -10 -17 -18 -189 -64 -115 -32 -133 -34 -178 -25 -55 12 -56 17 -6 30 18 4 96 26 173 47 111 31 146 37 167 30 16 -6 30 -14 33 -18z m-365 -110 c23 -6 25 -12 28 -68 2 -34 0 -62 -3 -62 -4 0 -31 7 -61 16 l-54 15 0 59 0 60 33 -7 c17 -3 43 -9 57 -13z m-550 -115 c42 -15 51 -11 -150 -66 -218 -59 -199 -57 -191 -17 l7 33 124 31 c141 36 161 38 210 19z m3102 -3 c5 -5 -61 -30 -149 -57 -87 -26 -166 -52 -176 -57 -16 -8 -18 -7 -13 11 3 12 9 30 12 41 3 13 20 23 47 30 23 6 71 20 107 30 65 19 154 20 172 2z m-3022 -69 c0 -27 -4 -54 -9 -61 -4 -8 -145 -53 -312 -102 -457 -133 -553 -159 -562 -150 -14 13 -3 112 13 121 8 4 83 26 165 49 124 33 368 101 630 175 75 21 75 21 75 -32z m3074 -5 c-4 -29 -9 -56 -13 -59 -13 -12 -792 -262 -797 -256 -1 1 -4 29 -6 61 l-3 59 125 39 c69 21 177 54 240 73 63 19 185 57 270 85 85 27 163 49 173 50 16 0 17 -6 11 -52z m-3624 -47 c34 -15 39 -20 24 -24 -11 -4 -97 -27 -193 -53 -167 -44 -177 -46 -229 -34 -59 13 -58 19 3 40 43 14 322 88 341 89 7 1 31 -8 54 -18z m3112 3 c17 -9 26 -19 22 -23 -5 -4 -86 -31 -179 -60 -154 -46 -174 -50 -205 -40 -58 20 -55 27 21 49 41 12 124 37 184 55 131 40 119 39 157 19z m-3530 -130 l58 -17 0 -60 0 -60 -39 7 c-85 13 -91 19 -91 86 0 33 3 60 7 60 4 0 33 -7 65 -16z m3189 -22 c13 -13 20 -110 9 -117 -18 -11 -110 16 -120 35 -11 20 -14 103 -4 113 6 6 105 -21 115 -31z m-564 -133 c24 -9 24 -29 0 -29 -7 0 -97 -27 -201 -60 -178 -56 -226 -67 -177 -40 14 7 21 21 21 39 0 26 4 29 133 69 132 41 164 44 224 21z m65 -104 c-7 -57 -8 -59 -47 -71 -22 -7 -128 -40 -235 -72 -107 -33 -284 -88 -393 -122 -112 -35 -202 -59 -207 -54 -4 5 -10 36 -12 69 l-3 59 225 64 c124 35 324 95 445 132 121 38 223 65 227 61 4 -4 4 -33 0 -66z m-530 -37 l47 -14 -212 -62 c-207 -62 -213 -63 -264 -51 -29 7 -53 15 -53 19 0 4 57 24 128 44 70 21 159 48 197 61 72 25 78 25 157 3z m-454 -139 c26 -7 53 -16 60 -22 13 -10 18 -137 5 -137 -5 0 -35 8 -68 18 l-60 18 -3 67 c-3 74 -5 73 66 56z"/> <path d="M2652 3883 c-28 -78 -36 -110 -26 -100 13 13 63 157 55 157 -5 0 -18 -26 -29 -57z"/> <path d="M2346 3088 c-2 -7 -10 -49 -19 -93 -9 -44 -32 -138 -51 -209 -20 -71 -32 -134 -29 -140 4 -6 14 23 24 64 9 41 30 122 47 180 31 107 50 210 38 210 -4 0 -8 -6 -10 -12z"/> <path d="M2920 2441 c5 -11 10 -28 10 -38 1 -10 7 -31 15 -48 l15 -30 -5 40 c-7 50 -24 95 -37 95 -5 0 -4 -9 2 -19z"/> <path d="M3677 2063 c26 -20 193 -14 193 6 0 3 -47 6 -105 6 -87 0 -102 -2 -88 -12z"/> <path d="M4385 2019 c-98 -9 -406 -57 -414 -65 -9 -9 51 -3 116 10 88 19 331 46 425 47 40 1 87 5 103 9 42 11 -101 10 -230 -1z"/> <path d="M3990 1893 c-75 -11 -188 -49 -178 -58 2 -2 31 4 63 14 33 10 87 22 120 26 67 7 310 -7 510 -31 274 -32 309 -35 294 -20 -4 4 -47 10 -369 45 -178 20 -395 32 -440 24z"/> </g> </svg>