<?xml version="1.0" standalone="no"?>
<!DOCTYPE svg PUBLIC "-//W3C//DTD SVG 20010904//EN"
 "http://www.w3.org/TR/2001/REC-SVG-20010904/DTD/svg10.dtd">
<svg version="1.0" xmlns="http://www.w3.org/2000/svg"
 width="600.000000pt" height="489.000000pt" viewBox="0 0 600.000000 489.000000"
 preserveAspectRatio="xMidYMid meet">
<g transform="translate(0.000000,489.000000) scale(0.100000,-0.100000)"
fill="#ffffff" stroke="none">
<path d="M2071 4454 c-157 -42 -280 -174 -317 -341 -27 -123 -8 -222 78 -404
l50 -106 -25 -39 c-36 -54 -51 -123 -43 -196 11 -105 59 -186 154 -258 26 -20
41 -49 77 -144 25 -66 65 -152 89 -190 l43 -71 -8 -78 c-9 -91 -14 -99 -104
-152 -71 -41 -115 -85 -115 -115 0 -23 -11 -30 -53 -37 -18 -3 -135 -25 -262
-49 -126 -24 -238 -44 -248 -44 -19 0 -19 6 -13 121 3 70 2 128 -4 138 -7 14
-36 23 -114 36 -109 19 -143 17 -296 -16 l-50 -11 0 -903 c0 -521 4 -906 9
-909 5 -3 12 1 15 10 3 9 6 408 6 888 0 480 2 875 5 878 3 3 40 -2 83 -11 l77
-17 5 -894 c4 -700 8 -894 17 -897 10 -4 13 182 15 893 l3 897 55 13 c30 7 74
15 98 19 l42 6 0 -885 c0 -548 4 -887 9 -891 30 -18 33 42 30 679 l-4 641 322
64 321 63 32 -23 c72 -54 252 -17 325 66 28 32 38 36 128 51 54 9 100 14 103
11 3 -3 5 -414 5 -914 -1 -517 3 -914 8 -922 29 -45 31 10 31 925 0 886 1 924
18 924 20 0 127 -18 155 -26 16 -5 17 -58 17 -940 0 -824 2 -934 15 -934 8 0
16 6 16 13 1 6 1 427 -1 934 l-2 922 23 5 c57 13 145 26 172 26 l29 0 -3 -919
c-2 -506 0 -923 3 -926 25 -25 28 25 28 403 l0 397 37 -55 c81 -122 225 -260
322 -310 21 -10 62 -40 92 -66 100 -86 148 -92 315 -39 92 29 111 32 124 21 8
-8 35 -24 60 -36 25 -13 62 -38 84 -56 72 -61 157 -64 283 -9 71 32 184 56
199 44 6 -5 26 -49 44 -97 54 -142 103 -202 167 -202 89 0 117 180 52 329 -23
52 -23 51 -4 51 22 0 47 -57 104 -236 28 -88 60 -170 71 -182 39 -41 93 -28
168 42 58 53 76 100 77 191 0 75 -3 87 -51 195 -28 63 -59 142 -69 175 -21 74
-40 112 -73 148 -22 23 -33 27 -83 27 -48 0 -60 -4 -83 -26 -14 -15 -26 -31
-26 -35 0 -5 -15 -9 -34 -9 -32 0 -35 2 -46 49 -27 113 -131 147 -227 75 -23
-17 -45 -24 -77 -24 -25 0 -66 -7 -92 -16 -25 -8 -50 -12 -54 -7 -4 4 -17 54
-29 111 -31 143 -63 238 -127 374 -56 117 -84 200 -84 250 0 25 3 27 68 34 37
3 78 11 91 16 38 14 117 85 131 117 14 34 -17 25 390 110 259 55 270 60 270
131 0 54 -31 90 -79 90 -28 0 -488 -80 -592 -102 -7 -2 -19 8 -26 22 -30 53
-5 202 81 491 19 64 39 158 45 210 13 129 0 414 -21 454 -24 45 -93 78 -273
129 -88 25 -207 64 -264 86 -118 46 -222 64 -319 54 -61 -7 -67 -5 -146 35
-138 71 -286 79 -421 21 l-47 -20 -77 26 c-61 22 -102 28 -204 33 -110 5 -131
9 -142 25 -17 22 -35 103 -35 154 0 57 -27 168 -54 227 -80 176 -279 269 -465
219z m266 -59 c127 -63 183 -158 212 -364 12 -76 28 -149 40 -174 21 -43 111
-140 111 -120 0 7 -4 15 -10 18 -5 3 -15 16 -21 27 -11 21 -11 21 92 14 181
-13 258 -37 334 -107 58 -54 72 -43 16 12 -49 49 -47 50 52 75 107 26 235 16
323 -25 119 -56 234 -188 322 -372 1 -3 -21 -11 -50 -18 -31 -7 -84 -32 -128
-61 -42 -27 -105 -61 -140 -76 -77 -31 -196 -42 -264 -25 -83 21 -175 70 -221
117 -38 39 -45 52 -45 86 0 34 6 46 36 75 20 18 54 43 76 54 22 11 38 23 35
26 -12 11 -95 -37 -130 -76 -32 -35 -38 -49 -35 -76 4 -32 3 -33 -42 -38 -56
-6 -353 -156 -392 -198 -16 -16 -28 -38 -28 -49 0 -33 -16 -31 -41 7 -17 25
-48 49 -104 78 -112 59 -165 89 -165 96 0 3 17 13 38 22 20 9 45 22 54 29 15
11 24 6 68 -37 60 -60 66 -50 9 17 -37 44 -40 51 -27 66 142 165 173 213 184
284 8 53 -7 41 -24 -19 -15 -50 -83 -143 -177 -240 -53 -54 -80 -74 -112 -83
-48 -12 -69 -5 -116 39 -38 35 -147 217 -207 344 -79 170 -99 265 -76 375 32
155 119 256 264 309 92 33 206 28 289 -12z m1789 -795 c32 -12 99 -32 149 -46
111 -32 192 -71 214 -103 13 -21 17 -62 19 -233 4 -236 -3 -285 -67 -483 -21
-66 -49 -173 -61 -237 l-23 -117 22 -63 c56 -161 62 -208 34 -261 -13 -25 -18
-28 -21 -14 -5 23 -19 22 -27 -2 -10 -33 -46 -71 -66 -71 -19 0 -18 2 6 34 14
19 22 37 17 40 -6 3 -22 -10 -37 -29 -29 -38 -72 -71 -81 -62 -3 3 6 21 20 40
25 33 33 58 19 56 -5 0 -25 -22 -46 -50 -31 -41 -43 -49 -70 -49 -33 0 -77 23
-77 41 0 5 11 9 24 9 71 0 73 132 2 187 -22 18 -32 19 -72 11 -25 -6 -48 -8
-50 -5 -21 21 37 92 139 170 44 33 53 62 68 227 l12 125 -34 130 c-47 185 -46
249 9 377 45 104 46 108 34 108 -5 0 -28 -40 -51 -89 -37 -78 -47 -91 -79
-104 -124 -50 -246 -60 -357 -32 -71 18 -225 77 -225 86 0 3 17 11 38 17 21 6
75 36 120 67 109 73 152 85 236 62 92 -24 124 -20 43 6 -66 22 -68 23 -103 86
-27 50 -31 62 -17 56 62 -27 136 -48 187 -53 l58 -5 49 -75 c27 -41 49 -68 49
-60 0 8 -15 38 -34 68 l-35 55 102 12 c177 21 218 28 218 38 0 5 -57 29 -127
53 -70 23 -146 56 -168 72 -47 35 -40 37 40 10z m-2168 -124 c60 -98 114 -155
154 -163 32 -6 36 -19 10 -27 -27 -9 -89 -76 -110 -120 l-19 -39 -51 47 c-69
65 -96 128 -96 231 -1 67 3 87 23 122 13 23 27 40 31 38 3 -2 30 -42 58 -89z
m1499 -311 c11 -8 59 -30 104 -48 l84 -34 -2 -104 c0 -57 -10 -152 -21 -210
-25 -131 -20 -165 49 -305 l50 -102 -17 -48 c-22 -66 -71 -158 -98 -183 -15
-14 -60 -28 -151 -45 -72 -14 -130 -26 -131 -26 0 0 -6 24 -13 53 -13 59 -69
169 -90 175 -8 3 -3 -12 13 -40 28 -48 66 -150 66 -178 0 -13 -16 -19 -67 -29
-38 -7 -78 -15 -91 -18 -22 -5 -23 -3 -20 32 3 35 6 40 46 53 43 14 62 40 20
27 -13 -3 -34 -9 -47 -12 l-23 -6 3 89 4 89 -100 18 c-58 10 -127 16 -164 13
l-63 -4 -35 74 c-34 72 -61 100 -86 91 -7 -3 0 -9 15 -15 19 -8 30 -22 37 -49
6 -21 20 -52 31 -70 10 -18 16 -34 12 -37 -4 -2 -36 -9 -71 -16 l-64 -11 -90
88 c-93 92 -147 157 -147 178 0 9 24 14 74 17 111 5 137 35 96 111 -38 71
-102 252 -105 300 -5 58 10 61 26 5 14 -55 38 -125 55 -163 7 -16 22 -56 33
-89 29 -84 46 -105 109 -134 105 -48 296 -38 427 22 128 58 236 237 290 479 9
42 20 77 24 77 4 0 16 -7 28 -15z m619 -123 c1 -51 11 -113 29 -182 32 -119
36 -216 15 -364 l-12 -88 -46 -32 c-25 -17 -63 -46 -84 -65 l-39 -34 -27 21
c-15 12 -61 41 -103 66 -69 41 -79 50 -111 113 -20 37 -43 92 -51 120 -15 49
-14 61 4 165 10 62 22 159 26 216 5 89 8 102 22 96 32 -14 184 -16 239 -4 41
9 137 44 137 49 0 1 0 -34 1 -77z m-1832 -396 c21 -18 55 -42 77 -52 35 -15
40 -21 35 -43 -3 -14 -9 -55 -12 -91 -8 -78 -27 -108 -93 -149 -55 -33 -68
-59 -51 -101 28 -67 -12 -102 -54 -47 -15 20 -21 47 -24 97 -3 43 -10 74 -18
81 -12 10 -57 8 -109 -4 -17 -4 -17 34 0 53 9 10 52 39 95 65 43 26 83 58 89
71 6 13 13 53 17 89 4 36 8 65 9 65 1 0 19 -15 39 -34z m157 -148 c6 -13 23
-35 37 -50 14 -15 23 -30 21 -32 -3 -3 -24 -8 -47 -12 l-42 -7 0 62 c0 63 11
77 31 39z m-1176 3 c44 -9 38 -13 -43 -31 -42 -10 -66 -10 -113 0 -33 7 -58
15 -55 17 16 17 152 26 211 14z m1320 -161 c37 -37 47 -53 37 -59 -11 -7 -283
-60 -332 -65 -25 -2 -24 41 1 61 12 10 41 35 63 55 39 34 72 45 171 57 6 0 33
-22 60 -49z m1233 -3 c6 -29 -36 -154 -61 -181 -12 -13 -37 -28 -56 -31 l-34
-7 21 30 c31 42 92 173 92 195 0 24 33 19 38 -6z m1284 6 c38 -34 12 -96 -44
-106 -18 -3 -150 -31 -292 -62 -143 -30 -260 -54 -261 -53 -5 8 -24 122 -21
125 7 8 531 111 565 112 19 1 43 -6 53 -16z m-1150 -89 c22 -25 13 -73 -16
-79 -11 -3 -43 -10 -71 -15 -27 -6 -58 -13 -68 -16 -17 -5 -17 -4 1 33 11 21
25 58 31 83 20 76 17 74 63 42 24 -16 50 -38 60 -48z m-1817 1 c0 -36 -1 -65
-2 -65 -2 0 -56 -11 -120 -25 -65 -13 -215 -42 -333 -65 -118 -22 -225 -43
-238 -45 -22 -6 -23 -4 -20 67 l3 73 110 19 c61 11 211 38 335 62 124 23 234
43 245 43 18 1 20 -5 20 -64z m860 41 l60 -12 -66 -12 c-36 -7 -79 -12 -95
-12 -43 0 -104 12 -104 20 0 6 89 25 130 28 8 1 42 -5 75 -12z m-675 -135 c-6
-12 -15 -21 -20 -21 -17 0 -11 39 8 49 21 12 27 -1 12 -28z m55 19 c-20 -23
-29 -21 -19 4 3 9 13 16 22 16 13 0 12 -3 -3 -20z m1745 -42 c11 -18 20 -48
20 -65 0 -37 9 -33 -145 -63 -55 -10 -257 -53 -449 -94 -192 -42 -357 -76
-367 -76 -17 0 -19 8 -19 70 0 63 2 71 23 80 12 5 108 26 212 45 105 20 294
58 420 84 127 27 242 50 258 50 21 1 32 -7 47 -31z m-1952 10 c18 -18 14 -28
-12 -28 -25 0 -51 22 -39 33 10 11 38 8 51 -5z m1966 -228 c20 0 25 -10 47
-101 10 -43 41 -127 69 -185 27 -58 50 -113 50 -122 0 -27 -55 -115 -102 -163
-115 -119 -272 -178 -420 -159 -60 8 -68 16 -159 163 -66 105 -79 117 -132
117 -57 0 -131 28 -175 66 -53 45 -68 37 -22 -11 44 -45 107 -74 180 -82 l59
-6 47 -80 47 -81 -29 -23 c-61 -48 -222 -83 -318 -69 -34 5 -56 16 -81 42
l-35 35 2 272 3 271 85 18 c235 48 682 141 735 152 l60 13 38 -33 c20 -19 44
-34 51 -34z m219 -570 c14 -58 35 -148 48 -200 22 -97 40 -143 60 -155 18 -12
20 1 4 38 -27 64 -21 85 28 99 23 6 78 12 122 12 76 1 85 -1 179 -48 115 -56
167 -67 196 -41 11 10 20 24 20 31 0 33 80 45 118 18 30 -20 49 -60 84 -171
16 -51 47 -130 68 -175 34 -70 40 -91 40 -148 0 -87 -32 -154 -95 -199 -80
-57 -101 -38 -150 139 -35 125 -72 225 -95 252 -17 22 -20 22 -97 11 -44 -7
-107 -21 -139 -33 -32 -11 -90 -28 -129 -36 -38 -8 -108 -31 -154 -51 -123
-51 -199 -46 -256 17 -11 12 -46 35 -78 52 -78 39 -203 160 -299 288 l-78 105
93 5 c199 12 356 104 445 262 15 26 30 44 33 40 4 -4 18 -54 32 -112z m-647
-187 c70 -109 148 -208 232 -294 l63 -67 -68 -20 c-161 -49 -207 -48 -272 8
-20 17 -63 48 -96 70 -146 94 -245 182 -312 276 l-22 31 52 -9 c84 -13 190 6
277 51 41 21 78 39 82 40 4 0 32 -38 64 -86z m1089 43 c32 -14 65 -59 65 -90
0 -12 -16 -7 -72 19 -40 19 -78 35 -85 35 -25 0 -13 21 20 35 40 18 32 17 72
1z m107 -466 c55 -113 45 -300 -16 -300 -24 0 -83 60 -103 106 -46 103 -72
179 -64 187 13 13 124 47 146 44 12 -1 27 -16 37 -37z"/>
<path d="M3285 3683 c-57 -8 -105 -24 -105 -34 0 -7 7 -8 18 -4 9 5 58 10 108
13 102 5 178 -11 252 -55 55 -31 66 -23 15 11 -64 45 -212 80 -288 69z"/>
<path d="M2525 3618 c-3 -9 -4 -54 -2 -100 3 -48 -1 -120 -9 -169 -18 -114
-16 -130 7 -39 22 90 34 253 21 295 -8 24 -11 27 -17 13z"/>
<path d="M4410 3299 c0 -74 -35 -189 -89 -296 -27 -55 -57 -127 -65 -160 -19
-71 -19 -73 -7 -73 5 0 14 21 20 46 7 25 36 94 66 153 29 59 60 132 69 162 22
78 30 173 17 195 -8 16 -10 11 -11 -27z"/>
<path d="M4039 3301 c44 -34 81 -53 76 -39 -6 16 -35 35 -73 49 l-27 9 24 -19z"/>
<path d="M3434 2909 c26 -46 61 -113 79 -149 19 -38 33 -58 35 -48 4 20 -22
74 -91 186 -67 110 -83 118 -23 11z"/>
<path d="M3407 2765 c-16 -25 -49 -59 -73 -77 -24 -17 -44 -35 -44 -40 0 -11
13 -4 57 28 17 13 35 24 39 24 8 0 -1 -117 -11 -142 -4 -10 -3 -18 3 -18 6 0
16 16 22 35 6 19 20 40 30 45 22 12 64 69 57 76 -3 3 -21 -11 -40 -32 l-34
-38 -7 46 c-6 37 -3 52 14 82 32 53 20 63 -13 11z"/>
<path d="M3500 2608 c-23 -36 -35 -76 -27 -84 3 -3 19 22 36 55 32 64 25 85
-9 29z"/>
<path d="M2790 2500 c19 -4 60 -12 90 -18 81 -15 214 -69 265 -108 25 -19 45
-29 45 -24 0 53 -267 162 -389 159 l-46 -1 35 -8z"/>
<path d="M2587 2480 c-13 -11 -28 -32 -31 -46 -10 -40 1 -41 18 -1 8 19 24 38
35 42 12 3 21 11 21 16 0 14 -15 11 -43 -11z"/>
</g>
</svg>
