<?xml version="1.0" standalone="no"?>
<!DOCTYPE svg PUBLIC "-//W3C//DTD SVG 20010904//EN"
 "http://www.w3.org/TR/2001/REC-SVG-20010904/DTD/svg10.dtd">
<svg version="1.0" xmlns="http://www.w3.org/2000/svg"
 width="600.000000pt" height="489.000000pt" viewBox="0 0 600.000000 489.000000"
 preserveAspectRatio="xMidYMid meet">
<g transform="translate(0.000000,489.000000) scale(0.100000,-0.100000)"
fill="#ffffff" stroke="none">
<path d="M2580 4187 c-53 -17 -123 -93 -150 -163 -35 -91 -39 -257 -10 -403
12 -62 21 -114 19 -116 -2 -1 -100 -7 -217 -11 l-213 -9 -31 32 c-36 38 -75
53 -103 42 -11 -4 -30 -8 -43 -8 -31 -1 -114 -39 -130 -59 -9 -13 -31 -16 -94
-17 l-82 0 -17 90 c-29 154 -92 284 -170 349 -75 64 -102 69 -313 63 -105 -3
-209 -11 -230 -17 -96 -29 -204 -192 -232 -353 -8 -45 -18 -98 -22 -117 l-7
-35 -70 -3 c-80 -3 -95 -15 -95 -72 0 -58 15 -69 99 -72 l74 -3 23 -94 c45
-181 119 -297 222 -348 54 -27 64 -28 231 -32 225 -4 262 3 336 71 79 72 130
180 155 324 11 60 20 115 20 122 0 9 24 12 88 12 l88 0 -4 -57 c-3 -52 0 -65
32 -123 20 -36 62 -114 93 -174 81 -154 210 -288 340 -355 70 -35 135 -23 210
38 l36 30 40 -35 c23 -19 44 -34 47 -34 4 0 26 -28 48 -62 22 -35 63 -90 91
-123 82 -96 71 -115 -74 -115 -120 -1 -230 -19 -311 -52 -59 -24 -272 -160
-351 -224 -55 -45 -86 -110 -77 -161 10 -54 80 -257 109 -312 38 -76 171 -278
241 -367 63 -81 94 -137 94 -168 0 -37 -63 -85 -204 -154 -186 -92 -217 -128
-153 -176 45 -34 199 -29 402 12 230 47 242 51 270 84 31 37 31 67 -1 143 -37
88 -123 333 -134 380 -5 22 -14 78 -19 125 -14 110 -46 203 -83 246 l-30 34
27 0 c15 0 63 -10 108 -21 133 -35 244 -30 392 16 177 56 213 65 283 72 l64 6
66 -70 c37 -39 75 -75 85 -80 15 -8 21 -28 28 -94 13 -118 31 -173 112 -343
l71 -150 4 -110 c4 -112 -3 -160 -43 -306 -34 -123 2 -158 155 -146 100 8 146
28 172 76 25 47 23 90 -11 222 -47 180 -56 261 -42 354 19 123 26 364 12 421
-7 26 -30 87 -52 135 l-40 87 22 43 c49 96 61 199 34 301 -26 99 -56 149 -151
247 -118 122 -129 144 -128 243 0 43 5 82 11 88 7 7 54 -11 150 -60 77 -38
166 -77 198 -86 68 -20 153 -15 192 10 62 41 95 199 97 470 2 173 5 197 28
265 l25 75 143 8 c78 4 144 6 146 4 2 -2 9 -53 15 -113 19 -193 76 -370 139
-433 28 -28 35 -29 144 -36 177 -11 326 -4 360 18 59 39 119 219 137 417 6 63
13 121 15 128 2 9 35 12 117 12 74 0 117 4 125 12 16 16 15 129 -1 152 -11 15
-30 18 -127 19 l-115 2 -6 45 c-4 25 -12 86 -19 135 -14 101 -51 238 -79 293
-11 20 -31 48 -46 62 l-27 25 -216 -3 c-171 -2 -222 -6 -240 -18 -83 -54 -146
-248 -168 -516 l-6 -78 -153 0 c-149 0 -153 1 -168 23 -18 28 -66 43 -165 52
l-73 7 -47 -48 -46 -49 -391 -8 c-368 -8 -393 -8 -440 10 -62 23 -65 38 -30
157 61 212 14 385 -125 461 -47 25 -68 29 -140 32 -47 1 -101 -3 -120 -10z
m237 -40 c70 -36 108 -84 134 -168 26 -87 22 -163 -16 -289 -20 -65 -25 -97
-20 -135 7 -64 22 -90 31 -56 6 20 11 22 40 18 18 -3 83 -27 144 -53 l111 -47
-3 -41 -3 -41 63 -8 c100 -12 249 -90 316 -166 32 -36 10 -23 -47 27 -74 64
-130 90 -242 113 -100 20 -142 17 -223 -17 -21 -8 -90 -36 -155 -61 -114 -43
-192 -81 -184 -89 2 -3 29 7 59 21 30 14 93 38 139 54 l84 30 50 -48 c64 -61
102 -83 199 -116 95 -32 218 -37 278 -11 46 20 140 21 176 2 15 -8 40 -28 56
-45 28 -30 29 -31 23 -123 l-6 -93 19 92 c10 50 34 128 54 173 30 67 36 93 36
148 0 66 -1 69 -41 107 -80 78 -90 133 -35 193 39 42 54 38 37 -8 -22 -66 28
-92 166 -89 55 1 88 -2 91 -9 2 -6 -6 -41 -18 -79 -18 -59 -21 -92 -21 -247 1
-259 -37 -424 -104 -454 -38 -18 -114 -15 -176 7 -114 40 -284 129 -321 168
-39 40 -83 126 -68 131 5 2 34 -17 65 -43 70 -57 156 -101 215 -109 45 -6 44
-6 -13 13 -73 24 -179 87 -236 140 -24 23 -48 41 -53 41 -5 0 -47 -58 -93
-129 -87 -134 -133 -178 -215 -207 -44 -16 -216 -18 -276 -3 -55 14 -68 35
-88 150 -9 46 -19 102 -23 124 l-7 40 -4 -41 c-2 -23 6 -86 17 -142 12 -55 21
-102 21 -105 0 -11 -66 -27 -113 -27 -126 0 -239 119 -304 317 -15 46 -31 83
-35 83 -14 0 -8 -48 12 -102 11 -29 20 -60 20 -69 0 -21 -48 -64 -85 -77 -30
-10 -30 -10 -4 -11 14 -1 45 12 67 29 l41 30 28 -47 27 -46 -35 -29 c-41 -36
-102 -68 -126 -68 -27 0 -137 68 -200 123 -87 76 -140 144 -198 257 -30 58
-71 134 -90 169 -19 35 -35 76 -35 90 0 29 27 74 39 66 14 -8 110 21 130 39
16 14 17 23 10 48 -13 47 0 53 37 17 47 -46 46 -82 -6 -145 -22 -27 -40 -54
-40 -60 0 -32 81 -111 184 -179 l61 -40 3 -90 c2 -49 7 -94 11 -98 4 -4 11 29
14 75 3 46 8 91 12 100 7 17 54 38 87 38 38 0 93 35 165 104 40 37 73 77 73
87 0 10 -11 26 -25 35 -51 33 -162 1 -222 -65 -13 -13 -23 -19 -23 -14 0 6 17
26 38 45 37 33 92 59 154 72 16 4 35 20 48 40 37 61 82 59 101 -5 16 -51 31
-50 27 3 l-3 42 50 17 c60 22 97 42 148 82 56 44 36 46 -23 2 -105 -77 -207
-96 -261 -47 -25 23 -35 44 -55 127 -27 111 -33 292 -13 385 37 171 218 256
376 177z m2058 -43 c-107 -157 -145 -616 -79 -941 19 -92 66 -221 95 -257 l20
-26 -40 0 c-83 0 -122 41 -165 179 -43 135 -51 209 -50 461 0 182 4 255 18
325 44 225 81 287 181 297 44 5 46 1 20 -38z m145 37 c0 -5 -6 -14 -14 -20
-19 -16 -62 -139 -80 -226 -68 -333 -28 -821 79 -979 14 -20 25 -39 25 -41 0
-6 -73 7 -91 16 -52 27 -120 245 -140 449 -20 211 6 529 57 672 20 58 60 117
87 128 29 12 77 12 77 1z m128 -51 c41 -61 87 -242 98 -394 l7 -86 -70 0 c-85
0 -94 -8 -95 -83 -1 -92 2 -96 85 -99 l72 -3 -2 -102 c-3 -147 -53 -342 -104
-407 -26 -33 -68 -34 -96 -3 -82 89 -131 373 -120 682 10 244 42 412 95 494
45 70 82 71 130 1z m-388 40 c0 -5 -4 -10 -10 -10 -16 0 -66 -110 -83 -185
-32 -136 -38 -192 -44 -360 -9 -299 45 -583 129 -672 l21 -23 -40 0 c-56 0
-99 37 -133 115 -97 216 -117 602 -48 900 40 172 90 245 169 245 21 0 39 -4
39 -10z m-3680 -180 c0 -5 -11 -15 -24 -22 -35 -19 -91 -90 -121 -154 -50
-106 -67 -195 -67 -354 0 -167 18 -252 78 -377 34 -71 111 -164 144 -175 8 -3
12 -9 8 -13 -15 -16 -117 37 -162 85 -100 107 -148 254 -150 465 -2 272 74
458 219 534 42 22 75 27 75 11z m-230 -7 c0 -3 -18 -21 -40 -40 -52 -44 -125
-191 -146 -293 -19 -89 -21 -288 -4 -381 24 -135 120 -307 192 -346 31 -16 31
-18 10 -21 -12 -2 -43 8 -67 22 -141 83 -239 341 -222 587 9 122 24 182 66
274 42 89 76 134 135 176 36 27 76 38 76 22z m110 -2 c0 -5 -9 -13 -20 -16
-26 -8 -83 -83 -115 -151 -33 -69 -62 -197 -70 -304 -16 -211 63 -462 178
-567 22 -19 37 -36 35 -38 -2 -3 -22 1 -44 8 -57 17 -133 98 -178 187 -117
237 -93 608 51 797 46 60 163 120 163 84z m284 -2 c54 -15 134 -98 174 -179
35 -71 72 -204 72 -257 l0 -33 -85 0 c-50 0 -85 4 -85 10 0 6 -9 19 -20 30
-24 24 -86 27 -117 5 -48 -33 -54 -145 -12 -199 16 -20 29 -26 61 -26 34 0 46
6 74 35 33 36 34 36 111 33 l78 -3 -3 -45 c-7 -139 -70 -306 -142 -377 -56
-57 -102 -77 -158 -69 -122 17 -219 131 -274 323 -32 113 -32 343 0 457 44
155 103 243 186 282 57 27 83 29 140 13z m2752 -356 c-3 -16 -8 -47 -11 -70
-7 -44 -18 -55 -29 -27 -15 40 5 124 31 124 11 0 13 -8 9 -27z m-66 7 c0 -5
-7 -10 -15 -10 -8 0 -15 5 -15 10 0 6 7 10 15 10 8 0 15 -4 15 -10z m124 -12
c-4 -13 -10 -41 -13 -62 -3 -22 -12 -41 -20 -44 -11 -4 -13 5 -7 47 9 66 15
81 33 81 10 0 12 -6 7 -22z m81 -19 c-4 -5 -12 -9 -19 -9 -8 0 -19 -7 -26 -15
-7 -8 -16 -15 -21 -15 -11 0 9 53 24 62 14 9 49 -10 42 -23z m1335 -8 c0 -16
3 -43 6 -60 l7 -31 -179 2 -179 3 -3 44 c-5 74 -12 71 178 71 l170 0 0 -29z
m41 -54 c-8 -8 -11 0 -10 29 1 39 1 39 11 11 7 -21 7 -32 -1 -40z m-3571 17
c22 -15 37 -30 34 -35 -3 -5 -18 1 -34 12 -16 12 -35 19 -43 16 -21 -8 -29 3
-16 20 15 17 13 17 59 -13z m2538 -16 l3 -26 -93 -6 c-51 -3 -144 -7 -205 -10
-122 -4 -133 1 -90 42 26 25 64 29 247 28 l135 -1 3 -27z m-2638 -33 c0 -30
-4 -55 -10 -55 -11 0 -14 93 -3 103 12 12 13 8 13 -48z m1965 38 c-4 -10 -9
-25 -12 -35 -3 -9 -15 -19 -26 -22 -12 -3 -133 -6 -269 -6 -223 0 -252 2 -290
19 -24 11 -52 23 -63 28 -23 9 2 10 385 22 146 4 269 9 274 9 4 1 5 -6 1 -15z
m121 -20 c-11 -11 -17 4 -9 23 7 18 8 18 11 1 2 -10 1 -21 -2 -24z m-2135 -33
c-1 -29 -7 -48 -11 -43 -9 9 -1 105 9 99 3 -2 4 -27 2 -56z m-571 41 c0 -6 -4
-13 -10 -16 -13 -8 -13 -101 1 -127 16 -29 0 -37 -22 -9 -24 29 -26 107 -3
139 16 23 34 29 34 13z m68 -3 c17 -17 15 -30 -5 -27 -39 3 -43 -1 -43 -46 0
-39 3 -47 25 -55 28 -11 32 -25 10 -34 -19 -7 -55 48 -55 85 0 33 28 89 44 89
6 0 17 -5 24 -12z m465 -35 c6 -31 0 -46 -14 -38 -12 8 -12 65 0 65 5 0 11
-12 14 -27z m711 1 c4 -9 5 -19 3 -21 -11 -10 -128 -22 -285 -28 -188 -8 -176
-11 -186 42 0 4 69 10 154 13 314 11 307 11 314 -6z m-756 -29 c12 -14 22 -27
22 -29 0 -6 -386 -15 -428 -9 -37 5 -43 9 -40 27 3 20 9 21 183 26 99 3 194 7
211 8 22 1 37 -5 52 -23z m172 5 c0 -11 -4 -20 -10 -20 -5 0 -10 9 -10 20 0
11 5 20 10 20 6 0 10 -9 10 -20z m-1340 -50 l0 -50 -58 0 c-64 0 -82 11 -82
50 0 39 18 50 82 50 l58 0 0 -50z m3270 -3 c14 -17 39 -47 57 -65 37 -39 47
-76 38 -135 -6 -33 -45 -128 -61 -146 -1 -2 -30 18 -63 43 -43 33 -69 64 -92
106 -40 76 -137 182 -189 207 -22 11 -38 22 -36 24 3 2 76 3 163 1 l158 -3 25
-32z m-1532 -44 c-60 -62 -76 -96 -90 -190 -6 -43 -14 -81 -18 -86 -14 -16
-216 138 -241 184 -8 15 -2 30 32 74 l41 54 101 4 c56 1 129 4 162 5 l59 2
-46 -47z m1192 -581 c-16 -60 -12 -146 11 -208 l22 -57 -21 -43 c-31 -64 -127
-127 -312 -207 -74 -31 -108 -40 -155 -41 -58 -1 -185 31 -185 46 0 5 25 8 55
8 l54 0 -24 49 c-14 27 -25 51 -25 53 0 2 37 4 83 4 55 1 94 6 117 17 35 17
35 17 5 12 -73 -13 -146 -17 -180 -11 -31 6 -40 14 -56 49 -28 64 -26 70 24
62 96 -17 163 -22 177 -14 12 7 11 9 -5 9 -28 1 -164 19 -197 26 -22 4 -30 15
-44 60 -9 30 -15 56 -13 58 2 2 38 -3 79 -11 101 -19 188 -10 266 28 79 38
128 86 183 179 72 123 68 122 113 39 35 -64 37 -74 28 -107z m-692 -139 c30
-80 33 -97 18 -111 -18 -18 -83 -30 -116 -22 -15 3 -44 31 -73 70 l-49 65 81
5 c44 3 83 9 87 13 16 16 42 5 52 -20z m56 -176 c21 -55 20 -64 -5 -72 -44
-14 -87 4 -118 50 l-30 45 42 0 c23 0 49 5 57 10 27 17 37 11 54 -33z m771
-40 c46 -46 73 -85 104 -149 44 -94 46 -98 32 -98 -5 0 -15 15 -21 34 -12 38
-85 110 -100 101 -6 -4 -10 -15 -10 -25 0 -32 -39 -126 -60 -145 -17 -16 -20
-16 -20 -2 0 8 6 22 14 29 26 26 46 77 46 117 0 51 -34 81 -92 81 -57 0 -98
-23 -165 -93 -99 -104 -143 -204 -143 -328 l0 -56 -67 -6 c-38 -4 -76 -8 -87
-9 -14 -2 -33 21 -76 91 -67 107 -126 183 -230 294 -40 43 -71 79 -69 81 2 2
14 8 25 14 20 10 27 6 68 -43 85 -99 221 -138 351 -100 149 43 366 176 404
249 8 14 19 26 24 26 5 0 37 -28 72 -63z m-718 -83 c12 -21 19 -42 17 -46 -3
-4 -25 -8 -49 -8 -39 0 -47 4 -79 44 -20 23 -36 45 -36 47 0 2 28 3 62 3 62
-1 63 -2 85 -40z m-207 -73 c0 -6 -11 -16 -24 -23 -116 -64 -104 -61 -256 -69
-152 -8 -266 -25 -287 -42 -9 -6 -13 -6 -13 1 0 29 101 49 310 61 117 7 142
11 187 34 28 15 54 31 58 37 8 13 25 13 25 1z m676 -53 c4 -13 18 -36 31 -52
13 -16 21 -31 18 -35 -9 -8 -74 71 -75 92 0 25 17 21 26 -5z m-626 -14 c0 -8
-71 -71 -154 -137 -83 -66 -157 -108 -267 -152 -111 -44 -139 -60 -139 -81 0
-12 7 -14 34 -9 29 6 39 2 73 -29 69 -62 99 -133 128 -302 26 -150 76 -316
142 -466 51 -117 43 -156 -35 -178 -20 -5 -124 -26 -231 -46 -216 -40 -326
-44 -358 -11 -16 16 -16 18 2 36 11 10 83 51 160 91 77 39 152 84 168 98 56
53 52 126 -13 208 -74 92 -240 345 -279 422 -40 80 -79 189 -101 279 -11 50
-11 55 13 96 22 37 117 120 117 101 0 -4 -12 -31 -26 -61 -34 -69 -24 -101 44
-135 39 -19 63 -23 142 -23 82 0 105 4 165 29 103 43 190 98 301 191 94 79
114 93 114 79z m745 -134 c15 -88 142 -136 220 -84 36 25 46 18 31 -23 -8 -21
-21 -54 -31 -74 -17 -35 -17 -36 18 -105 61 -122 72 -167 70 -289 0 -60 -8
-163 -16 -227 -17 -136 -11 -213 29 -373 46 -180 47 -188 31 -227 -9 -22 -28
-43 -47 -53 -41 -21 -198 -32 -228 -16 -28 15 -29 58 -3 134 27 76 45 235 38
321 -5 55 -17 97 -53 177 -130 296 -127 287 -130 387 -2 83 -5 96 -28 123 -24
29 -31 45 -38 94 -2 13 -14 21 -36 26 -18 4 -41 14 -52 24 -25 22 -50 98 -39
116 5 9 10 0 15 -29 12 -75 79 -121 133 -91 14 8 39 34 55 57 24 34 31 55 34
107 5 73 17 85 27 25z"/>
<path d="M2535 3221 c8 -15 155 -94 162 -88 5 6 -50 43 -114 76 -46 23 -57 26
-48 12z"/>
<path d="M3130 2488 c0 -18 52 -167 67 -193 18 -30 27 -11 10 22 -8 15 -25 61
-37 101 -20 67 -40 101 -40 70z"/>
<path d="M3123 2279 c-6 -6 -41 -14 -77 -16 -36 -3 -66 -10 -66 -14 0 -13 71
-11 111 2 34 12 72 39 53 39 -5 0 -15 -5 -21 -11z"/>
<path d="M2109 1728 c-47 -76 -2 -200 129 -353 42 -50 85 -102 94 -115 11 -17
17 -20 17 -10 1 20 -18 48 -101 144 -74 85 -126 181 -135 244 -4 31 0 50 16
77 24 41 25 45 11 45 -6 0 -19 -15 -31 -32z"/>
<path d="M3677 1674 c4 -33 7 -174 6 -313 -1 -303 13 -316 23 -20 7 205 -5
371 -28 385 -6 4 -7 -14 -1 -52z"/>
<path d="M3430 1672 c0 -6 16 -40 35 -74 40 -74 82 -237 92 -356 6 -87 23
-123 23 -50 -1 115 -44 309 -91 404 -31 62 -59 98 -59 76z"/>
</g>
</svg>
