<?xml version="1.0" standalone="no"?> <!DOCTYPE svg PUBLIC "-//W3C//DTD SVG 20010904//EN" "http://www.w3.org/TR/2001/REC-SVG-20010904/DTD/svg10.dtd"> <svg version="1.0" xmlns="http://www.w3.org/2000/svg" width="600.000000pt" height="489.000000pt" viewBox="0 0 600.000000 489.000000" preserveAspectRatio="xMidYMid meet"> <g transform="translate(0.000000,489.000000) scale(0.050000,-0.050000)" fill="#ffffff" stroke="none"> <path d="M7221 9528 c-382 -103 -555 -456 -457 -930 54 -265 -68 -416 -394 -488 -228 -49 -321 -84 -459 -170 -66 -41 -167 -86 -223 -99 -184 -43 -551 -353 -631 -533 -20 -45 -73 -145 -117 -220 -44 -75 -103 -206 -131 -292 -91 -273 -254 -461 -459 -529 -654 -216 -840 -1094 -339 -1596 73 -73 186 -204 251 -292 153 -207 321 -369 484 -469 l132 -80 61 -251 c80 -326 78 -366 -20 -568 -44 -91 -91 -216 -104 -278 -26 -125 -28 -126 -243 -137 l-117 -6 -44 180 c-111 449 -329 784 -612 940 l-109 60 -310 -4 c-526 -7 -809 -36 -930 -95 -312 -153 -533 -586 -564 -1106 -12 -200 -13 -205 -60 -205 -149 0 -213 -185 -115 -334 23 -35 48 -46 110 -46 47 0 84 -10 88 -25 4 -14 31 -110 60 -215 149 -535 480 -912 837 -951 162 -19 1004 115 1130 179 305 154 515 594 539 1127 l10 244 63 10 c34 6 107 13 161 16 l99 5 24 -107 c56 -246 96 -1002 61 -1140 -18 -69 -33 -155 -33 -190 0 -34 -18 -110 -40 -168 -70 -184 -50 -261 82 -313 45 -19 113 -57 150 -85 115 -88 319 -125 641 -116 406 11 407 108 7 415 -325 249 -373 657 -141 1194 136 313 266 610 270 615 6 7 566 64 634 65 156 1 120 -988 -53 -1448 -123 -326 -65 -398 333 -413 242 -10 303 -19 387 -58 90 -42 337 -83 521 -87 303 -7 277 218 -37 315 -162 50 -433 224 -544 350 -88 100 -18 427 183 856 50 107 126 281 168 385 96 237 149 259 297 122 81 -75 93 -79 189 -73 175 12 393 113 393 183 0 84 51 -2 84 -143 129 -548 540 -930 946 -879 345 43 653 92 702 111 301 114 588 632 588 1060 0 11 17 19 37 19 146 0 133 262 -14 283 -41 6 -53 28 -85 157 -108 431 -425 785 -744 830 -209 29 -802 -20 -916 -75 -293 -144 -514 -529 -554 -965 l-14 -160 -65 180 c-47 130 -64 210 -62 290 2 61 -4 176 -13 257 -10 93 -7 264 9 460 36 439 7 890 -71 1103 -60 164 -66 260 -40 590 13 158 10 229 -16 338 -33 137 -33 138 20 268 154 386 58 814 -214 955 -30 15 -80 75 -113 133 -33 58 -97 148 -142 198 -91 103 -90 123 3 96 189 -54 248 -4 357 302 145 409 175 895 69 1104 -147 290 -495 434 -831 344z m394 -37 c428 -113 562 -480 415 -1141 -38 -174 -150 -470 -193 -513 -138 -138 -705 174 -769 423 l-28 110 10 -100 c15 -149 59 -193 429 -432 l48 -31 -123 -123 c-124 -124 -172 -195 -69 -102 139 126 142 108 22 -128 -49 -96 -79 -174 -66 -174 5 0 24 38 43 83 27 69 35 77 47 45 10 -29 17 -17 28 47 19 109 34 107 91 -14 l46 -99 117 3 c64 2 117 12 117 22 0 10 14 6 31 -8 17 -14 27 -36 22 -50 -6 -13 15 -54 46 -91 64 -78 121 -184 120 -222 0 -14 -13 3 -29 39 -79 182 -218 291 -302 236 -60 -40 -61 -87 -1 -207 69 -138 95 -266 90 -450 -5 -248 81 -393 160 -270 50 78 57 60 11 -27 -45 -88 -22 -176 33 -126 51 46 76 21 30 -30 -30 -33 -35 -77 -33 -305 1 -146 -7 -324 -17 -395 -24 -161 -13 -174 40 -52 23 52 47 89 53 83 6 -6 -2 -40 -19 -76 -326 -706 -357 -858 -269 -1336 17 -93 42 -251 55 -350 36 -264 48 -278 76 -87 21 137 264 922 297 957 19 20 -21 -119 -125 -440 -160 -492 -192 -730 -99 -730 30 0 51 29 86 120 25 66 40 98 35 70 -45 -210 -26 -243 87 -153 24 20 26 7 15 -79 -12 -87 -3 -130 57 -296 54 -149 106 -439 56 -316 -6 15 -40 -25 -82 -95 -39 -67 -83 -121 -98 -121 -34 0 -34 1 24 80 71 97 62 121 -11 28 -107 -137 -118 -148 -149 -148 -46 0 -36 38 30 113 33 38 60 78 60 90 0 12 -42 -29 -92 -91 -51 -61 -108 -112 -127 -112 -32 0 -141 97 -141 126 0 25 76 15 86 -11 5 -14 25 9 46 51 57 119 13 185 -117 177 -133 -8 -117 130 39 334 71 94 78 204 30 468 -83 448 -110 709 -96 915 15 222 -19 353 -126 480 l-58 70 -14 -100 c-21 -156 -29 -153 -27 10 1 91 -13 201 -35 280 -28 97 -38 197 -38 396 0 243 -3 265 -35 257 -19 -5 -35 -1 -35 9 0 10 8 18 18 18 37 0 140 102 210 209 89 133 90 145 5 93 -102 -63 -107 -50 -10 24 223 170 251 405 88 749 -78 163 -139 187 -290 110 -148 -76 -143 -88 136 -321 56 -47 113 -106 126 -130 12 -24 -35 10 -105 77 -306 289 -318 288 -377 -42 -42 -232 -89 -388 -159 -524 -65 -129 -27 -243 98 -290 22 -8 -3 -44 -94 -133 -128 -127 -170 -142 -276 -102 l-53 20 51 62 c66 77 87 156 50 180 -45 28 -69 21 -29 -9 49 -36 28 -94 -64 -174 l-72 -64 -182 11 c-146 9 -163 7 -91 -9 50 -10 143 -16 209 -11 115 7 231 -26 231 -66 0 -71 -250 -171 -350 -141 -33 10 -48 18 -33 19 41 3 140 80 166 128 16 33 5 28 -45 -20 -138 -130 -252 -151 -414 -76 -58 27 -100 39 -92 27 26 -42 180 -96 278 -98 155 -3 192 -23 124 -68 -107 -70 -274 -113 -274 -71 0 11 7 20 15 20 8 0 42 23 75 51 l60 51 -90 -49 c-116 -63 -193 -78 -279 -54 -49 15 -62 14 -47 -1 12 -12 66 -25 119 -29 193 -13 207 -33 72 -105 -65 -34 -154 -68 -197 -75 -188 -31 -228 -33 -228 -11 0 12 8 22 18 22 148 0 402 804 402 1272 0 35 -206 -53 -278 -118 -122 -113 -234 -629 -217 -1009 9 -218 -7 -310 -32 -183 -16 79 -215 538 -234 538 -7 0 -38 -55 -68 -121 l-54 -121 110 -234 c60 -129 116 -256 123 -284 7 -27 -43 65 -112 205 -136 278 -146 288 -189 186 -53 -126 -37 -229 70 -467 127 -282 168 -404 223 -674 24 -121 50 -227 58 -235 38 -46 130 459 130 719 0 146 6 249 14 230 7 -19 14 -143 15 -277 l1 -243 63 -53 c98 -83 128 -63 124 82 -4 155 -68 370 -147 495 -43 66 -60 116 -56 159 l6 63 150 12 c83 7 152 11 154 9 3 -1 -45 -59 -105 -128 -60 -69 -109 -130 -109 -134 0 -90 568 -605 834 -757 14 -7 -19 75 -73 182 -54 108 -139 297 -189 420 -50 123 -118 279 -152 347 -35 68 -58 128 -53 133 15 15 140 -240 233 -474 122 -307 231 -518 371 -724 70 -102 205 -309 299 -459 95 -150 189 -288 211 -308 53 -47 49 -30 -10 50 -44 59 -48 80 -38 189 14 148 -13 211 -182 422 -136 170 -232 352 -380 720 -62 154 -158 374 -212 488 -118 246 -118 286 -1 73 96 -174 149 -219 510 -425 131 -75 288 -181 349 -236 126 -114 131 -93 32 130 -41 92 -43 102 -10 60 21 -27 67 -124 102 -215 44 -117 90 -195 157 -270 292 -322 315 -458 144 -871 -33 -80 -52 -140 -41 -133 33 20 22 -5 -84 -190 -90 -158 -110 -181 -160 -185 -148 -9 -140 -15 -148 103 -8 126 -93 313 -195 431 l-68 78 -53 -57 c-64 -69 -67 -57 -10 39 51 87 35 131 -87 241 -83 75 -74 95 11 28 82 -65 63 -23 -69 154 -89 119 -165 194 -285 279 -89 64 -219 160 -288 214 -144 112 -145 111 -66 -42 33 -63 73 -167 90 -232 36 -142 -9 -103 305 -261 355 -178 434 -268 345 -393 -59 -83 -211 -409 -251 -540 l-34 -112 -273 -23 c-408 -34 -369 -47 -353 112 10 105 35 180 115 343 62 127 108 251 118 320 9 62 27 158 40 214 44 195 -84 556 -305 853 -118 160 -127 160 -86 4 16 -65 30 -158 30 -208 0 -160 185 -475 302 -511 41 -14 50 -104 18 -180 -15 -35 -17 -33 -19 16 -3 128 -176 198 -301 122 -33 -20 -36 -26 -10 -17 290 104 368 -77 192 -445 -45 -93 -81 -176 -81 -183 1 -7 42 67 90 166 62 123 89 163 89 128 0 -28 -55 -163 -123 -299 -68 -136 -144 -297 -168 -358 -75 -184 -102 -159 -113 104 -12 299 -70 416 -171 345 -51 -35 -72 105 -54 357 17 247 20 254 91 254 189 0 230 278 63 426 -49 43 -35 74 -116 -266 -29 -126 -61 -257 -69 -290 l-16 -60 -2 74 c-9 315 -304 1259 -361 1156 -108 -193 -70 -683 88 -1156 50 -151 105 -326 122 -389 21 -75 42 -115 62 -115 19 0 26 13 19 35 -18 61 -52 293 -50 345 2 28 11 1 20 -60 44 -271 60 -323 90 -299 24 20 28 7 28 -84 1 -76 21 -156 70 -275 118 -288 127 -373 49 -511 -36 -63 -77 -119 -91 -125 -65 -24 -64 12 1 104 39 55 71 113 71 130 0 20 -9 17 -25 -12 -75 -127 -170 -249 -202 -260 -74 -24 -72 24 6 142 43 66 72 128 65 139 -7 11 -17 3 -23 -19 -33 -122 -201 -284 -246 -238 -14 14 39 140 84 198 30 39 30 39 -12 4 -24 -20 -54 -63 -67 -94 -28 -68 -69 -88 -121 -59 -41 21 -53 59 -20 59 45 0 58 141 27 295 -33 159 -26 239 38 460 30 106 10 237 -103 655 -126 465 -143 779 -59 1094 10 41 16 107 12 147 -4 40 8 138 27 219 39 162 59 666 34 850 l-15 110 37 -80 c24 -52 40 -70 47 -50 40 117 68 -324 35 -541 -37 -238 -18 -250 78 -49 239 495 305 867 190 1070 -34 61 -77 157 -96 215 -44 135 -48 133 -149 -43 -149 -261 -164 -340 -151 -809 l11 -408 -96 14 c-53 8 -134 32 -180 53 -53 24 -129 38 -207 38 -267 0 -329 -194 -165 -518 91 -180 125 -201 128 -79 3 87 3 87 19 -23 27 -182 149 -407 297 -549 50 -47 62 -74 61 -140 l-1 -81 -184 193 c-231 243 -320 305 -527 369 -91 27 -172 60 -180 72 -9 16 -2 18 25 7 159 -67 167 27 39 468 -51 175 -70 280 -68 368 l2 123 15 -143 c29 -267 107 -347 128 -129 20 196 101 350 263 499 71 65 129 131 129 147 0 69 111 115 405 165 57 10 75 22 75 52 0 22 59 154 131 294 l131 255 -50 40 c-54 43 -105 150 -72 150 11 0 20 -13 20 -30 0 -32 69 -110 96 -110 9 0 27 65 41 145 13 80 42 184 64 232 21 48 39 100 39 115 0 15 12 28 28 28 15 0 39 14 53 31 44 53 176 111 285 123 109 13 193 74 195 140 0 20 22 52 50 72 63 46 63 26 -1 -50 -129 -153 -55 -262 201 -297 109 -14 206 -44 308 -93 83 -39 226 -97 319 -129 93 -31 189 -70 215 -87 56 -37 79 -39 52 -5 -11 14 -25 76 -32 138 -7 62 -22 134 -34 160 l-20 47 10 -50 c6 -27 17 -96 23 -153 l13 -103 -188 65 c-285 99 -337 125 -337 165 0 83 47 189 159 365 182 284 244 531 192 771 -125 580 275 988 824 841z m-335 -3636 c0 -47 17 -148 39 -225 95 -345 109 -423 104 -576 -8 -231 32 -600 77 -719 50 -132 38 -147 -15 -17 -143 344 -565 787 -942 988 l-162 87 54 40 c30 22 90 52 133 66 42 14 110 55 150 91 39 35 105 80 146 99 41 19 116 83 167 143 82 97 100 108 171 108 l78 0 0 -85z m-2654 -353 c-16 -64 48 -246 134 -380 45 -70 78 -131 72 -137 -17 -17 -168 233 -202 336 -47 141 -92 113 -172 -109 -20 -56 -37 -84 -37 -62 -1 52 88 241 151 325 58 75 68 80 54 27z m-6 -1228 c201 -141 189 -131 176 -144 -9 -10 -377 245 -426 295 -41 41 85 -35 250 -151z m5213 -276 c749 -359 775 -1848 38 -2208 -141 -69 -159 -57 -40 28 637 458 537 1867 -156 2200 -52 25 -95 50 -95 55 0 22 136 -19 253 -75z m164 11 c744 -338 766 -1887 32 -2212 -121 -53 -129 -39 -20 38 637 449 565 1765 -119 2177 -137 83 -78 81 107 -3z m-550 -15 c657 -301 811 -1584 252 -2102 -473 -438 -1086 -133 -1279 636 -49 193 -69 176 230 199 l248 19 59 -63 c150 -160 424 -42 423 181 -2 276 -367 390 -461 143 -19 -49 -60 -58 -357 -79 l-188 -13 12 171 c50 705 557 1139 1061 908z m183 6 c762 -363 803 -1853 61 -2229 -140 -71 -159 -58 -40 27 633 455 534 1867 -156 2211 -90 45 -96 51 -47 51 31 0 113 -27 182 -60z m-6113 -331 c815 -368 898 -2356 113 -2722 -174 -81 -213 -63 -94 43 670 603 498 2329 -268 2689 -49 23 -88 47 -88 53 0 27 236 -18 337 -63z m259 10 c877 -438 881 -2557 5 -2732 -59 -12 -56 -6 64 116 620 632 420 2305 -315 2640 l-80 36 102 1 c74 0 135 -17 224 -61z m-526 -30 c840 -397 902 -2379 85 -2749 -156 -71 -163 -48 -28 85 642 632 434 2368 -322 2688 -36 15 -65 33 -65 40 0 28 231 -17 330 -64z m-262 -17 c606 -297 877 -1609 487 -2359 -384 -739 -1139 -537 -1442 387 -106 322 -108 340 -39 340 55 0 59 -7 92 -145 109 -465 447 -836 763 -835 711 2 927 1572 309 2248 -465 509 -1057 126 -1130 -731 -12 -141 -17 -154 -61 -163 -66 -12 -66 -8 -46 217 73 825 553 1293 1067 1041z m4790 -205 c2 -126 -4 -151 -48 -204 -28 -33 -69 -102 -92 -153 -23 -51 -45 -90 -49 -86 -17 17 52 358 104 515 64 193 82 178 85 -72z m-4858 -18 c621 -289 782 -1716 249 -2208 -357 -328 -830 -58 -1027 586 -71 231 -75 224 161 246 l202 18 48 -76 c227 -360 572 5 436 461 -91 308 -383 353 -478 74 -30 -89 -40 -92 -319 -117 l-138 -12 12 164 c49 666 437 1057 854 864z m6227 -350 c150 -118 78 -461 -86 -409 -105 33 -130 110 -35 110 77 0 114 30 114 92 0 89 -20 108 -112 108 -100 0 -109 21 -39 91 60 60 90 61 158 8z m135 -11 c94 -100 52 -388 -56 -388 -23 0 -23 8 3 44 65 93 30 319 -58 381 -12 8 -3 15 21 15 22 0 63 -23 90 -52z m1433 -11 c32 -68 3 -157 -52 -157 -38 0 -78 159 -51 203 21 34 77 8 103 -46z m-1616 -136 c16 -29 12 -97 -6 -102 -12 -3 -692 -58 -724 -58 -62 -1 -44 138 18 141 24 1 174 13 333 27 160 14 305 27 324 28 19 2 44 -14 55 -36z m-1284 -109 c38 -83 -3 -106 -215 -121 -104 -7 -585 -48 -1068 -92 -483 -44 -880 -77 -882 -74 -15 17 -29 155 -17 155 20 0 1370 112 1777 147 176 16 334 29 352 31 17 1 41 -20 53 -46z m-5003 -150 c193 -118 228 -604 54 -742 -92 -72 -216 -35 -277 82 -39 76 -42 73 69 88 146 20 172 46 172 176 0 156 -42 198 -189 192 -105 -4 -111 -2 -106 41 10 89 113 195 195 200 11 0 48 -16 82 -37z m4468 -41 c0 -11 -18 -66 -41 -123 -47 -120 -260 -850 -258 -885 1 -13 18 22 38 77 38 109 176 390 190 390 5 0 -18 -61 -51 -135 -135 -300 -191 -608 -133 -724 39 -75 409 -335 530 -372 58 -18 105 -41 105 -52 0 -11 20 -14 45 -7 32 9 37 7 17 -7 -22 -15 -20 -21 13 -31 57 -18 112 -85 94 -114 -11 -17 -20 -12 -32 19 -15 42 -84 81 -197 112 -39 10 -43 9 -20 -8 17 -11 64 -31 106 -42 171 -47 60 -161 -121 -123 -65 13 -160 24 -212 24 -58 0 -142 21 -219 54 -112 49 -149 54 -376 55 -396 3 -426 46 -298 428 79 237 118 478 133 826 l13 294 46 -30 c66 -43 129 -4 318 197 146 156 170 171 295 193 8 2 15 -6 15 -16z m-2304 -61 c11 -94 -29 -115 -263 -139 -248 -26 -232 -31 -238 71 l-5 78 200 23 c274 31 299 28 306 -33z m704 -95 c0 -19 -162 -577 -233 -805 -44 -141 -54 -209 -55 -400 -2 -334 -13 -315 467 -757 112 -104 126 -123 103 -151 -37 -44 -136 -42 -151 3 -6 19 -34 62 -62 95 l-51 60 51 -92 c53 -94 50 -118 -12 -118 -22 0 -52 31 -76 79 -22 43 -51 85 -65 93 -13 8 -4 -17 20 -56 57 -91 55 -116 -5 -116 -37 0 -58 18 -82 70 -19 39 -43 76 -53 83 -11 6 -5 -16 12 -50 44 -84 40 -103 -18 -103 -38 0 -56 17 -79 70 -16 39 -39 70 -50 70 -13 0 -7 -22 12 -51 71 -109 -152 -71 -341 58 -43 29 -87 53 -98 53 -48 0 -94 69 -94 141 0 101 56 236 82 197 13 -18 14 -8 4 32 -22 87 -17 145 23 280 20 66 57 215 82 330 l46 210 2 -124 c6 -612 215 -288 234 363 12 425 27 387 27 -71 1 -516 19 -629 53 -327 19 171 45 274 115 461 49 132 105 296 124 364 29 103 68 166 68 109z m-2900 -96 c77 -201 26 -235 -420 -278 -192 -18 -379 -38 -415 -44 l-65 -11 13 90 c8 62 2 109 -19 151 l-30 61 83 13 c511 76 829 83 853 18z m-949 -77 c42 -65 32 -210 -17 -240 -85 -51 -159 180 -83 257 43 42 63 39 100 -17z m3111 -322 l-10 -320 -21 250 c-18 211 -16 261 9 323 16 41 30 72 31 70 1 -1 -3 -147 -9 -323z m175 -7 c-23 -145 -46 -260 -51 -256 -9 9 50 460 66 511 28 88 22 -24 -15 -255z"/> <path d="M6807 8040 c0 -93 3 -132 8 -85 4 47 4 123 0 170 -5 47 -8 9 -8 -85z"/> <path d="M7031 8040 c6 -49 19 -252 29 -451 21 -425 34 -478 98 -402 34 42 125 217 116 226 -5 4 -37 -47 -73 -114 -88 -165 -94 -149 -120 301 -12 215 -31 422 -41 460 -18 66 -19 65 -9 -20z"/> <path d="M5498 7620 c-302 -160 -389 -716 -163 -1040 l49 -70 -10 130 c-5 72 -3 171 6 220 12 75 15 58 17 -102 7 -512 190 -594 437 -195 39 65 76 114 80 110 9 -9 -68 -148 -111 -198 -51 -61 -8 -63 128 -5 518 220 718 1008 257 1015 -122 2 -142 -22 -136 -160 l6 -115 -17 93 c-45 242 -206 296 -406 135 -51 -41 -70 -49 -54 -23 14 21 68 68 122 105 53 36 97 72 97 79 0 68 -189 81 -302 21z"/> <path d="M6505 7328 c-14 -6 -25 -45 -25 -85 0 -172 -89 -405 -214 -558 -71 -87 -72 -100 -5 -64 22 11 39 15 39 9 0 -7 -32 -26 -72 -42 l-72 -30 67 -71 c37 -40 105 -111 152 -159 47 -49 80 -88 72 -88 -7 0 -80 68 -161 150 -191 196 -239 184 -249 -63 -15 -382 676 -460 881 -99 157 275 238 784 131 825 -15 6 -63 -16 -105 -50 -80 -63 -384 -234 -384 -216 0 5 52 39 115 75 162 90 325 214 325 247 0 98 -384 268 -495 219z"/> <path d="M7406 7282 c-68 -17 -131 -40 -140 -49 -9 -10 2 -13 24 -6 22 6 79 20 127 31 48 10 98 29 109 40 12 12 18 21 13 19 -5 -1 -65 -17 -133 -35z"/> <path d="M7666 6365 c-20 -54 -145 -249 -196 -305 -57 -63 -71 -198 -51 -483 23 -315 121 -497 268 -497 22 0 27 -20 21 -85 l-7 -85 19 76 c11 42 47 116 80 164 181 263 178 964 -4 1163 -89 96 -111 104 -130 52z"/> <path d="M5403 6266 c-11 -42 -44 -168 -74 -280 -62 -233 -59 -254 79 -549 l69 -147 1 80 c1 44 20 188 42 320 49 298 49 417 3 520 -60 131 -97 148 -120 56z"/> <path d="M4743 6140 c-2 -158 50 -441 88 -477 8 -7 9 5 3 27 -50 175 -62 244 -74 420 l-14 200 -3 -170z"/> <path d="M6253 5927 c-144 -44 -104 -48 57 -6 77 20 118 37 90 36 -27 0 -94 -13 -147 -30z"/> <path d="M5885 5258 c-36 -32 -57 -58 -46 -58 26 0 133 94 121 107 -6 5 -39 -17 -75 -49z"/> <path d="M4958 4894 c-25 -51 -55 -86 -68 -81 -55 21 -68 -487 -18 -728 17 -85 65 -262 107 -395 41 -132 84 -271 96 -310 l21 -70 2 81 c3 114 -49 496 -92 671 -44 180 -49 678 -9 815 35 119 14 127 -39 17z"/> <path d="M6582 4576 c208 -517 307 -656 522 -727 421 -140 429 371 11 685 -58 44 -199 131 -315 195 -115 64 -234 133 -263 153 -99 70 -94 39 45 -306z"/> <path d="M7409 3751 c-9 -46 0 -106 28 -185 23 -64 42 -100 42 -81 1 19 -13 70 -31 115 -21 52 -28 105 -19 150 7 39 8 70 3 70 -6 0 -16 -31 -23 -69z"/> <path d="M5113 3615 c14 -80 26 -182 26 -228 1 -85 37 -135 88 -124 24 6 18 47 -36 233 -77 268 -114 325 -78 119z"/> <path d="M6905 2319 c-122 -128 -195 -222 -214 -277 -37 -103 -98 -532 -85 -597 5 -26 -7 -90 -27 -142 -34 -89 -15 -223 31 -223 6 0 2 17 -9 39 -31 58 -25 127 19 231 22 52 35 102 29 112 -7 11 43 113 110 228 170 290 362 748 338 806 -4 9 -90 -71 -192 -177z"/> </g> </svg>