<?xml version="1.0" standalone="no"?> <!DOCTYPE svg PUBLIC "-//W3C//DTD SVG 20010904//EN" "http://www.w3.org/TR/2001/REC-SVG-20010904/DTD/svg10.dtd"> <svg version="1.0" xmlns="http://www.w3.org/2000/svg" width="600.000000pt" height="489.000000pt" viewBox="0 0 600.000000 489.000000" preserveAspectRatio="xMidYMid meet"> <g transform="translate(0.000000,489.000000) scale(0.050000,-0.050000)" fill="#ffffff" stroke="none"> <path d="M6087 9263 c-424 -146 -527 -633 -280 -1312 28 -77 49 -140 47 -141 -2 -1 -43 -19 -91 -40 -253 -110 -338 -418 -197 -712 33 -69 54 -146 54 -200 1 -130 51 -296 120 -393 44 -64 66 -124 81 -230 11 -79 33 -194 50 -257 42 -165 -10 -596 -82 -675 -26 -28 -473 49 -585 101 -204 95 -490 161 -654 150 -719 -48 -738 -57 -900 -431 -49 -113 -129 -271 -179 -350 -111 -179 -152 -270 -275 -621 -127 -364 -238 -612 -328 -735 -82 -111 -55 -116 -266 48 -66 51 -144 100 -172 107 -28 7 -55 20 -61 30 -22 35 -128 19 -154 -22 -35 -57 -59 -50 -142 42 -69 76 -81 82 -149 71 -41 -7 -89 -13 -107 -13 -118 -1 -197 -269 -110 -373 26 -32 65 -97 88 -147 47 -106 101 -166 214 -237 139 -89 142 -87 -489 -202 -771 -140 -706 -105 -786 -423 -142 -566 -163 -497 186 -609 l261 -84 454 97 c565 122 447 133 1210 -115 179 -58 173 -47 217 -402 29 -245 -8 -213 403 -352 l336 -114 564 152 c1212 327 1080 259 993 511 -22 62 -65 208 -96 324 -102 379 -24 332 -1002 605 -379 106 -698 201 -708 210 -84 79 549 727 868 889 309 157 438 311 566 675 12 33 17 33 78 -5 36 -22 138 -63 226 -91 88 -27 234 -78 325 -113 l165 -63 4 -177 c2 -97 5 -218 5 -269 l1 -94 -400 -101 -400 -102 -6 -117 c-15 -289 116 -278 1566 124 l420 116 6 117 c7 133 1 139 -146 169 -86 18 -130 13 -324 -37 -260 -66 -246 -72 -246 93 l0 129 85 -17 c446 -88 736 56 1005 500 18 31 47 28 340 -27 176 -34 770 -143 1320 -242 550 -100 1002 -183 1003 -185 2 -2 13 -210 25 -463 12 -253 27 -560 34 -682 l13 -222 -387 -124 c-214 -68 -400 -128 -414 -133 -19 -6 -24 -52 -20 -172 l6 -164 149 -39 c184 -50 115 -67 1054 268 405 144 775 276 822 292 l85 30 0 146 0 146 -155 35 -155 34 -226 -65 c-124 -36 -228 -62 -232 -58 -9 11 -73 1199 -72 1341 0 99 5 114 45 125 25 7 171 45 325 84 338 86 350 94 350 257 0 166 -32 200 -224 231 -801 132 -2123 360 -2131 368 -5 6 0 95 13 199 57 486 -9 1060 -142 1239 -90 120 -284 505 -315 626 -28 110 -121 234 -239 319 -57 40 -103 91 -111 121 -51 206 -296 368 -555 368 -105 0 -129 8 -210 70 -85 65 -304 150 -386 150 -99 0 -137 156 -91 380 128 630 -250 1047 -782 863z m487 -70 c237 -120 335 -412 258 -773 -65 -307 -21 -408 202 -462 159 -40 233 -73 319 -145 47 -39 85 -49 218 -57 266 -15 423 -125 511 -357 41 -108 41 -127 -5 -424 l-20 -134 -124 11 c-452 38 -555 69 -701 205 -42 40 -73 60 -68 43 5 -16 67 -74 137 -128 107 -81 143 -125 212 -256 46 -88 125 -213 175 -278 51 -65 92 -133 92 -151 0 -51 -136 -382 -223 -543 -65 -120 -82 -176 -98 -320 -31 -283 -83 -496 -117 -479 -7 3 -60 31 -119 61 -129 68 -343 125 -533 143 -478 43 -768 96 -837 153 -9 8 6 94 35 191 62 212 65 341 12 563 -22 92 -40 197 -40 235 l0 69 106 0 c61 0 123 12 145 29 35 26 30 26 -46 8 -301 -76 -470 273 -379 782 21 121 -3 90 -35 -42 l-25 -107 -37 80 c-64 137 -54 383 18 478 110 144 243 199 326 133 44 -34 70 -40 140 -29 l86 12 25 -92 c13 -51 30 -92 38 -92 12 0 3 54 -31 170 -9 33 10 52 104 106 124 71 218 149 271 225 61 86 36 88 -37 4 -163 -191 -487 -349 -566 -277 -187 168 -312 959 -189 1192 149 282 515 398 800 253z m1290 -2365 l174 -13 129 -183 c146 -206 218 -280 299 -311 65 -24 161 -28 151 -6 -4 8 -33 64 -65 125 -48 92 -103 332 -81 357 4 4 40 -59 80 -140 41 -81 117 -210 169 -287 172 -255 210 -669 133 -1424 -49 -476 -54 -495 -175 -557 -74 -38 -112 -136 -82 -214 26 -71 17 -95 -37 -95 -58 0 -106 88 -93 170 6 38 3 74 -6 80 -29 18 -46 -124 -23 -189 19 -56 17 -61 -25 -61 -60 0 -92 72 -92 206 -1 75 -6 95 -20 74 -25 -39 -25 -163 0 -229 25 -67 -6 -66 -61 4 -37 47 -42 73 -33 170 6 63 3 115 -7 115 -15 0 -26 -56 -44 -220 l-5 -50 -37 54 c-34 50 -34 61 -4 178 34 132 28 177 -11 91 -24 -53 -58 -71 -58 -32 0 94 148 202 370 269 l80 24 6 123 c8 169 -20 305 -110 526 l-76 187 3 405 c1 224 -5 405 -15 405 -10 0 -18 -76 -18 -170 0 -153 -17 -204 -49 -151 -7 10 -61 41 -121 69 -189 86 -402 317 -571 620 l-66 118 108 -12 c60 -7 187 -18 283 -26z m52 -631 c40 -35 122 -85 183 -113 61 -27 115 -53 120 -58 5 -4 20 -117 33 -252 20 -199 38 -277 97 -420 83 -203 112 -354 69 -354 -112 3 -947 159 -943 177 3 12 11 101 18 197 12 159 23 192 118 375 57 111 129 271 159 356 64 179 54 173 146 92z m-3744 -764 c-142 -113 51 -392 272 -393 92 0 -50 -325 -148 -336 -49 -6 -59 -22 -100 -150 -25 -79 -77 -195 -116 -258 -38 -62 -140 -233 -225 -380 -182 -311 -482 -655 -607 -697 -85 -28 -201 -13 -325 42 l-88 39 53 65 c76 94 194 335 277 565 40 110 104 288 143 396 39 108 126 287 193 399 67 111 149 269 181 350 130 328 165 364 375 386 73 7 142 15 153 16 11 2 -6 -18 -38 -44z m1068 -93 c0 -11 -47 -20 -105 -20 -58 0 -127 -6 -155 -13 -34 -9 -44 -6 -30 8 40 42 290 63 290 25z m-165 -103 c168 -50 170 -54 70 -107 -250 -133 53 -485 529 -613 128 -35 218 -43 502 -45 l347 -2 -13 -68 c-23 -119 -88 -269 -162 -369 l-72 -97 -63 59 c-195 185 -672 491 -849 545 -199 62 -409 53 -342 -14 28 -28 -21 -264 -97 -476 -103 -287 -249 -453 -526 -601 -319 -169 -772 -616 -917 -905 -185 -368 -396 -384 -568 -44 -117 232 -157 282 -319 400 -237 173 -454 623 -324 673 45 17 98 -17 101 -65 6 -117 68 -267 68 -165 0 12 49 -24 109 -80 60 -57 125 -103 145 -102 33 0 33 3 -4 29 -76 55 -90 72 -90 111 0 59 55 70 106 23 68 -63 342 -164 446 -164 223 0 457 240 788 810 102 176 244 404 315 506 71 103 174 283 228 399 193 411 269 458 592 362z m632 -127 c216 -56 485 -160 662 -256 210 -113 141 -115 -82 -2 -231 117 -501 210 -756 258 -87 17 -163 35 -168 40 -27 28 176 4 344 -40z m942 10 c307 -32 494 -90 654 -202 110 -78 97 -547 -23 -788 -197 -398 -554 -540 -1015 -406 -167 48 -170 53 -73 106 326 176 482 856 262 1145 -46 61 18 42 215 -62 116 -62 211 -105 211 -96 0 21 -250 163 -445 253 -177 81 -190 97 -70 81 47 -6 175 -20 284 -31z m1291 -90 c545 -92 494 -75 504 -172 5 -62 0 -85 -23 -92 -116 -37 -328 -140 -362 -177 -35 -38 -53 -42 -125 -28 -46 8 -180 31 -298 50 l-214 34 -13 107 c-21 169 23 348 86 348 19 0 220 -31 445 -70z m2900 -477 c351 -57 380 -74 380 -221 0 -128 -15 -136 -510 -268 -663 -176 -580 -177 -1570 8 -544 101 -603 133 -467 259 66 61 -13 68 704 -63 452 -83 642 -109 723 -102 100 9 935 223 957 245 30 29 -31 22 -198 -23 -104 -28 -324 -86 -489 -129 l-300 -79 -630 113 c-723 130 -653 109 -609 176 23 35 38 107 44 207 4 85 11 163 14 174 6 19 230 -16 1951 -297z m-3100 7 c127 -22 237 -40 245 -40 8 0 15 -27 15 -59 0 -34 14 -67 32 -77 37 -21 22 -105 -18 -103 -13 1 -150 26 -304 56 l-280 54 -6 104 c-7 126 -20 123 316 65z m-2470 -387 c160 -183 152 -212 -11 -40 -126 133 -199 226 -199 253 0 26 -2 28 210 -213z m2477 113 c272 -52 285 -57 355 -130 39 -42 66 -76 60 -76 -7 0 -156 28 -332 61 -176 34 -349 67 -385 73 -70 12 -71 13 -52 81 15 56 13 56 354 -9z m1565 -289 c372 -66 639 -104 750 -105 l172 -2 24 -460 c13 -253 33 -616 44 -807 24 -394 28 -373 -79 -344 -99 27 -91 -22 -132 810 -17 340 -38 626 -47 635 -16 16 -617 130 -1194 226 -353 58 -454 86 -317 89 47 0 93 14 107 31 34 41 23 42 672 -73z m1176 -102 c14 -94 79 -1472 74 -1557 -2 -30 -170 -96 -191 -75 -12 12 -95 1506 -87 1581 5 57 16 68 86 89 111 33 107 34 118 -38z m-4523 -129 c14 -8 22 -546 8 -546 -4 0 -34 9 -67 21 l-60 21 -11 254 c-13 298 0 323 130 250z m199 -56 c42 -17 61 -131 52 -318 l-6 -138 -84 -24 c-110 -33 -106 -43 -106 262 l0 265 55 -16 c30 -9 70 -23 89 -31z m-4081 -156 c115 -114 161 -189 205 -341 42 -140 97 -207 293 -357 270 -207 371 -441 195 -452 -126 -8 -189 28 -330 189 -168 193 -213 235 -367 337 -162 108 -231 184 -258 287 -11 41 -43 95 -71 119 -51 44 -66 84 -31 84 10 0 28 -16 39 -35 10 -19 25 -29 33 -21 7 8 -6 40 -29 73 -23 33 -42 69 -42 81 0 39 32 24 60 -28 15 -27 34 -50 43 -50 25 0 21 17 -16 80 -32 54 -27 120 10 120 10 0 24 -30 31 -67 14 -72 62 -150 81 -131 6 7 -2 38 -19 70 -36 70 -37 93 -6 124 41 41 69 28 179 -82z m406 -53 c15 -24 -8 -121 -28 -121 -22 0 -63 100 -50 121 15 25 63 24 78 0z m4337 -61 c74 0 10 -34 -126 -67 -223 -53 -402 -93 -421 -93 -39 0 -17 60 26 70 25 6 131 32 235 58 105 27 202 45 217 40 14 -4 45 -8 69 -8z m-4231 -23 c17 -17 14 -35 -9 -71 -36 -54 -65 -32 -66 49 0 48 38 59 75 22z m4341 -112 l-6 -74 -240 -66 c-1523 -415 -1430 -396 -1430 -289 l0 77 435 116 c1361 365 1250 344 1241 236z m-1027 -103 c55 -22 37 -28 -325 -121 -307 -78 -464 -92 -464 -41 0 49 706 194 789 162z m-689 -321 c0 -95 -7 -101 -96 -75 -94 28 -148 144 -92 199 43 43 188 -51 188 -124z m-2981 -133 c34 -29 103 -105 153 -170 137 -179 325 -269 457 -219 53 21 64 17 129 -47 159 -153 332 -131 459 58 37 55 73 99 80 97 7 -1 210 -58 451 -126 241 -68 578 -160 749 -204 429 -112 403 -86 525 -527 33 -121 72 -263 87 -315 15 -52 20 -99 11 -105 -17 -10 -1049 -294 -1354 -372 l-185 -47 -330 109 c-300 98 -330 113 -339 159 -6 28 -21 137 -33 241 -39 320 87 250 -1148 641 -738 233 -681 239 -741 -76 -19 -102 -41 -185 -47 -185 -26 0 -454 146 -469 160 -33 30 115 649 167 701 20 20 83 45 142 56 263 51 1052 201 1097 209 28 5 56 10 63 11 8 2 42 -21 76 -49z m8928 -170 c104 -28 88 -38 -237 -146 -332 -109 -310 -107 -310 -33 0 92 396 221 547 179z m170 -148 c1 -72 -7 -96 -43 -118 -61 -39 -1629 -592 -1678 -592 -9 0 -16 48 -16 108 l0 107 325 113 c1574 544 1409 499 1412 382z m-1123 -192 c74 -28 63 -33 -315 -158 -298 -98 -311 -100 -413 -77 -149 33 -137 45 129 127 129 40 285 89 345 110 111 38 151 38 254 -2z m-8532 -283 c184 -57 331 -109 326 -114 -14 -14 -776 -180 -785 -171 -7 7 44 265 70 355 13 48 10 48 389 -70z m7774 14 l104 -31 0 -117 0 -118 -125 34 -125 33 -6 115 c-7 131 -6 131 152 84z"/> <path d="M7183 7647 c-37 -16 -63 -33 -58 -38 5 -5 44 5 87 23 54 23 110 29 188 21 71 -7 96 -5 70 7 -61 27 -212 20 -287 -13z"/> <path d="M5981 7506 c2 -22 219 -192 231 -181 5 6 -34 46 -86 89 -112 93 -146 114 -145 92z"/> <path d="M6710 7452 c-171 -47 -363 -126 -346 -142 5 -6 63 12 128 38 65 27 177 63 248 82 72 18 139 41 149 52 27 25 6 22 -179 -30z"/> <path d="M6234 7166 c-47 -77 -70 -657 -28 -699 26 -26 28 3 8 153 -15 116 -12 195 12 349 30 187 32 237 8 197z"/> <path d="M7218 6614 c-264 -285 -586 -375 -857 -240 -49 25 -93 41 -97 37 -16 -16 121 -87 193 -101 40 -8 77 -21 83 -30 18 -29 365 39 449 89 87 50 329 291 368 366 36 66 27 59 -139 -121z"/> <path d="M7363 6550 c-1 -33 8 -123 19 -200 82 -527 94 -593 96 -521 2 71 -53 463 -96 691 -14 71 -18 77 -19 30z"/> <path d="M6017 6250 c-29 -16 -58 -43 -64 -59 -15 -40 20 -40 42 0 10 17 58 44 106 59 79 24 82 27 29 28 -33 0 -84 -12 -113 -28z"/> <path d="M6320 6263 c0 -7 46 -30 101 -50 118 -41 245 -149 299 -252 21 -39 39 -57 39 -39 2 68 -130 227 -239 286 -65 36 -200 73 -200 55z"/> <path d="M7182 6260 c-38 -9 -81 -12 -95 -6 -15 6 -27 -1 -27 -14 0 -31 172 -16 206 18 25 25 14 25 -84 2z"/> <path d="M6214 6091 l12 -129 -58 -12 c-32 -7 -85 -26 -118 -42 -51 -25 -53 -28 -10 -18 28 6 79 17 115 23 l65 12 0 -139 c0 -164 -2 -168 -93 -143 -38 11 -80 16 -93 11 -13 -5 17 -19 66 -32 50 -14 104 -28 120 -33 25 -7 31 21 34 154 5 192 0 184 98 150 89 -31 342 -63 278 -35 -22 10 -110 33 -195 52 -178 38 -195 57 -195 209 0 55 -9 101 -19 101 -12 0 -15 -51 -7 -129z"/> <path d="M7210 6080 l-80 -14 80 -3 c44 -1 94 6 110 17 36 23 19 23 -110 0z"/> <path d="M6753 5695 c17 -116 27 -119 27 -8 0 51 -9 93 -20 93 -13 0 -16 -32 -7 -85z"/> <path d="M6300 5598 c0 -16 127 -46 290 -69 57 -8 93 -7 83 3 -21 23 -373 85 -373 66z"/> <path d="M5922 5487 c-26 -94 -28 -147 -5 -147 17 0 46 202 32 217 -3 4 -16 -28 -27 -70z"/> <path d="M6171 5418 c-28 -101 -31 -205 -3 -116 5 15 23 72 40 127 37 115 37 111 15 111 -10 0 -33 -55 -52 -122z"/> <path d="M6720 5432 c0 -16 -18 -70 -39 -120 -22 -51 -32 -92 -22 -92 10 0 37 50 60 111 47 127 48 129 21 129 -11 0 -20 -13 -20 -28z"/> <path d="M8678 6000 c-7 -60 -35 -195 -63 -300 -56 -210 -89 -409 -59 -360 11 17 25 73 33 126 8 54 36 183 63 288 28 105 47 228 44 273 -7 81 -7 80 -18 -27z"/> <path d="M3869 5079 c-65 -65 -109 -119 -98 -119 26 0 240 216 227 229 -6 5 -63 -44 -129 -110z"/> <path d="M3827 4621 c-252 -145 -461 -651 -395 -956 13 -62 18 -37 29 145 23 382 170 671 409 803 66 37 107 67 90 67 -16 0 -76 -27 -133 -59z"/> <path d="M4818 4938 c-97 -68 -158 -131 -158 -163 0 -11 39 16 88 61 48 44 115 95 150 113 34 18 62 36 62 42 0 26 -63 2 -142 -53z"/> <path d="M4666 4292 c-68 -102 -198 -270 -288 -374 -90 -103 -178 -204 -194 -223 -17 -19 -26 -40 -20 -45 24 -25 473 527 590 726 93 158 36 104 -88 -84z"/> <path d="M2800 3029 c0 -24 183 -293 192 -284 6 6 -26 67 -71 136 -45 69 -81 133 -81 142 0 9 -9 17 -20 17 -11 0 -20 -5 -20 -11z"/> <path d="M980 2524 c0 -12 43 -34 95 -50 723 -219 1714 -523 2094 -642 424 -134 524 -159 488 -122 -12 12 -703 227 -1856 579 -423 130 -781 240 -795 245 -14 6 -26 1 -26 -10z"/> <path d="M4346 1873 c-494 -125 -651 -173 -570 -173 61 0 1184 286 1184 302 0 27 -4 26 -614 -129z"/> <path d="M3687 1520 c37 -384 113 -824 113 -658 1 108 -88 749 -106 768 -12 13 -15 -26 -7 -110z"/> </g> </svg>