<?xml version="1.0" standalone="no"?> <!DOCTYPE svg PUBLIC "-//W3C//DTD SVG 20010904//EN" "http://www.w3.org/TR/2001/REC-SVG-20010904/DTD/svg10.dtd"> <svg version="1.0" xmlns="http://www.w3.org/2000/svg" width="600.000000pt" height="489.000000pt" viewBox="0 0 600.000000 489.000000" preserveAspectRatio="xMidYMid meet"> <g transform="translate(0.000000,489.000000) scale(0.050000,-0.050000)" fill="#ffffff" stroke="none"> <path d="M6098 8964 c-157 -42 -232 -87 -263 -160 -12 -30 -44 -78 -71 -107 -49 -54 -56 -190 -15 -308 20 -61 -102 -112 -758 -319 -356 -112 -516 -188 -771 -370 -104 -74 -229 -159 -276 -188 -133 -83 -136 -99 -97 -538 18 -211 39 -447 45 -524 31 -388 142 -650 427 -1007 207 -259 195 -226 209 -584 12 -278 50 -532 104 -683 16 -47 35 -176 41 -286 6 -110 33 -297 60 -416 44 -199 48 -250 41 -620 -11 -587 -29 -612 -446 -654 -860 -87 -1189 -188 -1838 -565 -303 -176 -344 -206 -378 -272 -34 -67 -61 -315 -36 -330 10 -7 25 47 32 120 23 224 27 228 482 488 273 156 424 226 679 312 246 83 223 85 369 -23 231 -170 360 -400 418 -744 28 -169 64 -233 64 -114 0 315 -209 724 -459 897 -45 32 -75 64 -67 72 23 21 356 74 683 109 335 35 402 59 475 169 30 45 60 79 66 76 444 -246 1452 -275 1884 -54 100 51 85 66 179 -189 142 -387 161 -763 50 -1007 -31 -69 -52 -131 -46 -137 15 -15 384 95 1115 333 743 242 680 238 680 49 0 -87 8 -150 20 -150 12 0 20 67 20 160 0 175 -1 174 151 212 l49 12 0 -173 c0 -110 7 -169 20 -161 11 7 20 89 20 182 0 163 2 170 51 188 85 33 89 26 89 -150 0 -230 37 -218 44 14 l6 184 280 91 280 91 6 127 c10 208 17 204 -490 305 -630 126 -685 124 -1286 -46 -703 -199 -945 -259 -963 -241 -68 68 -157 441 -156 654 1 454 27 545 291 1004 180 315 252 511 296 809 28 181 35 199 139 345 128 178 185 317 218 530 17 116 41 184 99 279 112 184 172 382 188 616 7 109 34 314 60 456 120 649 -30 907 -796 1369 -331 199 -436 298 -388 366 72 103 24 357 -68 357 -12 0 -29 22 -40 49 -46 122 -433 173 -722 95z m558 -35 c144 -42 143 -93 -3 -160 -362 -166 -1012 -72 -683 99 171 88 497 118 686 61z m81 -252 c-165 -128 -744 -160 -838 -45 -37 44 -10 55 74 27 168 -55 593 -10 739 79 76 47 97 -5 25 -61z m156 -5 c-156 -235 -1269 -272 -1121 -37 33 53 62 51 76 -5 39 -155 562 -170 850 -25 87 44 106 65 131 143 11 36 13 36 52 1 35 -31 36 -41 12 -77z m27 -111 c0 -220 -999 -333 -1133 -129 -43 66 -28 75 61 38 200 -84 709 -46 931 69 136 70 141 71 141 22z m-6 -240 c38 -44 167 -139 292 -213 461 -275 661 -443 818 -685 l86 -131 -1 -191 c-1 -112 -19 -274 -44 -391 -23 -110 -48 -276 -56 -370 -23 -275 -46 -275 -49 0 -2 138 -14 376 -27 529 l-23 279 -166 -219 c-341 -451 -579 -1281 -475 -1663 91 -339 76 -326 178 -160 72 118 249 325 264 309 45 -45 -104 -416 -241 -599 -73 -98 -87 -132 -100 -249 -32 -302 -126 -549 -359 -947 -198 -337 -231 -466 -231 -900 l0 -295 -95 -41 c-467 -200 -1380 -194 -1755 11 l-100 55 -11 460 c-8 346 -19 494 -46 598 -19 75 -43 242 -52 370 -10 134 -39 312 -68 422 -51 187 -95 533 -93 730 5 671 -15 848 -118 1060 -43 88 -102 246 -132 350 -72 257 -204 522 -338 684 -168 202 -159 245 78 404 77 52 190 130 250 173 180 127 376 213 851 369 248 81 501 175 562 208 107 58 115 59 182 31 38 -16 113 -29 167 -29 105 0 138 -30 138 -129 0 -61 7 -60 -90 -11 -82 42 -263 56 -240 20 7 -12 21 -16 31 -9 57 35 319 -111 319 -178 0 -45 117 -26 144 24 69 130 175 90 116 -43 -73 -164 -274 -203 -506 -97 l-135 61 -154 -80 c-288 -148 -483 -295 -655 -493 -150 -175 -349 -343 -405 -344 -14 -1 -73 26 -130 58 l-105 59 -2 -94 c0 -52 -3 -215 -6 -364 -8 -360 62 -565 292 -851 61 -77 127 -161 148 -187 21 -26 43 -44 47 -39 12 11 104 383 121 483 l12 75 60 -35 c131 -77 201 -154 268 -293 79 -164 161 -276 144 -198 -8 34 -1 45 26 45 47 0 60 -39 60 -183 0 -84 7 -115 23 -105 15 9 19 58 11 147 l-11 134 107 33 c146 45 393 185 490 279 114 109 99 136 -17 32 -205 -183 -528 -314 -675 -274 -277 77 -372 1226 -128 1535 214 270 776 309 1004 69 178 -188 220 -544 106 -897 -96 -298 -80 -552 45 -694 65 -74 -89 -238 -266 -284 -154 -40 -377 -131 -485 -199 -137 -87 -96 -97 51 -13 129 74 339 154 519 200 86 21 118 53 271 260 62 84 258 240 301 240 18 0 5 -364 -19 -490 l-11 -60 83 80 c294 282 390 568 453 1350 7 94 21 191 31 218 21 55 4 84 -25 41 -32 -48 -170 124 -283 354 -137 278 -410 625 -370 468 12 -43 -22 -79 -119 -129 -86 -43 -86 -43 -86 43 0 41 -9 88 -18 103 -17 26 3 93 60 207 10 19 18 59 18 90 1 79 101 163 218 184 5 0 39 -35 76 -78z m-335 -43 c-12 -23 -18 -58 -13 -78 9 -36 -16 -97 -33 -79 -33 36 -33 176 1 185 64 17 68 15 45 -28z m-139 -26 c0 -15 -13 -38 -30 -52 -16 -14 -30 -46 -30 -72 0 -35 -11 -48 -40 -48 -48 0 -52 25 -10 60 23 19 25 32 8 53 -17 20 -17 34 2 57 31 38 100 39 100 2z m-469 -445 c70 -32 157 -55 218 -57 100 -4 101 -4 101 -70 0 -83 -90 -113 -417 -138 -359 -28 -569 -170 -668 -452 -45 -129 -43 -664 4 -886 17 -81 31 -150 31 -155 0 -4 -54 26 -119 67 -113 70 -119 78 -120 155 -2 197 -108 465 -241 609 -64 69 -75 91 -52 104 85 47 266 215 361 335 135 169 230 248 461 382 309 179 291 175 441 106z m533 -117 c2 -82 4 -170 5 -195 1 -35 -12 -46 -56 -52 -79 -9 -88 6 -102 177 l-13 150 66 32 c36 18 73 34 81 35 8 2 17 -64 19 -147z m428 6 c104 -142 110 -168 26 -125 -34 18 -142 42 -240 55 -208 26 -213 32 -70 102 59 29 119 66 132 82 32 39 47 28 152 -114z m-69 -137 c224 -59 90 -221 -240 -290 l-132 -27 -53 64 c-46 54 -49 65 -21 70 118 22 143 46 143 139 l0 90 115 -14 c63 -8 148 -22 188 -32z m-551 -28 c28 -72 1 -86 -92 -44 -86 38 -88 41 -40 55 81 23 121 20 132 -11z m803 -176 c32 -69 104 -179 159 -246 l101 -121 -126 -132 c-183 -194 -307 -487 -309 -736 -1 -88 -8 -97 -130 -175 -56 -35 -127 -91 -159 -124 -174 -181 -253 182 -130 601 33 115 66 281 72 370 l13 162 96 25 c116 29 249 121 269 185 8 25 30 66 49 91 26 33 33 68 25 135 -14 120 0 114 70 -35z m-137 -88 c-76 -91 -393 -189 -433 -133 -40 54 -33 60 122 95 81 18 187 58 235 88 93 59 140 28 76 -50z m-106 -156 c-66 -53 -260 -121 -291 -101 -45 27 -16 47 115 79 74 18 148 42 165 52 59 37 67 16 11 -30z m2308 -4832 c482 -90 488 -92 489 -244 l1 -105 -560 -184 c-308 -101 -722 -235 -920 -297 -860 -272 -1220 -384 -1225 -380 -23 20 97 261 137 276 27 10 327 102 668 205 341 102 854 261 1140 351 286 90 552 173 590 183 39 11 79 28 89 38 44 41 44 42 -1259 -365 -416 -130 -1242 -377 -1259 -377 -6 0 -11 70 -11 155 -1 85 -14 217 -30 294 -16 76 -27 140 -25 142 6 4 1335 361 1445 388 109 26 228 13 730 -80z"/> <path d="M6225 8891 c-70 -31 -83 -71 -35 -111 41 -34 223 -15 266 28 82 82 -91 144 -231 83z m205 -31 c7 -11 -11 -29 -40 -40 -69 -26 -170 -26 -170 1 0 45 185 80 210 39z"/> <path d="M6068 5715 c-30 -58 -84 -153 -122 -212 -83 -131 -73 -160 14 -40 83 114 206 357 181 357 -11 0 -44 -47 -73 -105z"/> <path d="M5280 5563 c0 -9 18 -33 41 -54 22 -20 91 -103 153 -183 115 -151 171 -186 82 -51 -117 176 -276 341 -276 288z"/> <path d="M4600 5506 c0 -31 144 -289 155 -278 6 6 -20 71 -57 143 -65 126 -98 172 -98 135z"/> <path d="M4812 5438 c-95 -296 -133 -956 -61 -1078 86 -147 357 -285 485 -248 46 13 37 17 -59 29 -175 21 -379 158 -412 277 -30 106 -13 492 33 758 39 226 46 362 14 262z"/> <path d="M6853 5347 c-6 -21 -17 -73 -25 -117 -47 -263 -297 -818 -428 -951 -145 -146 -536 -239 -775 -183 -86 20 -123 -1 -40 -23 163 -44 551 3 715 87 200 102 492 669 559 1084 19 120 16 177 -6 103z"/> <path d="M7137 5305 c-98 -108 -252 -325 -230 -325 6 0 53 56 105 125 52 69 122 154 155 190 34 36 52 65 41 65 -11 0 -43 -25 -71 -55z"/> <path d="M5520 4926 c-72 -193 -120 -428 -117 -576 l2 -140 18 110 c10 61 27 172 38 248 17 118 76 319 128 437 9 21 7 35 -5 35 -12 0 -40 -51 -64 -114z"/> <path d="M6620 3988 c-73 -41 -108 -49 -186 -40 -58 6 -91 3 -83 -9 33 -54 238 -9 369 80 59 40 -12 18 -100 -31z"/> <path d="M5150 3930 c-123 -43 -297 -307 -263 -398 5 -12 15 -4 23 18 86 231 165 337 272 360 42 10 92 56 53 49 -3 0 -41 -13 -85 -29z"/> <path d="M5460 3905 c0 -9 38 -27 85 -40 125 -34 223 -127 337 -322 99 -169 226 -323 266 -323 11 0 -13 34 -52 75 -40 41 -115 147 -166 235 -108 185 -191 279 -290 329 -86 44 -180 67 -180 46z"/> <path d="M5321 3851 c-27 -68 -28 -451 -2 -451 12 0 15 51 8 125 -6 69 -2 179 9 245 22 133 16 164 -15 81z"/> <path d="M6372 3728 c-65 -71 -113 -133 -108 -139 13 -13 236 223 236 250 0 30 3 32 -128 -111z"/> <path d="M6693 3737 c-21 -12 -83 -17 -139 -12 -92 9 -98 7 -63 -19 49 -37 200 -23 245 22 37 36 13 42 -43 9z"/> <path d="M6548 3549 c-19 -40 -74 -112 -123 -161 -50 -49 -84 -96 -77 -103 7 -7 58 36 114 95 92 98 108 108 178 103 42 -3 81 3 87 13 7 10 -21 17 -63 16 -69 -2 -74 1 -68 53 8 74 -7 69 -48 -16z"/> <path d="M4939 3363 c46 -32 214 -49 255 -25 29 17 18 21 -56 21 -51 1 -123 6 -160 13 -50 8 -60 6 -39 -9z"/> <path d="M5420 3340 c0 -9 42 -31 94 -48 118 -41 366 -66 366 -38 0 12 -65 25 -145 31 -80 5 -183 24 -230 40 -47 17 -85 23 -85 15z"/> <path d="M4908 3175 c24 -252 68 -323 212 -335 97 -8 109 5 21 22 -149 29 -199 118 -201 353 0 64 -9 105 -23 105 -16 0 -18 -43 -9 -145z"/> <path d="M5311 3248 c-15 -78 7 -388 27 -388 6 0 12 103 12 230 0 232 -14 290 -39 158z"/> <path d="M5983 3010 c1 -109 6 -144 17 -110 21 67 21 180 0 230 -11 27 -17 -14 -17 -120z"/> <path d="M4940 2687 c0 -153 17 -267 39 -267 20 0 0 367 -21 389 -11 11 -18 -39 -18 -122z"/> <path d="M5475 2797 c29 -29 355 -50 371 -24 6 10 -49 18 -123 18 -73 -1 -164 6 -202 14 -54 12 -64 10 -46 -8z"/> <path d="M5280 2719 c0 -53 55 -73 94 -34 39 40 18 75 -45 75 -36 0 -49 -11 -49 -41z"/> <path d="M5960 2713 c0 -46 -63 -309 -92 -381 -10 -27 -8 -34 8 -24 51 31 149 452 105 452 -11 0 -21 -21 -21 -47z"/> <path d="M5727 1903 c-169 -58 -322 -164 -490 -339 -129 -134 -166 -162 -188 -143 -47 39 -146 256 -160 350 -15 97 -49 141 -49 64 0 -84 83 -296 150 -384 l66 -86 -118 -158 c-103 -138 -140 -207 -109 -207 6 0 47 52 94 115 305 419 524 565 845 565 325 0 564 -178 703 -522 89 -221 114 -183 30 44 -164 437 -661 658 -1049 466 -91 -44 -85 -18 11 53 105 77 263 154 352 171 36 7 65 20 65 30 0 26 -37 21 -153 -19z"/> </g> </svg>