<?xml version="1.0" standalone="no"?> <!DOCTYPE svg PUBLIC "-//W3C//DTD SVG 20010904//EN" "http://www.w3.org/TR/2001/REC-SVG-20010904/DTD/svg10.dtd"> <svg version="1.0" xmlns="http://www.w3.org/2000/svg" width="600.000000pt" height="489.000000pt" viewBox="0 0 600.000000 489.000000" preserveAspectRatio="xMidYMid meet"> <g transform="translate(0.000000,489.000000) scale(0.050000,-0.050000)" fill="#ffffff" stroke="none"> <path d="M5110 8772 c-347 -110 -563 -483 -489 -845 13 -65 30 -172 39 -240 8 -67 36 -175 62 -238 33 -79 41 -118 25 -123 -298 -100 -403 -599 -175 -834 63 -64 71 -83 59 -138 -7 -35 -26 -206 -41 -380 -16 -173 -39 -368 -51 -433 l-23 -117 -573 -112 c-315 -61 -699 -134 -853 -163 -974 -178 -2346 -455 -2384 -480 -103 -67 -56 -329 65 -369 l71 -24 -76 -38 c-280 -139 -250 -566 71 -1013 69 -97 155 -252 204 -370 47 -113 94 -216 105 -230 34 -44 5 -47 -148 -14 -144 31 -152 30 -294 -13 l-146 -46 6 -151 6 -151 150 -35 c83 -19 479 -111 880 -204 402 -92 793 -183 870 -202 139 -34 140 -34 260 15 l120 48 6 163 6 163 -106 29 c-58 16 -240 59 -404 95 l-299 66 160 151 c223 211 503 333 1127 491 117 30 275 87 357 130 l148 77 146 -125 c485 -413 816 -571 1202 -572 110 0 168 -12 250 -50 771 -357 1397 137 1397 1104 0 221 45 256 234 185 l46 -18 0 -851 c0 -667 -5 -850 -25 -850 -14 0 -169 28 -344 63 l-319 63 -136 -46 -136 -46 0 -156 c0 -86 9 -161 20 -168 18 -11 531 -119 1927 -405 l357 -73 113 59 113 59 6 154 c7 191 48 168 -516 284 -247 51 -472 97 -498 103 l-48 11 13 354 c7 195 13 584 13 864 l0 511 145 -7 c152 -7 670 147 1903 567 207 71 385 129 395 129 9 0 17 -243 17 -540 l0 -540 -45 0 c-25 0 -170 18 -324 40 l-278 41 -92 -46 -91 -45 -6 -122 c-8 -175 -141 -142 1596 -400 550 -81 606 -67 616 155 8 172 26 163 -481 240 l-435 66 0 653 0 654 345 117 345 117 6 141 c8 192 -12 209 -271 231 -107 10 -402 37 -655 61 -539 51 -438 64 -1303 -172 -339 -93 -620 -164 -625 -160 -5 5 60 151 143 324 225 465 332 838 338 1176 4 197 -18 226 -285 376 -114 65 -284 161 -378 214 -222 125 -387 179 -594 193 -147 11 -177 19 -242 72 -182 147 -517 213 -704 139 -35 -14 -72 -12 -122 6 -40 14 -148 40 -240 58 -298 59 -373 130 -350 337 47 436 32 549 -99 747 -155 238 -492 350 -779 259z m454 -63 c318 -108 415 -355 375 -950 -15 -225 82 -324 373 -382 109 -22 239 -58 288 -80 l90 -39 -64 -54 c-55 -46 -120 -158 -102 -175 3 -3 98 -18 210 -34 216 -32 392 -100 571 -221 148 -100 111 -102 -50 -2 -403 249 -877 270 -1014 44 -61 -99 -20 -166 187 -300 315 -203 655 -205 1120 -5 228 98 226 94 128 260 -181 308 -422 460 -746 472 -95 4 -96 4 -20 12 297 30 572 -128 780 -447 138 -213 182 -230 600 -243 165 -5 331 -1 370 9 l69 18 -159 66 c-247 100 -353 155 -436 224 -108 89 -75 97 44 10 54 -40 195 -113 313 -163 366 -153 384 -173 361 -414 -37 -400 -120 -667 -365 -1169 -102 -212 -196 -428 -208 -480 -28 -125 -62 -159 -186 -185 -57 -12 -168 -54 -248 -95 -79 -40 -149 -69 -155 -63 -23 23 16 76 105 146 144 112 51 83 -124 -39 -87 -60 -170 -110 -185 -110 -78 0 44 154 177 222 45 22 76 45 71 51 -20 20 -207 -92 -283 -171 -77 -80 -151 -108 -151 -56 0 37 174 199 280 261 50 29 77 53 60 52 -65 0 -206 -82 -307 -178 -115 -109 -133 -118 -133 -69 0 35 90 124 252 250 85 65 131 84 260 107 224 40 218 35 276 217 83 262 111 429 112 664 0 166 12 271 50 428 43 175 55 297 21 200 -5 -15 -19 -53 -30 -83 -52 -142 -436 -130 -841 26 -202 78 -279 70 -103 -11 l128 -58 -14 -169 c-28 -350 -94 -583 -276 -973 -117 -250 -134 -316 -154 -574 -1 -8 -35 -24 -76 -35 -41 -12 -160 -44 -265 -73 -210 -58 -253 -85 -277 -176 -18 -69 3 -67 -311 -40 -173 14 -182 18 -304 110 -137 103 -320 214 -423 256 -56 23 -65 37 -65 96 0 120 27 146 156 149 88 3 96 5 34 11 -151 13 -163 20 -189 113 -41 145 24 213 200 213 44 0 79 9 79 20 0 51 -248 -6 -291 -67 -36 -52 -37 -129 -2 -212 23 -54 21 -77 -9 -167 -52 -153 -66 -122 -71 154 -2 137 -17 315 -34 395 -17 81 -35 190 -39 242 l-9 96 72 -16 c152 -32 337 5 359 72 6 20 -4 19 -41 -6 -85 -55 -235 -62 -341 -15 -168 74 -247 247 -303 660 -38 275 -30 297 160 446 142 112 139 107 99 178 -50 87 -40 128 20 88 49 -32 130 -31 215 3 29 11 47 -11 96 -121 34 -74 65 -130 70 -125 13 12 -41 162 -80 220 -31 47 -29 50 84 127 133 90 305 244 305 273 0 11 -40 -17 -90 -63 -235 -216 -485 -336 -577 -276 -80 53 -294 518 -315 684 -10 77 -28 170 -40 208 -13 38 -19 136 -14 223 28 478 448 762 900 608z m-764 -1692 c-71 -10 -166 -37 -210 -60 -72 -36 -76 -37 -44 -4 52 55 150 84 274 83 l110 -1 -130 -18z m-87 -967 c28 -179 70 -281 172 -424 l60 -84 -66 -164 c-36 -90 -76 -214 -88 -276 l-22 -112 -139 -67 c-158 -76 -270 -102 -270 -64 0 28 109 138 170 174 56 31 27 52 -39 28 -29 -12 -91 -21 -137 -21 -46 -1 -160 -28 -253 -60 -373 -132 -344 -66 69 157 22 12 32 22 23 22 -30 1 -257 -104 -359 -166 -53 -31 -102 -52 -109 -45 -20 20 21 51 189 144 196 109 149 115 -70 9 -90 -44 -164 -72 -164 -63 0 41 330 164 573 213 141 28 265 59 274 69 40 38 133 669 133 897 0 76 28 -12 53 -167z m2848 47 c135 -34 205 -40 350 -31 l181 10 -27 -153 c-16 -87 -23 -213 -17 -293 15 -204 -116 -738 -186 -759 -18 -5 -90 -19 -161 -32 -164 -28 -206 -51 -380 -201 -127 -110 -265 -176 -369 -178 -62 -1 10 288 148 593 172 379 237 606 254 882 6 113 18 205 25 205 7 0 89 -19 182 -43z m-2601 -761 c0 -24 11 -96 24 -159 27 -133 30 -127 -69 -145 -93 -17 -100 29 -30 223 46 128 75 159 75 81z m-900 -64 c0 -5 -47 -24 -105 -43 -140 -46 -335 -145 -335 -170 0 -11 8 -35 19 -54 10 -19 23 -51 29 -70 7 -23 31 -35 70 -35 33 0 65 -9 72 -20 22 -36 126 -21 280 40 147 58 270 78 270 42 0 -79 -274 -132 -690 -132 -365 0 -438 -17 -537 -127 -48 -52 -97 -68 -453 -141 -159 -33 -348 -74 -420 -91 -188 -44 -241 -40 -833 60 -476 80 -684 103 -587 64 68 -27 1098 -195 1195 -195 58 0 291 41 517 92 226 50 415 88 419 84 4 -5 -70 -77 -165 -161 l-173 -153 -252 -61 c-139 -34 -285 -61 -324 -61 -90 0 -1231 193 -1289 218 -48 21 -79 185 -46 246 23 43 -2 36 618 156 292 56 922 177 1400 270 1384 269 1320 257 1320 242z m6463 -132 c782 -77 729 -58 713 -252 l-6 -78 -300 -103 c-264 -90 -1919 -635 -2580 -848 -471 -153 -385 -149 -1105 -49 -1039 144 -944 117 -945 271 0 134 21 149 330 235 480 134 488 136 523 86 16 -23 40 -42 53 -42 14 0 36 -19 51 -42 21 -34 38 -40 94 -29 38 7 85 4 105 -7 26 -14 54 -11 93 9 33 17 66 22 79 12 55 -42 97 -37 218 27 71 37 189 83 262 102 152 38 179 66 222 230 16 57 35 111 44 120 18 18 1456 415 1509 417 18 1 306 -26 640 -59z m-5503 -248 l0 -108 -215 -49 c-226 -52 -258 -52 -605 3 -71 12 -141 21 -155 22 -78 1 -5 40 115 61 124 23 144 22 176 -8 55 -49 142 -24 454 127 187 91 230 82 230 -48z m-1040 -149 l70 -15 -76 -37 c-41 -20 -126 -94 -188 -165 -62 -70 -199 -197 -304 -281 -106 -84 -291 -236 -412 -336 -638 -530 -924 -647 -1100 -450 l-39 44 109 94 c61 51 236 222 390 381 322 331 743 712 848 768 75 39 524 38 702 -3z m1040 -69 c0 -79 -30 -90 -161 -58 -135 34 -136 44 -2 77 145 35 163 33 163 -19z m-418 -45 c453 -84 864 -269 1126 -507 222 -201 194 -752 -53 -1028 l-65 -73 -110 73 c-60 40 -281 245 -490 456 -376 378 -561 545 -581 525 -6 -5 19 -34 55 -64 36 -30 255 -241 486 -470 231 -228 463 -439 515 -470 119 -69 118 -77 -10 -151 -209 -120 -295 -135 -422 -72 -206 101 -352 247 -603 602 -69 99 -145 198 -168 218 -52 47 -52 68 -2 132 22 28 39 58 40 67 0 36 -63 -37 -201 -228 -257 -358 -399 -454 -838 -570 -614 -163 -860 -274 -1100 -496 -375 -348 -564 -284 -630 214 -32 239 -41 264 -167 479 -139 239 -143 252 -145 499 -3 252 6 290 71 307 89 22 281 -137 365 -302 304 -599 588 -579 1415 100 110 90 290 236 400 323 110 88 251 219 314 291 186 212 314 235 798 145z m5938 -769 c0 -656 -5 -700 -81 -700 -39 0 -24 1315 16 1337 62 35 65 7 65 -637z m-146 -713 c-3 -3 -53 0 -110 6 l-105 13 6 622 5 622 100 33 100 33 5 -661 c3 -364 3 -664 -1 -668z m-9189 1071 c168 -27 190 -51 90 -98 -36 -16 -77 -55 -92 -86 l-26 -56 -60 86 c-33 47 -89 112 -124 143 l-63 58 60 -12 c33 -6 130 -22 215 -35z m-212 -83 c150 -160 187 -240 187 -409 1 -174 45 -309 153 -466 114 -166 148 -257 168 -436 10 -96 24 -195 30 -220 8 -38 -2 -51 -61 -75 -146 -61 -262 41 -381 338 -40 101 -115 245 -166 320 -291 426 -334 548 -280 796 45 212 222 289 350 152z m632 11 c8 -4 15 -53 15 -108 l0 -101 -110 97 c-139 122 -143 153 -15 135 52 -8 102 -18 110 -23z m838 -63 c-104 -124 -478 -483 -504 -483 -11 0 -19 99 -19 245 l0 245 125 4 c69 3 193 22 275 43 211 54 213 54 123 -54z m-608 26 c28 -9 38 -529 10 -529 -48 0 -169 252 -179 373 -15 189 4 206 169 156z m4335 -46 c45 -12 62 -29 66 -70 9 -76 68 -104 271 -131 252 -34 273 -52 273 -229 0 -435 -130 -808 -352 -1012 -293 -271 -901 -233 -1214 77 l-57 55 134 44 c455 150 724 691 578 1161 -25 78 211 -60 366 -215 134 -134 186 -154 96 -36 -77 102 -205 201 -379 295 -84 45 -152 86 -152 93 0 14 292 -11 370 -32z m1184 -330 c3 -3 11 -427 19 -942 l14 -937 -108 14 c-58 8 -114 19 -123 24 -9 6 -16 429 -16 942 l0 931 105 -14 c57 -7 106 -16 109 -18z m221 -907 l5 -885 -80 -41 -80 -41 0 932 0 931 75 -6 75 -6 5 -884z m-3146 545 c99 -146 112 -176 90 -202 -43 -52 -166 -106 -272 -120 -106 -14 -79 -29 -351 192 -37 30 -36 32 16 80 29 27 103 120 164 207 l112 158 62 -72 c35 -40 115 -149 179 -243z m5399 -91 c142 -22 261 -40 265 -40 4 0 7 -13 7 -30 0 -16 -4 -30 -8 -30 -5 0 -163 23 -352 50 -189 28 -350 50 -357 50 -7 0 1 9 17 20 44 29 141 24 428 -20z m517 -192 l915 -137 0 -96 c0 -52 -9 -95 -19 -95 -11 0 -333 49 -715 109 -383 60 -808 126 -946 146 l-250 37 -6 97 c-6 96 -6 96 50 86 31 -6 468 -72 971 -147z m651 19 c319 -48 362 -58 336 -83 -25 -26 -65 -24 -315 15 -488 75 -537 85 -526 103 18 29 115 22 505 -35z m-6275 -92 c72 -69 179 -151 237 -182 112 -61 297 -224 277 -245 -71 -71 -561 80 -820 252 -220 147 -222 150 -121 169 81 16 216 79 236 111 24 39 62 19 191 -105z m6699 -104 c0 -83 -33 -131 -89 -131 -30 0 -9 179 24 198 58 34 65 26 65 -67z m-10386 -369 c249 -60 366 -103 366 -137 0 -20 -14 -27 -45 -20 -693 146 -776 176 -521 192 24 2 114 -14 200 -35z m216 -190 c319 -71 715 -156 880 -191 461 -95 419 -74 426 -210 l6 -116 -56 15 c-101 25 -706 165 -1166 269 -247 56 -517 117 -600 137 l-150 35 -6 105 c-6 101 -4 105 40 95 25 -6 307 -69 626 -139z m347 56 l66 -93 -76 14 c-142 27 -197 100 -112 149 51 30 52 30 122 -70z m738 -142 c373 -78 406 -91 310 -128 -67 -25 -146 -14 -530 74 -164 37 -303 69 -311 70 -11 1 75 32 156 57 6 2 174 -31 375 -73z m465 -248 c0 -93 -91 -178 -192 -178 -4 0 -8 50 -8 111 l0 111 84 38 c106 47 116 40 116 -82z m3902 64 c415 -84 398 -79 398 -136 0 -37 -8 -46 -35 -38 -19 6 -206 43 -415 83 -432 83 -419 78 -328 118 86 37 47 40 380 -27z m628 -278 l1060 -214 6 -121 6 -122 -656 135 c-361 75 -858 179 -1106 232 l-450 97 -6 104 c-8 134 -121 145 1146 -111z m775 3 c469 -97 490 -104 404 -144 -74 -33 -76 -33 -575 70 l-456 95 66 35 c86 46 42 51 561 -56z m535 -257 c0 -104 -77 -190 -169 -190 -54 0 -5 236 54 265 105 53 115 46 115 -75z"/> <path d="M5743 7190 c-2 -33 -34 -150 -72 -259 -69 -201 -81 -282 -21 -138 53 126 113 365 104 412 -7 35 -9 32 -11 -15z"/> <path d="M5980 6712 c-334 -149 -416 -189 -429 -210 -19 -31 -3 -27 73 17 36 21 165 81 286 132 206 87 285 130 239 128 -10 0 -86 -30 -169 -67z"/> <path d="M5080 6753 c0 -4 68 -63 150 -132 83 -68 150 -115 150 -105 0 11 -62 70 -137 132 -124 101 -163 126 -163 105z"/> <path d="M8694 6422 c14 -99 -53 -248 -177 -402 -116 -143 -212 -284 -236 -348 -27 -70 -9 -66 28 6 16 31 97 148 179 258 214 288 297 502 214 553 -10 6 -14 -23 -8 -67z"/> <path d="M5412 6215 c-24 -164 20 -497 75 -579 87 -128 205 -166 522 -166 428 0 568 97 847 591 34 62 81 128 103 148 23 21 41 46 41 58 0 45 -97 -76 -200 -251 -251 -425 -421 -527 -848 -512 -437 16 -482 67 -510 582 -13 232 -15 238 -30 129z"/> <path d="M6929 5790 c5 -88 16 -284 23 -435 8 -158 22 -275 33 -275 13 0 16 52 8 135 -6 74 -18 247 -25 384 -8 137 -21 272 -31 300 -11 33 -14 -5 -8 -109z"/> <path d="M6668 5514 c-44 -24 -112 -64 -150 -89 -37 -25 -77 -48 -88 -52 -11 -4 -14 -14 -7 -22 7 -8 41 0 74 18 75 38 83 38 83 2 0 -16 16 -38 35 -50 31 -18 26 -29 -49 -101 -47 -44 -75 -80 -63 -80 12 0 58 36 102 80 60 60 96 80 143 80 62 0 112 29 112 65 0 10 -20 3 -44 -14 -63 -44 -125 -39 -188 16 l-55 47 94 64 c131 90 132 106 1 36z"/> <path d="M5472 5428 c-19 -50 -14 -284 7 -297 11 -7 17 40 15 114 -2 69 3 145 12 170 19 51 -14 64 -34 13z"/> <path d="M5620 5452 c0 -5 57 -37 128 -71 136 -65 272 -195 272 -261 0 -22 9 -40 20 -40 54 0 -12 131 -110 217 -93 82 -310 191 -310 155z"/> <path d="M5219 5386 c-70 -58 -120 -157 -117 -230 1 -31 12 -16 35 47 41 113 70 149 162 197 58 31 63 38 28 39 -24 1 -73 -23 -108 -53z"/> <path d="M6754 5115 c-38 -60 -94 -128 -125 -152 -30 -24 -50 -48 -45 -54 6 -6 38 12 71 40 67 57 196 246 179 263 -6 6 -42 -37 -80 -97z"/> <path d="M5477 5067 c-34 -42 -36 -256 -2 -290 19 -19 22 3 13 104 -18 200 -4 210 232 161 105 -22 208 -46 230 -54 32 -11 35 -9 16 12 -61 66 -446 119 -489 67z"/> <path d="M6049 4835 c19 -116 21 -119 27 -47 8 87 -9 172 -32 172 -9 0 -7 -56 5 -125z"/> <path d="M5560 4743 c0 -11 65 -30 145 -42 80 -13 165 -27 190 -32 25 -5 45 -2 45 8 0 10 -70 28 -155 42 -85 13 -171 28 -190 34 -19 5 -35 1 -35 -10z"/> <path d="M5442 4675 c-36 -113 -48 -229 -24 -244 15 -9 22 12 23 63 0 42 14 112 30 156 34 96 33 90 11 90 -11 0 -28 -29 -40 -65z"/> <path d="M5980 4415 c-49 -102 -93 -193 -97 -203 -5 -10 2 -11 15 -3 21 12 202 355 202 381 0 46 -45 -19 -120 -175z"/> <path d="M10860 4961 c-238 -78 -831 -267 -2110 -673 -444 -141 -784 -238 -850 -243 -89 -7 -1118 117 -1395 168 -63 11 -93 -18 -40 -38 14 -5 337 -49 719 -97 825 -103 672 -119 1586 173 363 116 836 265 1050 331 904 279 1300 413 1300 440 0 24 3 25 -260 -61z"/> <path d="M3440 4520 c-16 -11 -75 -34 -130 -52 -115 -38 -173 -78 -80 -57 92 22 250 92 250 111 0 22 -3 22 -40 -2z"/> <path d="M4140 4340 c-38 -22 -117 -54 -175 -71 -122 -37 -139 -60 -30 -39 92 17 285 106 285 131 0 24 3 25 -80 -21z"/> </g> </svg>